<?xml version="1.0" encoding="UTF-8" standalone="no"?>
<!DOCTYPE svg PUBLIC "-//W3C//DTD SVG 1.1//EN"
 "http://www.w3.org/Graphics/SVG/1.1/DTD/svg11.dtd">
<!-- Generated by graphviz version 2.30.1 (20170916.1124)
 -->
<!-- Title: fast Pages: 1 -->
<svg width="984pt" height="613pt"
 viewBox="0.00 0.00 984.00 613.00" xmlns="http://www.w3.org/2000/svg" xmlns:xlink="http://www.w3.org/1999/xlink">
<g id="graph0" class="graph" transform="scale(1 1) rotate(0) translate(4 609)">
<title>fast</title>
<polygon fill="white" stroke="white" points="-4,5 -4,-609 981,-609 981,5 -4,5"/>
<text text-anchor="middle" x="488" y="-589.8" font-family="Times,serif" font-size="14.00">fast&#45;4.3</text>
<!-- 0 -->
<g id="node1" class="node"><title>0</title>
<ellipse fill="lightgrey" stroke="lightgrey" cx="338" cy="-564" rx="33.2948" ry="18"/>
<text text-anchor="middle" x="338" y="-560.3" font-family="Times,serif" font-size="14.00">4.2.27</text>
</g>
<!-- 1 -->
<g id="node2" class="node"><title>1</title>
<ellipse fill="lightgrey" stroke="lightgrey" cx="399" cy="-492" rx="33.2948" ry="18"/>
<text text-anchor="middle" x="399" y="-488.3" font-family="Times,serif" font-size="14.00">4.2.26</text>
</g>
<!-- 1&#45;&gt;0 -->
<g id="edge22" class="edge"><title>1&#45;&gt;0</title>
<path fill="none" stroke="black" d="M385.462,-508.535C377.486,-517.689 367.24,-529.446 358.31,-539.693"/>
<polygon fill="black" stroke="black" points="355.431,-537.67 351.5,-547.508 360.709,-542.268 355.431,-537.67"/>
</g>
<!-- 2 -->
<g id="node3" class="node"><title>2</title>
<polygon fill="lightgrey" stroke="lightgrey" points="834,-124 790,-124 790,-80 834,-80 834,-124"/>
<text text-anchor="middle" x="812" y="-98.3" font-family="Times,serif" font-size="14.00">4.3.8</text>
</g>
<!-- 5 -->
<g id="node6" class="node"><title>5</title>
<polygon fill="yellowgreen" stroke="yellowgreen" points="859,-204 815,-204 815,-160 859,-160 859,-204"/>
<text text-anchor="middle" x="837" y="-178.3" font-family="Times,serif" font-size="14.00">4.3.9</text>
</g>
<!-- 2&#45;&gt;5 -->
<g id="edge2" class="edge"><title>2&#45;&gt;5</title>
<path fill="none" stroke="black" d="M818.831,-124.314C821.388,-132.289 824.345,-141.516 827.122,-150.18"/>
<polygon fill="black" stroke="black" points="823.878,-151.527 830.263,-159.982 830.544,-149.391 823.878,-151.527"/>
</g>
<!-- 3 -->
<g id="node4" class="node"><title>3</title>
<polygon fill="lightgrey" stroke="lightgrey" points="728,-44 684,-44 684,-0 728,-0 728,-44"/>
<text text-anchor="middle" x="706" y="-18.3" font-family="Times,serif" font-size="14.00">4.3.0</text>
</g>
<!-- 3&#45;&gt;5 -->
<g id="edge36" class="edge"><title>3&#45;&gt;5</title>
<path fill="none" stroke="black" d="M715.49,-44.2035C725.757,-65.7281 743.567,-99.3108 765,-124 777.031,-137.858 792.799,-150.778 806.512,-160.802"/>
<polygon fill="black" stroke="black" points="804.556,-163.705 814.733,-166.651 808.614,-158.002 804.556,-163.705"/>
</g>
<!-- 3&#45;&gt;2 -->
<g id="edge43" class="edge"><title>3&#45;&gt;2</title>
<path fill="none" stroke="black" d="M728.221,-39.3514C743.627,-50.6876 764.342,-65.9308 781.319,-78.4234"/>
<polygon fill="black" stroke="black" points="779.679,-81.5624 789.808,-84.6702 783.828,-75.9243 779.679,-81.5624"/>
</g>
<!-- 4 -->
<g id="node5" class="node"><title>4</title>
<ellipse fill="lightgrey" stroke="lightgrey" cx="259" cy="-22" rx="33.2948" ry="18"/>
<text text-anchor="middle" x="259" y="-18.3" font-family="Times,serif" font-size="14.00">4.2.16</text>
</g>
<!-- 4&#45;&gt;1 -->
<g id="edge7" class="edge"><title>4&#45;&gt;1</title>
<path fill="none" stroke="black" d="M290.533,-27.9832C387.379,-44.1671 674,-98.9916 674,-181 674,-181 674,-181 674,-349 674,-401.645 512.879,-456.894 437.293,-479.916"/>
<polygon fill="black" stroke="black" points="436.218,-476.585 427.652,-482.819 438.236,-483.288 436.218,-476.585"/>
</g>
<!-- 7 -->
<g id="node8" class="node"><title>7</title>
<polygon fill="salmon" stroke="salmon" points="160.92,-272.533 120,-284.905 79.0801,-272.533 94.7101,-252.514 145.29,-252.514 160.92,-272.533"/>
<polygon fill="none" stroke="salmon" points="167.641,-274.659 120,-289.063 72.3593,-274.659 92.7561,-248.535 147.244,-248.535 167.641,-274.659"/>
<polygon fill="none" stroke="salmon" points="174.361,-276.785 120,-293.222 65.6386,-276.785 90.802,-244.556 149.198,-244.556 174.361,-276.785"/>
<text text-anchor="middle" x="120" y="-263.3" font-family="Times,serif" font-size="14.00">4.2.20</text>
</g>
<!-- 4&#45;&gt;7 -->
<g id="edge13" class="edge"><title>4&#45;&gt;7</title>
<path fill="none" stroke="black" d="M239.098,-36.6479C208.92,-58.6207 152.511,-104.991 128,-160 117.607,-183.324 116.112,-212.399 116.932,-234.196"/>
<polygon fill="black" stroke="black" points="113.441,-234.464 117.491,-244.255 120.43,-234.076 113.441,-234.464"/>
</g>
<!-- 10 -->
<g id="node11" class="node"><title>10</title>
<ellipse fill="lightgrey" stroke="lightgrey" cx="244" cy="-348" rx="33.2948" ry="18"/>
<text text-anchor="middle" x="244" y="-344.3" font-family="Times,serif" font-size="14.00">4.2.21</text>
</g>
<!-- 4&#45;&gt;10 -->
<g id="edge15" class="edge"><title>4&#45;&gt;10</title>
<path fill="none" stroke="black" d="M258.194,-40.4196C255.726,-93.7244 248.263,-254.927 245.266,-319.661"/>
<polygon fill="black" stroke="black" points="241.759,-319.736 244.792,-329.887 248.751,-320.06 241.759,-319.736"/>
</g>
<!-- 4&#45;&gt;0 -->
<g id="edge26" class="edge"><title>4&#45;&gt;0</title>
<path fill="none" stroke="black" d="M227.242,-27.2514C158.081,-38.4767 0,-75.6565 0,-181 0,-181 0,-181 0,-421 0,-547.404 203.413,-563.146 294.637,-563.849"/>
<polygon fill="black" stroke="black" points="294.659,-567.349 304.666,-563.869 294.673,-560.349 294.659,-567.349"/>
</g>
<!-- 15 -->
<g id="node16" class="node"><title>15</title>
<ellipse fill="lightgrey" stroke="lightgrey" cx="198" cy="-182" rx="33.2948" ry="18"/>
<text text-anchor="middle" x="198" y="-178.3" font-family="Times,serif" font-size="14.00">4.2.19</text>
</g>
<!-- 4&#45;&gt;15 -->
<g id="edge35" class="edge"><title>4&#45;&gt;15</title>
<path fill="none" stroke="black" d="M252.472,-39.9088C241.832,-67.4683 220.677,-122.263 208.091,-154.863"/>
<polygon fill="black" stroke="black" points="204.818,-153.623 204.481,-164.213 211.348,-156.145 204.818,-153.623"/>
</g>
<!-- 16 -->
<g id="node17" class="node"><title>16</title>
<ellipse fill="lightgrey" stroke="lightgrey" cx="369" cy="-420" rx="33.2948" ry="18"/>
<text text-anchor="middle" x="369" y="-416.3" font-family="Times,serif" font-size="14.00">4.2.25</text>
</g>
<!-- 4&#45;&gt;16 -->
<g id="edge38" class="edge"><title>4&#45;&gt;16</title>
<path fill="none" stroke="black" d="M288.501,-30.4026C346.112,-46.8238 468,-92.074 468,-181 468,-181 468,-181 468,-268 468,-321.582 423.864,-370.929 394.531,-397.809"/>
<polygon fill="black" stroke="black" points="391.842,-395.517 386.699,-404.78 396.496,-400.746 391.842,-395.517"/>
</g>
<!-- 14 -->
<g id="node15" class="node"><title>14</title>
<ellipse fill="lightgrey" stroke="lightgrey" cx="320" cy="-102" rx="33.2948" ry="18"/>
<text text-anchor="middle" x="320" y="-98.3" font-family="Times,serif" font-size="14.00">4.2.18</text>
</g>
<!-- 4&#45;&gt;14 -->
<g id="edge44" class="edge"><title>4&#45;&gt;14</title>
<path fill="none" stroke="black" d="M271.344,-38.7845C279.943,-49.7797 291.569,-64.6458 301.3,-77.0889"/>
<polygon fill="black" stroke="black" points="298.757,-79.5179 307.674,-85.239 304.271,-75.2057 298.757,-79.5179"/>
</g>
<!-- 6 -->
<g id="node7" class="node"><title>6</title>
<polygon fill="lightgrey" stroke="lightgrey" points="790,-44 746,-44 746,-0 790,-0 790,-44"/>
<text text-anchor="middle" x="768" y="-18.3" font-family="Times,serif" font-size="14.00">4.3.3</text>
</g>
<!-- 6&#45;&gt;5 -->
<g id="edge12" class="edge"><title>6&#45;&gt;5</title>
<path fill="none" stroke="black" d="M766.898,-44.2233C766.65,-65.4647 768.638,-98.5572 781,-124 787.184,-136.727 797.33,-148.361 807.299,-157.753"/>
<polygon fill="black" stroke="black" points="805.033,-160.421 814.82,-164.479 809.699,-155.204 805.033,-160.421"/>
</g>
<!-- 6&#45;&gt;2 -->
<g id="edge32" class="edge"><title>6&#45;&gt;2</title>
<path fill="none" stroke="black" d="M780.023,-44.3138C784.669,-52.5492 790.067,-62.1195 795.091,-71.0254"/>
<polygon fill="black" stroke="black" points="792.182,-72.9918 800.144,-79.982 798.279,-69.5526 792.182,-72.9918"/>
</g>
<!-- 7&#45;&gt;10 -->
<g id="edge11" class="edge"><title>7&#45;&gt;10</title>
<path fill="none" stroke="blue" stroke-width="2" d="M146.906,-285.142C166.885,-297.871 194.114,-315.218 214.653,-328.303"/>
<polygon fill="blue" stroke="blue" points="212.972,-331.382 223.287,-333.804 216.733,-325.479 212.972,-331.382"/>
</g>
<!-- 7&#45;&gt;0 -->
<g id="edge24" class="edge"><title>7&#45;&gt;0</title>
<path fill="none" stroke="blue" stroke-width="2" d="M120.012,-293.442C120.969,-314.019 124.523,-343.213 136,-366 176.49,-446.39 262.925,-512.871 308.488,-543.993"/>
<polygon fill="blue" stroke="blue" points="306.779,-547.061 317.03,-549.739 310.687,-541.253 306.779,-547.061"/>
</g>
<!-- 7&#45;&gt;16 -->
<g id="edge31" class="edge"><title>7&#45;&gt;16</title>
<path fill="none" stroke="blue" stroke-width="2" d="M132.712,-289.43C146.935,-311.638 171.967,-345.861 202,-366 240.285,-391.672 291.763,-405.523 327.399,-412.551"/>
<polygon fill="blue" stroke="blue" points="326.987,-416.035 337.461,-414.438 328.278,-409.155 326.987,-416.035"/>
</g>
<!-- 7&#45;&gt;1 -->
<g id="edge37" class="edge"><title>7&#45;&gt;1</title>
<path fill="none" stroke="blue" stroke-width="2" d="M125.601,-291.727C131.488,-312.885 142.386,-343.85 160,-366 211.612,-430.902 306.184,-465.826 359.584,-481.191"/>
<polygon fill="blue" stroke="blue" points="358.8,-484.606 369.373,-483.921 360.68,-477.863 358.8,-484.606"/>
</g>
<!-- 8 -->
<g id="node9" class="node"><title>8</title>
<polygon fill="lightgrey" stroke="lightgrey" points="852,-44 808,-44 808,-0 852,-0 852,-44"/>
<text text-anchor="middle" x="830" y="-18.3" font-family="Times,serif" font-size="14.00">4.3.2</text>
</g>
<!-- 8&#45;&gt;2 -->
<g id="edge40" class="edge"><title>8&#45;&gt;2</title>
<path fill="none" stroke="black" d="M825.081,-44.3138C823.241,-52.2892 821.112,-61.5164 819.112,-70.1798"/>
<polygon fill="black" stroke="black" points="815.689,-69.451 816.85,-79.982 822.509,-71.0251 815.689,-69.451"/>
</g>
<!-- 8&#45;&gt;5 -->
<g id="edge41" class="edge"><title>8&#45;&gt;5</title>
<path fill="none" stroke="black" d="M836.023,-44.1886C838.745,-54.8369 841.649,-67.9974 843,-80 845.615,-103.23 843.89,-129.602 841.63,-149.572"/>
<polygon fill="black" stroke="black" points="838.136,-149.31 840.382,-159.664 845.083,-150.169 838.136,-149.31"/>
</g>
<!-- 9 -->
<g id="node10" class="node"><title>9</title>
<polygon fill="lightgrey" stroke="lightgrey" points="914,-44 870,-44 870,-0 914,-0 914,-44"/>
<text text-anchor="middle" x="892" y="-18.3" font-family="Times,serif" font-size="14.00">4.3.5</text>
</g>
<!-- 9&#45;&gt;5 -->
<g id="edge23" class="edge"><title>9&#45;&gt;5</title>
<path fill="none" stroke="black" d="M884.65,-44.2886C877.584,-64.7345 866.593,-96.489 857,-124 854.022,-132.541 850.78,-141.797 847.791,-150.317"/>
<polygon fill="black" stroke="black" points="844.439,-149.298 844.428,-159.893 851.043,-151.617 844.439,-149.298"/>
</g>
<!-- 9&#45;&gt;2 -->
<g id="edge33" class="edge"><title>9&#45;&gt;2</title>
<path fill="none" stroke="black" d="M870.14,-44.3138C861.071,-53.1561 850.423,-63.5371 840.736,-72.9825"/>
<polygon fill="black" stroke="black" points="838.274,-70.4949 833.557,-79.982 843.16,-75.507 838.274,-70.4949"/>
</g>
<!-- 10&#45;&gt;16 -->
<g id="edge3" class="edge"><title>10&#45;&gt;16</title>
<path fill="none" stroke="black" d="M266.347,-361.515C286.345,-372.713 315.852,-389.237 338.105,-401.699"/>
<polygon fill="black" stroke="black" points="336.411,-404.761 346.846,-406.594 339.831,-398.654 336.411,-404.761"/>
</g>
<!-- 10&#45;&gt;1 -->
<g id="edge16" class="edge"><title>10&#45;&gt;1</title>
<path fill="none" stroke="black" d="M249.376,-366.071C256.278,-385.613 269.937,-417.552 291,-438 310.581,-457.009 338.309,-470.421 360.767,-478.997"/>
<polygon fill="black" stroke="black" points="359.753,-482.352 370.347,-482.489 362.15,-475.776 359.753,-482.352"/>
</g>
<!-- 10&#45;&gt;0 -->
<g id="edge42" class="edge"><title>10&#45;&gt;0</title>
<path fill="none" stroke="black" d="M245.694,-366.229C247.901,-384.532 252.638,-414.07 262,-438 276.669,-475.496 302.315,-514.488 319.718,-538.744"/>
<polygon fill="black" stroke="black" points="317.003,-540.962 325.72,-546.984 322.661,-536.84 317.003,-540.962"/>
</g>
<!-- 11 -->
<g id="node12" class="node"><title>11</title>
<ellipse fill="lightgrey" stroke="lightgrey" cx="613" cy="-348" rx="33.2948" ry="18"/>
<text text-anchor="middle" x="613" y="-344.3" font-family="Times,serif" font-size="14.00">4.2.22</text>
</g>
<!-- 11&#45;&gt;1 -->
<g id="edge1" class="edge"><title>11&#45;&gt;1</title>
<path fill="none" stroke="black" d="M592.573,-362.578C566.303,-380.037 519.262,-411.293 479,-438 462.056,-449.24 443.085,-461.809 427.871,-471.885"/>
<polygon fill="black" stroke="black" points="425.796,-469.061 419.391,-477.501 429.661,-474.897 425.796,-469.061"/>
</g>
<!-- 11&#45;&gt;16 -->
<g id="edge25" class="edge"><title>11&#45;&gt;16</title>
<path fill="none" stroke="black" d="M587.876,-359.778C582.365,-361.971 576.524,-364.166 571,-366 515.647,-384.38 450.096,-400.589 409.022,-410.097"/>
<polygon fill="black" stroke="black" points="408.091,-406.72 399.127,-412.367 409.657,-413.542 408.091,-406.72"/>
</g>
<!-- 11&#45;&gt;0 -->
<g id="edge28" class="edge"><title>11&#45;&gt;0</title>
<path fill="none" stroke="black" d="M602.337,-365.412C580.852,-397.325 529.314,-468.263 470,-510 441.58,-529.998 404.52,-544.025 376.906,-552.603"/>
<polygon fill="black" stroke="black" points="375.765,-549.291 367.193,-555.517 377.777,-555.995 375.765,-549.291"/>
</g>
<!-- 12 -->
<g id="node13" class="node"><title>12</title>
<ellipse fill="lightgrey" stroke="lightgrey" cx="529" cy="-348" rx="33.2948" ry="18"/>
<text text-anchor="middle" x="529" y="-344.3" font-family="Times,serif" font-size="14.00">4.2.23</text>
</g>
<!-- 12&#45;&gt;1 -->
<g id="edge4" class="edge"><title>12&#45;&gt;1</title>
<path fill="none" stroke="black" d="M514.84,-364.467C491.983,-389.434 446.825,-438.761 420.144,-467.904"/>
<polygon fill="black" stroke="black" points="417.313,-465.813 413.142,-475.552 422.476,-470.54 417.313,-465.813"/>
</g>
<!-- 12&#45;&gt;16 -->
<g id="edge27" class="edge"><title>12&#45;&gt;16</title>
<path fill="none" stroke="black" d="M504,-359.938C476.956,-371.769 433.66,-390.711 403.413,-403.944"/>
<polygon fill="black" stroke="black" points="401.847,-400.809 394.088,-408.024 404.652,-407.222 401.847,-400.809"/>
</g>
<!-- 12&#45;&gt;0 -->
<g id="edge30" class="edge"><title>12&#45;&gt;0</title>
<path fill="none" stroke="black" d="M523.459,-366.149C512.392,-398.086 484.784,-467.297 441,-510 422.398,-528.143 396.334,-541.473 375.08,-550.227"/>
<polygon fill="black" stroke="black" points="373.716,-547.003 365.697,-553.928 376.284,-553.515 373.716,-547.003"/>
</g>
<!-- 13 -->
<g id="node14" class="node"><title>13</title>
<polygon fill="lightgrey" stroke="lightgrey" points="976,-44 932,-44 932,-0 976,-0 976,-44"/>
<text text-anchor="middle" x="954" y="-18.3" font-family="Times,serif" font-size="14.00">4.3.1</text>
</g>
<!-- 13&#45;&gt;5 -->
<g id="edge17" class="edge"><title>13&#45;&gt;5</title>
<path fill="none" stroke="black" d="M938.221,-44.3086C917.753,-71.9495 881.942,-120.308 858.864,-151.474"/>
<polygon fill="black" stroke="black" points="855.854,-149.658 852.716,-159.777 861.479,-153.824 855.854,-149.658"/>
</g>
<!-- 13&#45;&gt;2 -->
<g id="edge19" class="edge"><title>13&#45;&gt;2</title>
<path fill="none" stroke="black" d="M931.858,-38.47C928.914,-40.3873 925.908,-42.2769 923,-44 896.745,-59.5568 865.772,-75.2529 843.225,-86.224"/>
<polygon fill="black" stroke="black" points="841.599,-83.1223 834.116,-90.6225 844.643,-89.4259 841.599,-83.1223"/>
</g>
<!-- 14&#45;&gt;0 -->
<g id="edge6" class="edge"><title>14&#45;&gt;0</title>
<path fill="none" stroke="black" d="M348.172,-111.719C416.276,-134.524 589.081,-203.136 655,-330 719.633,-454.391 476.886,-529.089 378.075,-553.822"/>
<polygon fill="black" stroke="black" points="377.022,-550.476 368.145,-556.26 378.691,-557.274 377.022,-550.476"/>
</g>
<!-- 14&#45;&gt;7 -->
<g id="edge9" class="edge"><title>14&#45;&gt;7</title>
<path fill="none" stroke="black" d="M287.507,-105.881C250.805,-110.826 191.574,-124.172 156,-160 136.287,-179.853 127.361,-210.896 123.323,-234.267"/>
<polygon fill="black" stroke="black" points="119.826,-233.986 121.791,-244.397 126.747,-235.033 119.826,-233.986"/>
</g>
<!-- 14&#45;&gt;1 -->
<g id="edge14" class="edge"><title>14&#45;&gt;1</title>
<path fill="none" stroke="black" d="M338.66,-117.392C370.043,-143.381 430,-201.476 430,-266 430,-266 430,-266 430,-349 430,-390.127 417.435,-436.443 408.304,-464.672"/>
<polygon fill="black" stroke="black" points="404.966,-463.616 405.125,-474.21 411.607,-465.83 404.966,-463.616"/>
</g>
<!-- 14&#45;&gt;15 -->
<g id="edge29" class="edge"><title>14&#45;&gt;15</title>
<path fill="none" stroke="black" d="M299.304,-116.232C279.587,-128.838 249.7,-147.946 227.492,-162.144"/>
<polygon fill="black" stroke="black" points="225.337,-159.368 218.797,-167.703 229.108,-165.266 225.337,-159.368"/>
</g>
<!-- 14&#45;&gt;10 -->
<g id="edge39" class="edge"><title>14&#45;&gt;10</title>
<path fill="none" stroke="black" d="M314.656,-120.158C301.597,-162.084 267.989,-269.981 252.3,-320.354"/>
<polygon fill="black" stroke="black" points="248.87,-319.597 249.237,-330.185 255.553,-321.679 248.87,-319.597"/>
</g>
<!-- 14&#45;&gt;16 -->
<g id="edge45" class="edge"><title>14&#45;&gt;16</title>
<path fill="none" stroke="black" d="M324.106,-119.96C333.02,-157.531 354.136,-250.726 364,-330 366.564,-350.603 367.813,-374.054 368.422,-391.709"/>
<polygon fill="black" stroke="black" points="364.929,-391.985 368.725,-401.876 371.926,-391.777 364.929,-391.985"/>
</g>
<!-- 15&#45;&gt;1 -->
<g id="edge8" class="edge"><title>15&#45;&gt;1</title>
<path fill="none" stroke="black" d="M208.57,-199.356C215.837,-210.693 225.646,-226.177 234,-240 257.895,-279.537 266.182,-288.27 286,-330 308.025,-376.378 295.947,-397.113 327,-438 337.781,-452.196 353.379,-464.321 367.303,-473.376"/>
<polygon fill="black" stroke="black" points="365.803,-476.566 376.143,-478.875 369.5,-470.621 365.803,-476.566"/>
</g>
<!-- 15&#45;&gt;0 -->
<g id="edge10" class="edge"><title>15&#45;&gt;0</title>
<path fill="none" stroke="black" d="M166.125,-186.918C133.549,-192.686 84.0185,-206.669 57,-240 26.5852,-277.52 38,-298.701 38,-347 38,-347 38,-347 38,-421 38,-533.315 211.91,-556.919 294.907,-561.788"/>
<polygon fill="black" stroke="black" points="294.868,-565.291 305.037,-562.315 295.232,-558.3 294.868,-565.291"/>
</g>
<!-- 15&#45;&gt;10 -->
<g id="edge18" class="edge"><title>15&#45;&gt;10</title>
<path fill="none" stroke="black" d="M201.849,-200.04C206.896,-221.927 216.259,-261.026 226,-294 228.544,-302.613 231.598,-311.915 234.461,-320.286"/>
<polygon fill="black" stroke="black" points="231.222,-321.629 237.812,-329.926 237.834,-319.331 231.222,-321.629"/>
</g>
<!-- 15&#45;&gt;7 -->
<g id="edge20" class="edge"><title>15&#45;&gt;7</title>
<path fill="none" stroke="black" d="M183.329,-198.612C173.147,-209.446 159.282,-224.2 147.121,-237.141"/>
<polygon fill="black" stroke="black" points="144.496,-234.823 140.198,-244.507 149.597,-239.617 144.496,-234.823"/>
</g>
<!-- 15&#45;&gt;16 -->
<g id="edge34" class="edge"><title>15&#45;&gt;16</title>
<path fill="none" stroke="black" d="M223.755,-193.305C244.554,-202.756 273.335,-218.545 292,-240 331.678,-285.61 353.482,-354.765 363.031,-392.37"/>
<polygon fill="black" stroke="black" points="359.633,-393.209 365.404,-402.094 366.434,-391.549 359.633,-393.209"/>
</g>
<!-- 16&#45;&gt;1 -->
<g id="edge5" class="edge"><title>16&#45;&gt;1</title>
<path fill="none" stroke="black" d="M376.11,-437.589C379.571,-445.665 383.815,-455.569 387.705,-464.645"/>
<polygon fill="black" stroke="black" points="384.577,-466.231 391.733,-474.044 391.011,-463.474 384.577,-466.231"/>
</g>
<!-- 16&#45;&gt;0 -->
<g id="edge21" class="edge"><title>16&#45;&gt;0</title>
<path fill="none" stroke="black" d="M365.055,-438.174C362.688,-448.542 359.635,-462.022 357,-474 352.447,-494.701 347.448,-518.147 343.721,-535.776"/>
<polygon fill="black" stroke="black" points="340.22,-535.417 341.58,-545.925 347.069,-536.862 340.22,-535.417"/>
</g>
</g>
</svg>
