<?xml version="1.0" encoding="UTF-8" standalone="no"?>
<!DOCTYPE svg PUBLIC "-//W3C//DTD SVG 1.1//EN"
 "http://www.w3.org/Graphics/SVG/1.1/DTD/svg11.dtd">
<!-- Generated by graphviz version 2.30.1 (20170916.1124)
 -->
<!-- Title: fast Pages: 1 -->
<svg width="834pt" height="541pt"
 viewBox="0.00 0.00 833.95 541.00" xmlns="http://www.w3.org/2000/svg" xmlns:xlink="http://www.w3.org/1999/xlink">
<g id="graph0" class="graph" transform="scale(1 1) rotate(0) translate(4 537)">
<title>fast</title>
<polygon fill="white" stroke="white" points="-4,5 -4,-537 830.946,-537 830.946,5 -4,5"/>
<text text-anchor="middle" x="412.973" y="-517.8" font-family="Times,serif" font-size="14.00">fast&#45;4.3</text>
<!-- 0 -->
<g id="node1" class="node"><title>0</title>
<ellipse fill="lightgrey" stroke="lightgrey" cx="189.946" cy="-22" rx="33.2948" ry="18"/>
<text text-anchor="middle" x="189.946" y="-18.3" font-family="Times,serif" font-size="14.00">4.2.16</text>
</g>
<!-- 4 -->
<g id="node5" class="node"><title>4</title>
<ellipse fill="lightgrey" stroke="lightgrey" cx="138.946" cy="-102" rx="33.2948" ry="18"/>
<text text-anchor="middle" x="138.946" y="-98.3" font-family="Times,serif" font-size="14.00">4.2.18</text>
</g>
<!-- 0&#45;&gt;4 -->
<g id="edge4" class="edge"><title>0&#45;&gt;4</title>
<path fill="none" stroke="black" d="M179.378,-39.1617C172.335,-49.9338 162.945,-64.2951 154.987,-76.4663"/>
<polygon fill="black" stroke="black" points="152.043,-74.574 149.499,-84.8591 157.901,-78.4047 152.043,-74.574"/>
</g>
<!-- 6 -->
<g id="node7" class="node"><title>6</title>
<ellipse fill="lightgrey" stroke="lightgrey" cx="218.946" cy="-182" rx="33.2948" ry="18"/>
<text text-anchor="middle" x="218.946" y="-178.3" font-family="Times,serif" font-size="14.00">4.2.19</text>
</g>
<!-- 0&#45;&gt;6 -->
<g id="edge7" class="edge"><title>0&#45;&gt;6</title>
<path fill="none" stroke="black" d="M193.104,-40.2095C198.116,-67.5155 207.934,-121.006 213.92,-153.62"/>
<polygon fill="black" stroke="black" points="210.543,-154.608 215.791,-163.812 217.428,-153.344 210.543,-154.608"/>
</g>
<!-- 8 -->
<g id="node9" class="node"><title>8</title>
<polygon fill="salmon" stroke="salmon" points="124.866,-272.533 83.9457,-284.905 43.0258,-272.533 58.6558,-252.514 109.236,-252.514 124.866,-272.533"/>
<polygon fill="none" stroke="salmon" points="131.586,-274.659 83.9457,-289.063 36.3051,-274.659 56.7018,-248.535 111.19,-248.535 131.586,-274.659"/>
<polygon fill="none" stroke="salmon" points="138.307,-276.785 83.9457,-293.222 29.5843,-276.785 54.7478,-244.556 113.144,-244.556 138.307,-276.785"/>
<text text-anchor="middle" x="83.9457" y="-263.3" font-family="Times,serif" font-size="14.00">4.2.20</text>
</g>
<!-- 0&#45;&gt;8 -->
<g id="edge11" class="edge"><title>0&#45;&gt;8</title>
<path fill="none" stroke="black" d="M162.018,-32.0808C140.296,-40.7316 111.484,-56.0386 96.9457,-80 68.106,-127.532 72.1124,-195.007 77.8727,-234.27"/>
<polygon fill="black" stroke="black" points="74.4445,-234.998 79.4774,-244.321 81.3569,-233.894 74.4445,-234.998"/>
</g>
<!-- 10 -->
<g id="node11" class="node"><title>10</title>
<ellipse fill="lightgrey" stroke="lightgrey" cx="285.946" cy="-492" rx="33.2948" ry="18"/>
<text text-anchor="middle" x="285.946" y="-488.3" font-family="Times,serif" font-size="14.00">4.2.26</text>
</g>
<!-- 0&#45;&gt;10 -->
<g id="edge17" class="edge"><title>0&#45;&gt;10</title>
<path fill="none" stroke="black" d="M223.192,-23.6048C307.673,-27.0733 523.946,-48.8574 523.946,-181 523.946,-181 523.946,-181 523.946,-349 523.946,-439.158 396.435,-473.411 328.078,-485.295"/>
<polygon fill="black" stroke="black" points="327.339,-481.87 318.043,-486.953 328.48,-488.776 327.339,-481.87"/>
</g>
<!-- 9 -->
<g id="node10" class="node"><title>9</title>
<ellipse fill="lightgrey" stroke="lightgrey" cx="66.9457" cy="-348" rx="33.2948" ry="18"/>
<text text-anchor="middle" x="66.9457" y="-344.3" font-family="Times,serif" font-size="14.00">4.2.21</text>
</g>
<!-- 0&#45;&gt;9 -->
<g id="edge26" class="edge"><title>0&#45;&gt;9</title>
<path fill="none" stroke="black" d="M161.095,-31.0226C135.64,-39.4397 99.0867,-54.9856 75.9457,-80 23.8224,-136.343 25.6633,-164.669 10.9457,-240 6.34381,-263.555 1.45714,-271.955 10.9457,-294 16.6391,-307.227 27.4365,-318.697 38.0429,-327.55"/>
<polygon fill="black" stroke="black" points="35.9956,-330.392 46.0287,-333.796 40.3082,-324.879 35.9956,-330.392"/>
</g>
<!-- 14 -->
<g id="node15" class="node"><title>14</title>
<ellipse fill="lightgrey" stroke="lightgrey" cx="250.946" cy="-420" rx="33.2948" ry="18"/>
<text text-anchor="middle" x="250.946" y="-416.3" font-family="Times,serif" font-size="14.00">4.2.25</text>
</g>
<!-- 0&#45;&gt;14 -->
<g id="edge32" class="edge"><title>0&#45;&gt;14</title>
<path fill="none" stroke="black" d="M205.623,-37.9591C231.408,-64.2604 279.946,-121.651 279.946,-181 279.946,-181 279.946,-181 279.946,-268 279.946,-312.176 267.827,-362.338 259.258,-392.287"/>
<polygon fill="black" stroke="black" points="255.867,-391.413 256.4,-401.994 262.582,-393.389 255.867,-391.413"/>
</g>
<!-- 1 -->
<g id="node2" class="node"><title>1</title>
<ellipse fill="lightgrey" stroke="lightgrey" cx="340.946" cy="-348" rx="33.2948" ry="18"/>
<text text-anchor="middle" x="340.946" y="-344.3" font-family="Times,serif" font-size="14.00">4.2.23</text>
</g>
<!-- 1&#45;&gt;14 -->
<g id="edge20" class="edge"><title>1&#45;&gt;14</title>
<path fill="none" stroke="black" d="M322.733,-363.166C309.68,-373.318 291.9,-387.147 277.3,-398.502"/>
<polygon fill="black" stroke="black" points="274.876,-395.953 269.131,-404.856 279.174,-401.479 274.876,-395.953"/>
</g>
<!-- 1&#45;&gt;10 -->
<g id="edge21" class="edge"><title>1&#45;&gt;10</title>
<path fill="none" stroke="black" d="M334.421,-365.847C324.952,-390.294 307.315,-435.829 296.127,-464.714"/>
<polygon fill="black" stroke="black" points="292.811,-463.586 292.462,-474.175 299.338,-466.114 292.811,-463.586"/>
</g>
<!-- 2 -->
<g id="node3" class="node"><title>2</title>
<polygon fill="lightgrey" stroke="lightgrey" points="683.946,-124 639.946,-124 639.946,-80 683.946,-80 683.946,-124"/>
<text text-anchor="middle" x="661.946" y="-98.3" font-family="Times,serif" font-size="14.00">4.3.8</text>
</g>
<!-- 13 -->
<g id="node14" class="node"><title>13</title>
<polygon fill="yellowgreen" stroke="yellowgreen" points="708.946,-204 664.946,-204 664.946,-160 708.946,-160 708.946,-204"/>
<text text-anchor="middle" x="686.946" y="-178.3" font-family="Times,serif" font-size="14.00">4.3.9</text>
</g>
<!-- 2&#45;&gt;13 -->
<g id="edge14" class="edge"><title>2&#45;&gt;13</title>
<path fill="none" stroke="black" d="M668.777,-124.314C671.333,-132.289 674.291,-141.516 677.067,-150.18"/>
<polygon fill="black" stroke="black" points="673.824,-151.527 680.209,-159.982 680.49,-149.391 673.824,-151.527"/>
</g>
<!-- 3 -->
<g id="node4" class="node"><title>3</title>
<polygon fill="lightgrey" stroke="lightgrey" points="577.946,-44 533.946,-44 533.946,-0 577.946,-0 577.946,-44"/>
<text text-anchor="middle" x="555.946" y="-18.3" font-family="Times,serif" font-size="14.00">4.3.1</text>
</g>
<!-- 3&#45;&gt;13 -->
<g id="edge6" class="edge"><title>3&#45;&gt;13</title>
<path fill="none" stroke="black" d="M565.435,-44.2035C575.702,-65.7281 593.512,-99.3108 614.946,-124 626.976,-137.858 642.745,-150.778 656.458,-160.802"/>
<polygon fill="black" stroke="black" points="654.501,-163.705 664.678,-166.651 658.56,-158.002 654.501,-163.705"/>
</g>
<!-- 3&#45;&gt;2 -->
<g id="edge23" class="edge"><title>3&#45;&gt;2</title>
<path fill="none" stroke="black" d="M578.167,-39.3514C593.572,-50.6876 614.288,-65.9308 631.265,-78.4234"/>
<polygon fill="black" stroke="black" points="629.625,-81.5624 639.754,-84.6702 633.774,-75.9243 629.625,-81.5624"/>
</g>
<!-- 4&#45;&gt;9 -->
<g id="edge8" class="edge"><title>4&#45;&gt;9</title>
<path fill="none" stroke="black" d="M125.899,-118.921C109.388,-138.972 79.9607,-174.385 53.9457,-204 39.6212,-220.307 28.8143,-219.771 20.9457,-240 12.2452,-262.367 12.5495,-271.517 20.9457,-294 25.2974,-305.653 33.4942,-316.441 41.7771,-325.2"/>
<polygon fill="black" stroke="black" points="39.4184,-327.79 48.9837,-332.346 44.3474,-322.82 39.4184,-327.79"/>
</g>
<!-- 4&#45;&gt;8 -->
<g id="edge22" class="edge"><title>4&#45;&gt;8</title>
<path fill="none" stroke="black" d="M133.267,-119.83C124.124,-146.926 106,-200.638 94.4522,-234.863"/>
<polygon fill="black" stroke="black" points="91.1204,-233.79 91.2395,-244.384 97.753,-236.028 91.1204,-233.79"/>
</g>
<!-- 4&#45;&gt;6 -->
<g id="edge25" class="edge"><title>4&#45;&gt;6</title>
<path fill="none" stroke="black" d="M154.371,-118.039C166.213,-129.585 182.746,-145.706 196.119,-158.744"/>
<polygon fill="black" stroke="black" points="193.965,-161.532 203.568,-166.007 198.852,-156.52 193.965,-161.532"/>
</g>
<!-- 4&#45;&gt;10 -->
<g id="edge27" class="edge"><title>4&#45;&gt;10</title>
<path fill="none" stroke="black" d="M115.382,-114.679C96.9146,-124.73 71.4923,-140.653 53.9457,-160 -8.16803,-228.487 -14.3746,-282.319 24.9457,-366 42.54,-403.444 49.1251,-415.659 83.9457,-438 132.998,-469.472 200.093,-482.317 243.232,-487.519"/>
<polygon fill="black" stroke="black" points="243.063,-491.022 253.39,-488.656 243.842,-484.065 243.063,-491.022"/>
</g>
<!-- 4&#45;&gt;14 -->
<g id="edge31" class="edge"><title>4&#45;&gt;14</title>
<path fill="none" stroke="black" d="M144.967,-119.99C163.389,-171.964 219.088,-329.116 241.477,-392.285"/>
<polygon fill="black" stroke="black" points="238.255,-393.67 244.894,-401.926 244.853,-391.332 238.255,-393.67"/>
</g>
<!-- 5 -->
<g id="node6" class="node"><title>5</title>
<polygon fill="lightgrey" stroke="lightgrey" points="639.946,-44 595.946,-44 595.946,-0 639.946,-0 639.946,-44"/>
<text text-anchor="middle" x="617.946" y="-18.3" font-family="Times,serif" font-size="14.00">4.3.2</text>
</g>
<!-- 5&#45;&gt;2 -->
<g id="edge12" class="edge"><title>5&#45;&gt;2</title>
<path fill="none" stroke="black" d="M629.969,-44.3138C634.615,-52.5492 640.013,-62.1195 645.037,-71.0254"/>
<polygon fill="black" stroke="black" points="642.128,-72.9918 650.089,-79.982 648.225,-69.5526 642.128,-72.9918"/>
</g>
<!-- 5&#45;&gt;13 -->
<g id="edge29" class="edge"><title>5&#45;&gt;13</title>
<path fill="none" stroke="black" d="M616.844,-44.2233C616.596,-65.4647 618.584,-98.5572 630.946,-124 637.13,-136.727 647.276,-148.361 657.245,-157.753"/>
<polygon fill="black" stroke="black" points="654.979,-160.421 664.766,-164.479 659.645,-155.204 654.979,-160.421"/>
</g>
<!-- 6&#45;&gt;8 -->
<g id="edge2" class="edge"><title>6&#45;&gt;8</title>
<path fill="none" stroke="black" d="M197.852,-195.969C178.038,-208.151 147.884,-226.69 123.578,-241.634"/>
<polygon fill="black" stroke="black" points="121.603,-238.739 114.917,-246.958 125.269,-244.702 121.603,-238.739"/>
</g>
<!-- 6&#45;&gt;10 -->
<g id="edge13" class="edge"><title>6&#45;&gt;10</title>
<path fill="none" stroke="black" d="M248.776,-190.313C303.66,-205.564 419.375,-246.503 466.946,-330 506.568,-399.546 387.241,-454.67 323.401,-478.378"/>
<polygon fill="black" stroke="black" points="321.871,-475.209 313.664,-481.91 324.258,-481.79 321.871,-475.209"/>
</g>
<!-- 6&#45;&gt;9 -->
<g id="edge30" class="edge"><title>6&#45;&gt;9</title>
<path fill="none" stroke="black" d="M210.979,-199.544C199.287,-222.633 175.716,-264.949 146.946,-294 132.932,-308.151 114.562,-320.642 98.96,-329.939"/>
<polygon fill="black" stroke="black" points="97.0544,-326.997 90.1475,-335.031 100.557,-333.058 97.0544,-326.997"/>
</g>
<!-- 6&#45;&gt;14 -->
<g id="edge34" class="edge"><title>6&#45;&gt;14</title>
<path fill="none" stroke="black" d="M221.247,-199.973C226.723,-240.356 240.566,-342.452 247.238,-391.657"/>
<polygon fill="black" stroke="black" points="243.81,-392.425 248.622,-401.864 250.747,-391.485 243.81,-392.425"/>
</g>
<!-- 7 -->
<g id="node8" class="node"><title>7</title>
<polygon fill="lightgrey" stroke="lightgrey" points="701.946,-44 657.946,-44 657.946,-0 701.946,-0 701.946,-44"/>
<text text-anchor="middle" x="679.946" y="-18.3" font-family="Times,serif" font-size="14.00">4.3.3</text>
</g>
<!-- 7&#45;&gt;13 -->
<g id="edge5" class="edge"><title>7&#45;&gt;13</title>
<path fill="none" stroke="black" d="M685.969,-44.1886C688.69,-54.8369 691.594,-67.9974 692.946,-80 695.561,-103.23 693.836,-129.602 691.576,-149.572"/>
<polygon fill="black" stroke="black" points="688.082,-149.31 690.328,-159.664 695.029,-150.169 688.082,-149.31"/>
</g>
<!-- 7&#45;&gt;2 -->
<g id="edge18" class="edge"><title>7&#45;&gt;2</title>
<path fill="none" stroke="black" d="M675.027,-44.3138C673.187,-52.2892 671.057,-61.5164 669.058,-70.1798"/>
<polygon fill="black" stroke="black" points="665.634,-69.451 666.796,-79.982 672.455,-71.0251 665.634,-69.451"/>
</g>
<!-- 8&#45;&gt;10 -->
<g id="edge10" class="edge"><title>8&#45;&gt;10</title>
<path fill="none" stroke="blue" stroke-width="2" d="M96.0218,-289.765C116.021,-324.371 158.823,-392.657 208.946,-438 223.198,-450.893 240.741,-463.199 255.481,-472.702"/>
<polygon fill="blue" stroke="blue" points="253.918,-475.855 264.242,-478.237 257.657,-469.937 253.918,-475.855"/>
</g>
<!-- 8&#45;&gt;14 -->
<g id="edge24" class="edge"><title>8&#45;&gt;14</title>
<path fill="none" stroke="blue" stroke-width="2" d="M104.49,-287.344C125.719,-307.25 159.898,-339.068 189.946,-366 201.799,-376.624 215.128,-388.242 226.296,-397.885"/>
<polygon fill="blue" stroke="blue" points="224.133,-400.642 233.994,-404.516 228.701,-395.338 224.133,-400.642"/>
</g>
<!-- 8&#45;&gt;9 -->
<g id="edge35" class="edge"><title>8&#45;&gt;9</title>
<path fill="none" stroke="blue" stroke-width="2" d="M78.8452,-291.703C76.9124,-300.684 74.6988,-310.971 72.7091,-320.217"/>
<polygon fill="blue" stroke="blue" points="69.267,-319.576 70.5848,-330.089 76.1103,-321.049 69.267,-319.576"/>
</g>
<!-- 9&#45;&gt;10 -->
<g id="edge3" class="edge"><title>9&#45;&gt;10</title>
<path fill="none" stroke="black" d="M71.5503,-365.967C77.8515,-386.019 91.0721,-419.048 113.946,-438 150.894,-468.614 205.405,-481.571 243.114,-487.038"/>
<polygon fill="black" stroke="black" points="242.901,-490.541 253.275,-488.39 243.824,-483.602 242.901,-490.541"/>
</g>
<!-- 9&#45;&gt;14 -->
<g id="edge19" class="edge"><title>9&#45;&gt;14</title>
<path fill="none" stroke="black" d="M93.3084,-359.029C125.281,-371.193 179.322,-391.752 215.068,-405.351"/>
<polygon fill="black" stroke="black" points="214.041,-408.705 224.632,-408.989 216.53,-402.162 214.041,-408.705"/>
</g>
<!-- 11 -->
<g id="node12" class="node"><title>11</title>
<polygon fill="lightgrey" stroke="lightgrey" points="763.946,-44 719.946,-44 719.946,-0 763.946,-0 763.946,-44"/>
<text text-anchor="middle" x="741.946" y="-18.3" font-family="Times,serif" font-size="14.00">4.3.5</text>
</g>
<!-- 11&#45;&gt;2 -->
<g id="edge9" class="edge"><title>11&#45;&gt;2</title>
<path fill="none" stroke="black" d="M720.085,-44.3138C711.016,-53.1561 700.369,-63.5371 690.682,-72.9825"/>
<polygon fill="black" stroke="black" points="688.219,-70.4949 683.503,-79.982 693.106,-75.507 688.219,-70.4949"/>
</g>
<!-- 11&#45;&gt;13 -->
<g id="edge16" class="edge"><title>11&#45;&gt;13</title>
<path fill="none" stroke="black" d="M734.595,-44.2886C727.529,-64.7345 716.539,-96.489 706.946,-124 703.967,-132.541 700.726,-141.797 697.736,-150.317"/>
<polygon fill="black" stroke="black" points="694.385,-149.298 694.374,-159.893 700.989,-151.617 694.385,-149.298"/>
</g>
<!-- 12 -->
<g id="node13" class="node"><title>12</title>
<ellipse fill="lightgrey" stroke="lightgrey" cx="424.946" cy="-348" rx="33.2948" ry="18"/>
<text text-anchor="middle" x="424.946" y="-344.3" font-family="Times,serif" font-size="14.00">4.2.22</text>
</g>
<!-- 12&#45;&gt;10 -->
<g id="edge28" class="edge"><title>12&#45;&gt;10</title>
<path fill="none" stroke="black" d="M410.07,-364.196C385.64,-389.154 336.883,-438.963 308.287,-468.177"/>
<polygon fill="black" stroke="black" points="305.63,-465.888 301.136,-475.482 310.632,-470.784 305.63,-465.888"/>
</g>
<!-- 12&#45;&gt;14 -->
<g id="edge36" class="edge"><title>12&#45;&gt;14</title>
<path fill="none" stroke="black" d="M399.185,-359.44C393.819,-361.611 388.199,-363.882 382.946,-366 350.248,-379.182 312.968,-394.144 286.386,-404.801"/>
<polygon fill="black" stroke="black" points="284.733,-401.693 276.754,-408.663 287.338,-408.19 284.733,-401.693"/>
</g>
<!-- 14&#45;&gt;10 -->
<g id="edge1" class="edge"><title>14&#45;&gt;10</title>
<path fill="none" stroke="black" d="M259.24,-437.589C263.381,-445.871 268.483,-456.075 273.115,-465.338"/>
<polygon fill="black" stroke="black" points="270.108,-467.151 277.711,-474.53 276.369,-464.021 270.108,-467.151"/>
</g>
<!-- 15 -->
<g id="node16" class="node"><title>15</title>
<polygon fill="lightgrey" stroke="lightgrey" points="825.946,-44 781.946,-44 781.946,-0 825.946,-0 825.946,-44"/>
<text text-anchor="middle" x="803.946" y="-18.3" font-family="Times,serif" font-size="14.00">4.3.0</text>
</g>
<!-- 15&#45;&gt;2 -->
<g id="edge15" class="edge"><title>15&#45;&gt;2</title>
<path fill="none" stroke="black" d="M781.803,-38.47C778.86,-40.3873 775.854,-42.2769 772.946,-44 746.691,-59.5568 715.718,-75.2529 693.171,-86.224"/>
<polygon fill="black" stroke="black" points="691.545,-83.1223 684.062,-90.6225 694.589,-89.4259 691.545,-83.1223"/>
</g>
<!-- 15&#45;&gt;13 -->
<g id="edge33" class="edge"><title>15&#45;&gt;13</title>
<path fill="none" stroke="black" d="M788.167,-44.3086C767.698,-71.9495 731.888,-120.308 708.81,-151.474"/>
<polygon fill="black" stroke="black" points="705.8,-149.658 702.661,-159.777 711.425,-153.824 705.8,-149.658"/>
</g>
</g>
</svg>
