<?xml version="1.0" encoding="UTF-8" standalone="no"?>
<!DOCTYPE svg PUBLIC "-//W3C//DTD SVG 1.1//EN"
 "http://www.w3.org/Graphics/SVG/1.1/DTD/svg11.dtd">
<!-- Generated by graphviz version 2.30.1 (20170916.1124)
 -->
<!-- Title: fast Pages: 1 -->
<svg width="2004pt" height="1533pt"
 viewBox="0.00 0.00 2004.00 1533.00" xmlns="http://www.w3.org/2000/svg" xmlns:xlink="http://www.w3.org/1999/xlink">
<g id="graph0" class="graph" transform="scale(1 1) rotate(0) translate(4 1529)">
<title>fast</title>
<polygon fill="white" stroke="white" points="-4,5 -4,-1529 2001,-1529 2001,5 -4,5"/>
<text text-anchor="middle" x="998" y="-1509.8" font-family="Times,serif" font-size="14.00">fast&#45;4.2</text>
<!-- 0 -->
<g id="node1" class="node"><title>0</title>
<polygon fill="lightgrey" stroke="lightgrey" points="737.5,-1237.5 686.5,-1237.5 686.5,-1186.5 737.5,-1186.5 737.5,-1237.5"/>
<text text-anchor="middle" x="712" y="-1208.3" font-family="Times,serif" font-size="14.00">4.2.21</text>
</g>
<!-- 17 -->
<g id="node18" class="node"><title>17</title>
<polygon fill="lightgrey" stroke="lightgrey" points="621.5,-1325.5 570.5,-1325.5 570.5,-1274.5 621.5,-1274.5 621.5,-1325.5"/>
<text text-anchor="middle" x="596" y="-1296.3" font-family="Times,serif" font-size="14.00">4.2.25</text>
</g>
<!-- 0&#45;&gt;17 -->
<g id="edge2" class="edge"><title>0&#45;&gt;17</title>
<path fill="none" stroke="black" d="M686.543,-1231.87C669.771,-1244.31 647.631,-1260.72 629.443,-1274.21"/>
<polygon fill="black" stroke="black" points="627.346,-1271.4 621.397,-1280.17 631.515,-1277.03 627.346,-1271.4"/>
</g>
<!-- 5 -->
<g id="node6" class="node"><title>5</title>
<polygon fill="lightgrey" stroke="lightgrey" points="567.5,-1413.5 516.5,-1413.5 516.5,-1362.5 567.5,-1362.5 567.5,-1413.5"/>
<text text-anchor="middle" x="542" y="-1384.3" font-family="Times,serif" font-size="14.00">4.2.26</text>
</g>
<!-- 0&#45;&gt;5 -->
<g id="edge129" class="edge"><title>0&#45;&gt;5</title>
<path fill="none" stroke="black" d="M697.467,-1237.77C682.506,-1261.98 657.545,-1299.04 630,-1326 613.934,-1341.72 593.412,-1356.2 576.227,-1367.1"/>
<polygon fill="black" stroke="black" points="574.237,-1364.22 567.586,-1372.47 577.929,-1370.17 574.237,-1364.22"/>
</g>
<!-- 31 -->
<g id="node32" class="node"><title>31</title>
<polygon fill="yellowgreen" stroke="yellowgreen" points="510.5,-1501.5 459.5,-1501.5 459.5,-1450.5 510.5,-1450.5 510.5,-1501.5"/>
<text text-anchor="middle" x="485" y="-1472.3" font-family="Times,serif" font-size="14.00">4.2.27</text>
</g>
<!-- 0&#45;&gt;31 -->
<g id="edge135" class="edge"><title>0&#45;&gt;31</title>
<path fill="none" stroke="black" d="M704.405,-1237.64C690.281,-1279.56 656.109,-1364.98 599,-1414 575.347,-1434.3 543.81,-1450.53 519.903,-1461.13"/>
<polygon fill="black" stroke="black" points="518.293,-1458.01 510.496,-1465.18 521.065,-1464.44 518.293,-1458.01"/>
</g>
<!-- 1 -->
<g id="node2" class="node"><title>1</title>
<polygon fill="lightgrey" stroke="lightgrey" points="405.5,-885.5 354.5,-885.5 354.5,-834.5 405.5,-834.5 405.5,-885.5"/>
<text text-anchor="middle" x="380" y="-856.3" font-family="Times,serif" font-size="14.00">4.2.16</text>
</g>
<!-- 1&#45;&gt;31 -->
<g id="edge24" class="edge"><title>1&#45;&gt;31</title>
<path fill="none" stroke="black" d="M354.574,-867.135C275.314,-887.927 38,-963.498 38,-1123 38,-1123 38,-1123 38,-1301 38,-1389.16 343.764,-1450.51 449.519,-1469.1"/>
<polygon fill="black" stroke="black" points="449.236,-1472.6 459.687,-1470.86 450.431,-1465.7 449.236,-1472.6"/>
</g>
<!-- 8 -->
<g id="node9" class="node"><title>8</title>
<polygon fill="lightgrey" stroke="lightgrey" points="353.5,-1149.5 302.5,-1149.5 302.5,-1098.5 353.5,-1098.5 353.5,-1149.5"/>
<text text-anchor="middle" x="328" y="-1120.3" font-family="Times,serif" font-size="14.00">4.2.20</text>
</g>
<!-- 1&#45;&gt;8 -->
<g id="edge36" class="edge"><title>1&#45;&gt;8</title>
<path fill="none" stroke="black" d="M375.108,-885.648C365.817,-932.462 345.593,-1034.36 334.919,-1088.14"/>
<polygon fill="black" stroke="black" points="331.431,-1087.74 332.917,-1098.23 338.297,-1089.1 331.431,-1087.74"/>
</g>
<!-- 9 -->
<g id="node10" class="node"><title>9</title>
<polygon fill="lightgrey" stroke="lightgrey" points="621.5,-1061.5 570.5,-1061.5 570.5,-1010.5 621.5,-1010.5 621.5,-1061.5"/>
<text text-anchor="middle" x="596" y="-1032.3" font-family="Times,serif" font-size="14.00">4.2.19</text>
</g>
<!-- 1&#45;&gt;9 -->
<g id="edge57" class="edge"><title>1&#45;&gt;9</title>
<path fill="none" stroke="black" d="M405.325,-878.043C410.093,-880.899 415.117,-883.683 420,-886 464.951,-907.327 487.057,-891.034 526,-922 552.107,-942.76 571.048,-976.098 582.592,-1001.19"/>
<polygon fill="black" stroke="black" points="579.405,-1002.64 586.654,-1010.37 585.805,-999.805 579.405,-1002.64"/>
</g>
<!-- 1&#45;&gt;5 -->
<g id="edge60" class="edge"><title>1&#45;&gt;5</title>
<path fill="none" stroke="black" d="M364.03,-885.693C334.007,-935.085 273.825,-1049.91 293,-1150 309.064,-1233.86 306.556,-1268.86 370,-1326 408.735,-1360.89 468.727,-1376.13 506.652,-1382.56"/>
<polygon fill="black" stroke="black" points="506.304,-1386.05 516.728,-1384.15 507.396,-1379.14 506.304,-1386.05"/>
</g>
<!-- 1&#45;&gt;0 -->
<g id="edge77" class="edge"><title>1&#45;&gt;0</title>
<path fill="none" stroke="black" d="M399.009,-885.58C439.485,-937.217 538.322,-1059.66 634,-1150 647.792,-1163.02 664.186,-1176.15 678.376,-1186.88"/>
<polygon fill="black" stroke="black" points="676.333,-1189.72 686.441,-1192.89 680.519,-1184.11 676.333,-1189.72"/>
</g>
<!-- 6 -->
<g id="node7" class="node"><title>6</title>
<polygon fill="lightgrey" stroke="lightgrey" points="731.5,-973.5 680.5,-973.5 680.5,-922.5 731.5,-922.5 731.5,-973.5"/>
<text text-anchor="middle" x="706" y="-944.3" font-family="Times,serif" font-size="14.00">4.2.18</text>
</g>
<!-- 1&#45;&gt;6 -->
<g id="edge159" class="edge"><title>1&#45;&gt;6</title>
<path fill="none" stroke="black" d="M405.551,-878.777C410.212,-881.49 415.141,-884.035 420,-886 465.345,-904.342 604.463,-929.632 670.498,-941.019"/>
<polygon fill="black" stroke="black" points="669.995,-944.483 680.443,-942.724 671.178,-937.584 669.995,-944.483"/>
</g>
<!-- 1&#45;&gt;17 -->
<g id="edge161" class="edge"><title>1&#45;&gt;17</title>
<path fill="none" stroke="black" d="M388.365,-885.833C396.566,-909.129 409.993,-944.675 425,-974 475.889,-1073.44 512.651,-1084.83 560,-1186 571.807,-1211.23 581.188,-1241.35 587.41,-1264.15"/>
<polygon fill="black" stroke="black" points="584.094,-1265.29 590.044,-1274.06 590.86,-1263.5 584.094,-1265.29"/>
</g>
<!-- 2 -->
<g id="node3" class="node"><title>2</title>
<polygon fill="lightgrey" stroke="lightgrey" points="407.5,-1237.5 356.5,-1237.5 356.5,-1186.5 407.5,-1186.5 407.5,-1237.5"/>
<text text-anchor="middle" x="382" y="-1208.3" font-family="Times,serif" font-size="14.00">4.2.22</text>
</g>
<!-- 2&#45;&gt;17 -->
<g id="edge74" class="edge"><title>2&#45;&gt;17</title>
<path fill="none" stroke="black" d="M407.389,-1223.2C445.599,-1238.56 517.993,-1267.65 561.127,-1284.99"/>
<polygon fill="black" stroke="black" points="560.06,-1288.33 570.644,-1288.81 562.67,-1281.83 560.06,-1288.33"/>
</g>
<!-- 2&#45;&gt;31 -->
<g id="edge84" class="edge"><title>2&#45;&gt;31</title>
<path fill="none" stroke="black" d="M391.69,-1237.65C410.171,-1284.66 450.486,-1387.21 471.559,-1440.81"/>
<polygon fill="black" stroke="black" points="468.345,-1442.2 475.261,-1450.23 474.859,-1439.64 468.345,-1442.2"/>
</g>
<!-- 2&#45;&gt;5 -->
<g id="edge100" class="edge"><title>2&#45;&gt;5</title>
<path fill="none" stroke="black" d="M404.585,-1237.56C432.736,-1268.17 480.934,-1320.59 512.119,-1354.5"/>
<polygon fill="black" stroke="black" points="509.927,-1357.29 519.272,-1362.28 515.079,-1352.55 509.927,-1357.29"/>
</g>
<!-- 3 -->
<g id="node4" class="node"><title>3</title>
<polygon fill="lightgrey" stroke="lightgrey" points="877.5,-621.5 826.5,-621.5 826.5,-570.5 877.5,-570.5 877.5,-621.5"/>
<text text-anchor="middle" x="852" y="-592.3" font-family="Times,serif" font-size="14.00">4.2.12</text>
</g>
<!-- 3&#45;&gt;0 -->
<g id="edge23" class="edge"><title>3&#45;&gt;0</title>
<path fill="none" stroke="black" d="M877.588,-596.219C924.573,-596.225 1025,-603.146 1082,-658 1127.66,-701.939 1118.72,-735.381 1109,-798 1078.12,-996.911 984.396,-1028.38 824,-1150 799.81,-1168.34 769.404,-1184.54 746.38,-1195.62"/>
<polygon fill="black" stroke="black" points="744.865,-1192.46 737.319,-1199.9 747.856,-1198.79 744.865,-1192.46"/>
</g>
<!-- 3&#45;&gt;8 -->
<g id="edge32" class="edge"><title>3&#45;&gt;8</title>
<path fill="none" stroke="black" d="M877.537,-596.017C921.617,-595.89 1011.17,-602.861 1052,-658 1112.3,-739.437 1108.2,-801.676 1052,-886 1037.91,-907.138 654.288,-1054.56 630,-1062 535.631,-1090.9 420.408,-1109.83 363.418,-1118.15"/>
<polygon fill="black" stroke="black" points="362.873,-1114.69 353.472,-1119.58 363.869,-1121.62 362.873,-1114.69"/>
</g>
<!-- 32 -->
<g id="node33" class="node"><title>32</title>
<polygon fill="lightgrey" stroke="lightgrey" points="292.5,-709.5 241.5,-709.5 241.5,-658.5 292.5,-658.5 292.5,-709.5"/>
<text text-anchor="middle" x="267" y="-680.3" font-family="Times,serif" font-size="14.00">4.2.13</text>
</g>
<!-- 3&#45;&gt;32 -->
<g id="edge87" class="edge"><title>3&#45;&gt;32</title>
<path fill="none" stroke="black" d="M826.287,-600.474C759.526,-609.532 575.198,-634.781 422,-658 380.96,-664.22 333.897,-671.887 302.5,-677.078"/>
<polygon fill="black" stroke="black" points="301.778,-673.649 292.484,-678.737 302.922,-680.555 301.778,-673.649"/>
</g>
<!-- 3&#45;&gt;6 -->
<g id="edge109" class="edge"><title>3&#45;&gt;6</title>
<path fill="none" stroke="black" d="M845.568,-621.722C839.575,-644.637 830.336,-679.663 822,-710 811.228,-749.206 812.385,-760.365 797,-798 780.142,-839.238 772.54,-848.176 749,-886 743.241,-895.253 736.624,-905.012 730.335,-913.944"/>
<polygon fill="black" stroke="black" points="727.397,-912.037 724.444,-922.212 733.098,-916.099 727.397,-912.037"/>
</g>
<!-- 3&#45;&gt;1 -->
<g id="edge140" class="edge"><title>3&#45;&gt;1</title>
<path fill="none" stroke="black" d="M826.736,-598.162C775.462,-601.414 656.628,-613.546 569,-658 516.499,-684.634 509.592,-702.432 470,-746 450.749,-767.184 449.742,-775.537 432,-798 424.528,-807.46 416.159,-817.502 408.355,-826.65"/>
<polygon fill="black" stroke="black" points="405.541,-824.555 401.68,-834.421 410.851,-829.116 405.541,-824.555"/>
</g>
<!-- 27 -->
<g id="node28" class="node"><title>27</title>
<polygon fill="lightgrey" stroke="lightgrey" points="788.5,-797.5 737.5,-797.5 737.5,-746.5 788.5,-746.5 788.5,-797.5"/>
<text text-anchor="middle" x="763" y="-768.3" font-family="Times,serif" font-size="14.00">4.2.14</text>
</g>
<!-- 3&#45;&gt;27 -->
<g id="edge144" class="edge"><title>3&#45;&gt;27</title>
<path fill="none" stroke="black" d="M839.437,-621.561C823.977,-651.787 797.645,-703.267 780.285,-737.207"/>
<polygon fill="black" stroke="black" points="777.08,-735.786 775.643,-746.283 783.313,-738.974 777.08,-735.786"/>
</g>
<!-- 3&#45;&gt;9 -->
<g id="edge146" class="edge"><title>3&#45;&gt;9</title>
<path fill="none" stroke="black" d="M852.39,-621.821C852.031,-688.852 841.472,-875.126 740,-974 709.732,-1003.49 663.035,-1019.67 631.078,-1027.82"/>
<polygon fill="black" stroke="black" points="630.159,-1024.45 621.26,-1030.2 631.802,-1031.25 630.159,-1024.45"/>
</g>
<!-- 4 -->
<g id="node5" class="node"><title>4</title>
<ellipse fill="lightgrey" stroke="lightgrey" cx="1418" cy="-1124" rx="33.2948" ry="18"/>
<text text-anchor="middle" x="1418" y="-1120.3" font-family="Times,serif" font-size="14.00">4.1.34</text>
</g>
<!-- 4&#45;&gt;0 -->
<g id="edge30" class="edge"><title>4&#45;&gt;0</title>
<path fill="none" stroke="black" d="M1385.83,-1128.92C1269.31,-1143.11 869.773,-1191.78 747.708,-1206.65"/>
<polygon fill="black" stroke="black" points="746.933,-1203.22 737.43,-1207.9 747.78,-1210.17 746.933,-1203.22"/>
</g>
<!-- 30 -->
<g id="node31" class="node"><title>30</title>
<ellipse fill="lightgrey" stroke="lightgrey" cx="1418" cy="-1212" rx="33.2948" ry="18"/>
<text text-anchor="middle" x="1418" y="-1208.3" font-family="Times,serif" font-size="14.00">4.1.38</text>
</g>
<!-- 4&#45;&gt;30 -->
<g id="edge50" class="edge"><title>4&#45;&gt;30</title>
<path fill="none" stroke="black" d="M1418,-1142.4C1418,-1154.25 1418,-1170.18 1418,-1183.71"/>
<polygon fill="black" stroke="black" points="1414.5,-1183.92 1418,-1193.92 1421.5,-1183.92 1414.5,-1183.92"/>
</g>
<!-- 5&#45;&gt;31 -->
<g id="edge43" class="edge"><title>5&#45;&gt;31</title>
<path fill="none" stroke="black" d="M525.513,-1413.87C519.673,-1422.69 513.009,-1432.74 506.796,-1442.12"/>
<polygon fill="black" stroke="black" points="503.86,-1440.21 501.253,-1450.48 509.695,-1444.08 503.86,-1440.21"/>
</g>
<!-- 6&#45;&gt;5 -->
<g id="edge27" class="edge"><title>6&#45;&gt;5</title>
<path fill="none" stroke="black" d="M731.387,-964.217C772.231,-990.851 848,-1050.09 848,-1123 848,-1123 848,-1123 848,-1213 848,-1336.26 658.055,-1373.3 577.468,-1383.47"/>
<polygon fill="black" stroke="black" points="576.817,-1380.03 567.302,-1384.68 577.646,-1386.98 576.817,-1380.03"/>
</g>
<!-- 6&#45;&gt;9 -->
<g id="edge56" class="edge"><title>6&#45;&gt;9</title>
<path fill="none" stroke="black" d="M680.487,-968.946C665.354,-980.777 645.993,-995.915 629.624,-1008.71"/>
<polygon fill="black" stroke="black" points="627.097,-1006.25 621.374,-1015.16 631.408,-1011.76 627.097,-1006.25"/>
</g>
<!-- 6&#45;&gt;31 -->
<g id="edge82" class="edge"><title>6&#45;&gt;31</title>
<path fill="none" stroke="black" d="M731.571,-956.265C758.162,-965.017 799.408,-982.124 825,-1010 894.427,-1085.62 907.075,-1145.77 862,-1238 793.86,-1377.43 600.779,-1443.92 520.594,-1466.13"/>
<polygon fill="black" stroke="black" points="519.239,-1462.87 510.497,-1468.85 521.064,-1469.63 519.239,-1462.87"/>
</g>
<!-- 6&#45;&gt;0 -->
<g id="edge107" class="edge"><title>6&#45;&gt;0</title>
<path fill="none" stroke="black" d="M706.564,-973.648C707.637,-1020.46 709.97,-1122.36 711.202,-1176.14"/>
<polygon fill="black" stroke="black" points="707.705,-1176.31 711.433,-1186.23 714.703,-1176.15 707.705,-1176.31"/>
</g>
<!-- 6&#45;&gt;17 -->
<g id="edge121" class="edge"><title>6&#45;&gt;17</title>
<path fill="none" stroke="black" d="M698.265,-973.611C679.015,-1034.86 628.916,-1194.27 606.782,-1264.69"/>
<polygon fill="black" stroke="black" points="603.386,-1263.83 603.726,-1274.42 610.064,-1265.93 603.386,-1263.83"/>
</g>
<!-- 6&#45;&gt;8 -->
<g id="edge163" class="edge"><title>6&#45;&gt;8</title>
<path fill="none" stroke="black" d="M680.508,-958.191C651.064,-969.155 601.481,-988.695 561,-1010 523.143,-1029.92 518.69,-1043.75 480,-1062 432.713,-1084.31 415.421,-1075.98 368,-1098 366.162,-1098.85 364.305,-1099.78 362.451,-1100.75"/>
<polygon fill="black" stroke="black" points="360.298,-1097.94 353.294,-1105.89 363.727,-1104.04 360.298,-1097.94"/>
</g>
<!-- 7 -->
<g id="node8" class="node"><title>7</title>
<polygon fill="lightgrey" stroke="lightgrey" points="427,-44 383,-44 383,-0 427,-0 427,-44"/>
<text text-anchor="middle" x="405" y="-18.3" font-family="Times,serif" font-size="14.00">4.2.0</text>
</g>
<!-- 16 -->
<g id="node17" class="node"><title>16</title>
<polygon fill="lightgrey" stroke="lightgrey" points="958,-284 914,-284 914,-240 958,-240 958,-284"/>
<text text-anchor="middle" x="936" y="-258.3" font-family="Times,serif" font-size="14.00">4.2.7</text>
</g>
<!-- 7&#45;&gt;16 -->
<g id="edge9" class="edge"><title>7&#45;&gt;16</title>
<path fill="none" stroke="black" d="M427.087,-23.5611C503.758,-25.8765 757.35,-36.7187 824,-80 878.972,-115.698 911.535,-188.82 926.351,-230.369"/>
<polygon fill="black" stroke="black" points="923.09,-231.649 929.657,-239.964 929.709,-229.369 923.09,-231.649"/>
</g>
<!-- 18 -->
<g id="node19" class="node"><title>18</title>
<polygon fill="lightgrey" stroke="lightgrey" points="572,-364 528,-364 528,-320 572,-320 572,-364"/>
<text text-anchor="middle" x="550" y="-338.3" font-family="Times,serif" font-size="14.00">4.2.8</text>
</g>
<!-- 7&#45;&gt;18 -->
<g id="edge12" class="edge"><title>7&#45;&gt;18</title>
<path fill="none" stroke="black" d="M414.739,-44.3587C439.864,-99.4609 506.941,-246.567 536.12,-310.56"/>
<polygon fill="black" stroke="black" points="532.97,-312.088 540.303,-319.734 539.339,-309.183 532.97,-312.088"/>
</g>
<!-- 23 -->
<g id="node24" class="node"><title>23</title>
<polygon fill="lightgrey" stroke="lightgrey" points="428,-444 384,-444 384,-400 428,-400 428,-444"/>
<text text-anchor="middle" x="406" y="-418.3" font-family="Times,serif" font-size="14.00">4.2.9</text>
</g>
<!-- 7&#45;&gt;23 -->
<g id="edge37" class="edge"><title>7&#45;&gt;23</title>
<path fill="none" stroke="black" d="M382.649,-24.5541C314.508,-30.6178 114,-58.8395 114,-181 114,-181 114,-181 114,-263 114,-379.983 297.526,-410.785 373.584,-418.528"/>
<polygon fill="black" stroke="black" points="373.287,-422.015 383.572,-419.474 373.947,-415.047 373.287,-422.015"/>
</g>
<!-- 7&#45;&gt;32 -->
<g id="edge85" class="edge"><title>7&#45;&gt;32</title>
<path fill="none" stroke="black" d="M382.653,-25.1876C324.525,-31.2527 170.316,-49.8512 130,-80 89.2355,-110.484 76,-130.098 76,-181 76,-181 76,-181 76,-508 76,-591.792 177.168,-646.311 232.246,-669.784"/>
<polygon fill="black" stroke="black" points="231.059,-673.081 241.637,-673.676 233.739,-666.614 231.059,-673.081"/>
</g>
<!-- 26 -->
<g id="node27" class="node"><title>26</title>
<polygon fill="salmon" stroke="salmon" points="654.92,-512.533 614,-524.905 573.08,-512.533 588.71,-492.514 639.29,-492.514 654.92,-512.533"/>
<polygon fill="none" stroke="salmon" points="661.641,-514.659 614,-529.063 566.359,-514.659 586.756,-488.535 641.244,-488.535 661.641,-514.659"/>
<polygon fill="none" stroke="salmon" points="668.361,-516.785 614,-533.222 559.639,-516.785 584.802,-484.556 643.198,-484.556 668.361,-516.785"/>
<text text-anchor="middle" x="614" y="-503.3" font-family="Times,serif" font-size="14.00">4.2.10</text>
</g>
<!-- 7&#45;&gt;26 -->
<g id="edge124" class="edge"><title>7&#45;&gt;26</title>
<path fill="none" stroke="black" d="M409.206,-44.0965C413.498,-64.6732 420.693,-96.7624 429,-124 474.287,-272.485 482.217,-315.285 569,-444 576.203,-454.683 584.398,-466.159 591.804,-476.299"/>
<polygon fill="black" stroke="black" points="589.056,-478.47 597.799,-484.454 594.696,-474.324 589.056,-478.47"/>
</g>
<!-- 7&#45;&gt;3 -->
<g id="edge136" class="edge"><title>7&#45;&gt;3</title>
<path fill="none" stroke="black" d="M427.173,-23.7691C476.589,-26.2487 598.523,-36.6498 689,-80 752.174,-110.268 810,-110.95 810,-181 810,-181 810,-181 810,-263 810,-372.067 832.586,-499.706 844.632,-560.028"/>
<polygon fill="black" stroke="black" points="841.266,-561.041 846.681,-570.147 848.127,-559.651 841.266,-561.041"/>
</g>
<!-- 13 -->
<g id="node14" class="node"><title>13</title>
<polygon fill="lightgrey" stroke="lightgrey" points="680,-124 636,-124 636,-80 680,-80 680,-124"/>
<text text-anchor="middle" x="658" y="-98.3" font-family="Times,serif" font-size="14.00">4.2.2</text>
</g>
<!-- 7&#45;&gt;13 -->
<g id="edge160" class="edge"><title>7&#45;&gt;13</title>
<path fill="none" stroke="black" d="M427.01,-29.7855C471.867,-43.6152 574.021,-75.1092 626.137,-91.1766"/>
<polygon fill="black" stroke="black" points="625.274,-94.573 635.861,-94.1746 627.336,-87.8837 625.274,-94.573"/>
</g>
<!-- 8&#45;&gt;5 -->
<g id="edge29" class="edge"><title>8&#45;&gt;5</title>
<path fill="none" stroke="black" d="M327.889,-1149.72C328.736,-1173.57 332.597,-1210.06 347,-1238 381.448,-1304.82 461.048,-1350.31 507.192,-1372.14"/>
<polygon fill="black" stroke="black" points="505.957,-1375.42 516.503,-1376.43 508.89,-1369.06 505.957,-1375.42"/>
</g>
<!-- 8&#45;&gt;0 -->
<g id="edge78" class="edge"><title>8&#45;&gt;0</title>
<path fill="none" stroke="black" d="M353.493,-1130.71C420.046,-1145.61 599.194,-1185.74 676.112,-1202.96"/>
<polygon fill="black" stroke="black" points="675.741,-1206.47 686.265,-1205.24 677.271,-1199.64 675.741,-1206.47"/>
</g>
<!-- 8&#45;&gt;31 -->
<g id="edge106" class="edge"><title>8&#45;&gt;31</title>
<path fill="none" stroke="black" d="M302.506,-1144.18C290.142,-1155 276.396,-1169.62 269,-1186 253.226,-1220.94 259.61,-1410.87 262,-1414 284.695,-1443.74 392.566,-1462.51 449.544,-1470.52"/>
<polygon fill="black" stroke="black" points="449.177,-1474 459.559,-1471.89 450.126,-1467.07 449.177,-1474"/>
</g>
<!-- 8&#45;&gt;17 -->
<g id="edge115" class="edge"><title>8&#45;&gt;17</title>
<path fill="none" stroke="black" d="M353.428,-1127.31C393.441,-1132.09 471.902,-1146.18 524,-1186 550.713,-1206.42 570.213,-1239.8 582.13,-1265"/>
<polygon fill="black" stroke="black" points="578.995,-1266.56 586.325,-1274.21 585.366,-1263.66 578.995,-1266.56"/>
</g>
<!-- 9&#45;&gt;0 -->
<g id="edge19" class="edge"><title>9&#45;&gt;0</title>
<path fill="none" stroke="black" d="M612.374,-1061.56C632.611,-1091.92 667.138,-1143.71 689.761,-1177.64"/>
<polygon fill="black" stroke="black" points="687.063,-1179.9 695.522,-1186.28 692.887,-1176.02 687.063,-1179.9"/>
</g>
<!-- 9&#45;&gt;17 -->
<g id="edge46" class="edge"><title>9&#45;&gt;17</title>
<path fill="none" stroke="black" d="M596,-1061.65C596,-1108.46 596,-1210.36 596,-1264.14"/>
<polygon fill="black" stroke="black" points="592.5,-1264.23 596,-1274.23 599.5,-1264.23 592.5,-1264.23"/>
</g>
<!-- 9&#45;&gt;5 -->
<g id="edge71" class="edge"><title>9&#45;&gt;5</title>
<path fill="none" stroke="black" d="M570.667,-1054.08C536.796,-1078.63 478.318,-1127.43 455,-1186 446.451,-1207.47 448.964,-1215.69 455,-1238 455.027,-1238.1 496.961,-1309.9 522.593,-1353.78"/>
<polygon fill="black" stroke="black" points="519.573,-1355.55 527.64,-1362.42 525.618,-1352.02 519.573,-1355.55"/>
</g>
<!-- 9&#45;&gt;31 -->
<g id="edge105" class="edge"><title>9&#45;&gt;31</title>
<path fill="none" stroke="black" d="M570.565,-1048.06C511.92,-1074.18 370.437,-1140.84 347,-1186 298.446,-1279.56 397.489,-1393.04 452.149,-1445.63"/>
<polygon fill="black" stroke="black" points="449.88,-1448.3 459.547,-1452.64 454.694,-1443.22 449.88,-1448.3"/>
</g>
<!-- 9&#45;&gt;8 -->
<g id="edge164" class="edge"><title>9&#45;&gt;8</title>
<path fill="none" stroke="black" d="M570.5,-1045.7C555.333,-1050.75 535.665,-1057.06 518,-1062 451.977,-1080.48 431.226,-1071.49 368,-1098 366.188,-1098.76 364.363,-1099.6 362.545,-1100.49"/>
<polygon fill="black" stroke="black" points="360.728,-1097.49 353.594,-1105.33 364.056,-1103.65 360.728,-1097.49"/>
</g>
<!-- 10 -->
<g id="node11" class="node"><title>10</title>
<ellipse fill="lightgrey" stroke="lightgrey" cx="1616" cy="-342" rx="33.2948" ry="18"/>
<text text-anchor="middle" x="1616" y="-338.3" font-family="Times,serif" font-size="14.00">4.1.21</text>
</g>
<!-- 15 -->
<g id="node16" class="node"><title>15</title>
<ellipse fill="lightgrey" stroke="lightgrey" cx="1749" cy="-507" rx="33.2948" ry="18"/>
<text text-anchor="middle" x="1749" y="-503.3" font-family="Times,serif" font-size="14.00">4.1.24</text>
</g>
<!-- 10&#45;&gt;15 -->
<g id="edge1" class="edge"><title>10&#45;&gt;15</title>
<path fill="none" stroke="black" d="M1630.95,-358.64C1641.55,-369.911 1655.98,-385.609 1668,-400 1690.71,-427.181 1715.19,-459.715 1731.23,-481.506"/>
<polygon fill="black" stroke="black" points="1728.61,-483.861 1737.35,-489.859 1734.26,-479.724 1728.61,-483.861"/>
</g>
<!-- 20 -->
<g id="node21" class="node"><title>20</title>
<ellipse fill="lightgrey" stroke="lightgrey" cx="1745" cy="-948" rx="33.2948" ry="18"/>
<text text-anchor="middle" x="1745" y="-944.3" font-family="Times,serif" font-size="14.00">4.1.30</text>
</g>
<!-- 10&#45;&gt;20 -->
<g id="edge10" class="edge"><title>10&#45;&gt;20</title>
<path fill="none" stroke="black" d="M1645.41,-350.33C1678.01,-359.198 1731.45,-375.985 1773,-400 1858.48,-449.407 1892.05,-474.216 1916,-570 1951.93,-713.712 1900.62,-768.815 1810,-886 1798.66,-900.662 1783.71,-914.956 1771,-926.018"/>
<polygon fill="black" stroke="black" points="1768.38,-923.647 1763.03,-932.791 1772.92,-928.979 1768.38,-923.647"/>
</g>
<!-- 21 -->
<g id="node22" class="node"><title>21</title>
<ellipse fill="lightgrey" stroke="lightgrey" cx="1327" cy="-684" rx="33.2948" ry="18"/>
<text text-anchor="middle" x="1327" y="-680.3" font-family="Times,serif" font-size="14.00">4.1.27</text>
</g>
<!-- 10&#45;&gt;21 -->
<g id="edge25" class="edge"><title>10&#45;&gt;21</title>
<path fill="none" stroke="black" d="M1590.89,-353.988C1569.58,-364.055 1538.91,-380.357 1516,-400 1442.76,-462.806 1432.12,-488.177 1381,-570 1363.26,-598.397 1347.32,-633.521 1337.44,-657.002"/>
<polygon fill="black" stroke="black" points="1334.18,-655.721 1333.58,-666.299 1340.65,-658.401 1334.18,-655.721"/>
</g>
<!-- 11 -->
<g id="node12" class="node"><title>11</title>
<ellipse fill="lightgrey" stroke="lightgrey" cx="1578" cy="-422" rx="33.2948" ry="18"/>
<text text-anchor="middle" x="1578" y="-418.3" font-family="Times,serif" font-size="14.00">4.1.22</text>
</g>
<!-- 10&#45;&gt;11 -->
<g id="edge58" class="edge"><title>10&#45;&gt;11</title>
<path fill="none" stroke="black" d="M1607.94,-359.542C1602.9,-369.883 1596.31,-383.42 1590.59,-395.157"/>
<polygon fill="black" stroke="black" points="1587.28,-393.959 1586.05,-404.482 1593.57,-397.025 1587.28,-393.959"/>
</g>
<!-- 25 -->
<g id="node26" class="node"><title>25</title>
<ellipse fill="lightgrey" stroke="lightgrey" cx="1631" cy="-772" rx="33.2948" ry="18"/>
<text text-anchor="middle" x="1631" y="-768.3" font-family="Times,serif" font-size="14.00">4.1.28</text>
</g>
<!-- 10&#45;&gt;25 -->
<g id="edge66" class="edge"><title>10&#45;&gt;25</title>
<path fill="none" stroke="black" d="M1622.62,-359.829C1633.51,-389.072 1654,-451.372 1654,-506 1654,-506 1654,-506 1654,-597 1654,-649.241 1643.68,-709.55 1636.87,-743.69"/>
<polygon fill="black" stroke="black" points="1633.37,-743.313 1634.8,-753.812 1640.23,-744.717 1633.37,-743.313"/>
</g>
<!-- 22 -->
<g id="node23" class="node"><title>22</title>
<ellipse fill="lightgrey" stroke="lightgrey" cx="1517" cy="-596" rx="33.2948" ry="18"/>
<text text-anchor="middle" x="1517" y="-592.3" font-family="Times,serif" font-size="14.00">4.1.26</text>
</g>
<!-- 10&#45;&gt;22 -->
<g id="edge96" class="edge"><title>10&#45;&gt;22</title>
<path fill="none" stroke="black" d="M1590.91,-353.783C1572.4,-363.152 1548.38,-378.595 1536,-400 1505.27,-453.132 1508.42,-528.251 1512.96,-567.959"/>
<polygon fill="black" stroke="black" points="1509.49,-568.46 1514.22,-577.944 1516.44,-567.585 1509.49,-568.46"/>
</g>
<!-- 19 -->
<g id="node20" class="node"><title>19</title>
<ellipse fill="lightgrey" stroke="lightgrey" cx="1494" cy="-1036" rx="33.2948" ry="18"/>
<text text-anchor="middle" x="1494" y="-1032.3" font-family="Times,serif" font-size="14.00">4.1.31</text>
</g>
<!-- 10&#45;&gt;19 -->
<g id="edge112" class="edge"><title>10&#45;&gt;19</title>
<path fill="none" stroke="black" d="M1582.76,-343.368C1495.39,-346.26 1266,-367.08 1266,-506 1266,-506 1266,-506 1266,-685 1266,-831.489 1407.96,-964.716 1467.84,-1014.4"/>
<polygon fill="black" stroke="black" points="1465.77,-1017.23 1475.73,-1020.85 1470.2,-1011.81 1465.77,-1017.23"/>
</g>
<!-- 29 -->
<g id="node30" class="node"><title>29</title>
<ellipse fill="lightgrey" stroke="lightgrey" cx="1745" cy="-860" rx="33.2948" ry="18"/>
<text text-anchor="middle" x="1745" y="-856.3" font-family="Times,serif" font-size="14.00">4.1.29</text>
</g>
<!-- 10&#45;&gt;29 -->
<g id="edge150" class="edge"><title>10&#45;&gt;29</title>
<path fill="none" stroke="black" d="M1641.55,-353.887C1700.24,-380.521 1843.64,-455.285 1896,-570 1942.84,-672.623 1825.27,-790.59 1770.86,-837.833"/>
<polygon fill="black" stroke="black" points="1768.34,-835.381 1763.01,-844.538 1772.89,-840.704 1768.34,-835.381"/>
</g>
<!-- 11&#45;&gt;15 -->
<g id="edge8" class="edge"><title>11&#45;&gt;15</title>
<path fill="none" stroke="black" d="M1601.78,-434.541C1631.43,-448.933 1682.29,-473.618 1715.78,-489.874"/>
<polygon fill="black" stroke="black" points="1714.63,-493.206 1725.15,-494.424 1717.68,-486.908 1714.63,-493.206"/>
</g>
<!-- 11&#45;&gt;4 -->
<g id="edge11" class="edge"><title>11&#45;&gt;4</title>
<path fill="none" stroke="black" d="M1552.02,-433.33C1528.24,-443.413 1492.65,-460.115 1465,-480 1373.66,-545.692 1335.84,-557.63 1285,-658 1202.98,-819.938 1246.7,-909.394 1345,-1062 1355.92,-1078.95 1373.02,-1093.6 1387.92,-1104.29"/>
<polygon fill="black" stroke="black" points="1386.16,-1107.33 1396.38,-1110.12 1390.13,-1101.56 1386.16,-1107.33"/>
</g>
<!-- 11&#45;&gt;21 -->
<g id="edge26" class="edge"><title>11&#45;&gt;21</title>
<path fill="none" stroke="black" d="M1562.49,-438.283C1535.63,-464.815 1478.85,-521.235 1432,-570 1402.46,-600.75 1369.05,-636.963 1348.01,-659.948"/>
<polygon fill="black" stroke="black" points="1345.27,-657.753 1341.11,-667.495 1350.44,-662.476 1345.27,-657.753"/>
</g>
<!-- 11&#45;&gt;25 -->
<g id="edge67" class="edge"><title>11&#45;&gt;25</title>
<path fill="none" stroke="black" d="M1579.64,-440.094C1583.05,-474.592 1591.45,-554.967 1602,-622 1608.75,-664.893 1618.83,-714.295 1625.15,-744.059"/>
<polygon fill="black" stroke="black" points="1621.78,-745.042 1627.29,-754.088 1628.62,-743.577 1621.78,-745.042"/>
</g>
<!-- 11&#45;&gt;29 -->
<g id="edge69" class="edge"><title>11&#45;&gt;29</title>
<path fill="none" stroke="black" d="M1584.94,-439.707C1604.63,-487.297 1662.28,-627.757 1706,-746 1716.86,-775.372 1728.47,-809.377 1736.17,-832.349"/>
<polygon fill="black" stroke="black" points="1732.93,-833.695 1739.41,-842.071 1739.57,-831.477 1732.93,-833.695"/>
</g>
<!-- 11&#45;&gt;22 -->
<g id="edge97" class="edge"><title>11&#45;&gt;22</title>
<path fill="none" stroke="black" d="M1572.04,-439.805C1561.43,-469.733 1539.17,-532.482 1526.45,-568.348"/>
<polygon fill="black" stroke="black" points="1523.03,-567.532 1522.98,-578.127 1529.63,-569.872 1523.03,-567.532"/>
</g>
<!-- 12 -->
<g id="node13" class="node"><title>12</title>
<polygon fill="lightgrey" stroke="lightgrey" points="642,-204 598,-204 598,-160 642,-160 642,-204"/>
<text text-anchor="middle" x="620" y="-178.3" font-family="Times,serif" font-size="14.00">4.2.4</text>
</g>
<!-- 12&#45;&gt;16 -->
<g id="edge6" class="edge"><title>12&#45;&gt;16</title>
<path fill="none" stroke="black" d="M642.107,-185.023C690.325,-189.963 807.996,-204.901 900,-240 901.58,-240.603 903.172,-241.271 904.76,-241.987"/>
<polygon fill="black" stroke="black" points="903.203,-245.121 913.708,-246.495 906.353,-238.87 903.203,-245.121"/>
</g>
<!-- 12&#45;&gt;18 -->
<g id="edge14" class="edge"><title>12&#45;&gt;18</title>
<path fill="none" stroke="black" d="M610.559,-204.309C598.471,-231.595 577.437,-279.072 563.616,-310.267"/>
<polygon fill="black" stroke="black" points="560.253,-309.217 559.402,-319.777 566.653,-312.052 560.253,-309.217"/>
</g>
<!-- 12&#45;&gt;23 -->
<g id="edge39" class="edge"><title>12&#45;&gt;23</title>
<path fill="none" stroke="black" d="M602.46,-204.008C593.568,-214.726 582.638,-228 573,-240 529.184,-294.552 524.99,-314.042 476,-364 463.848,-376.392 449.111,-388.729 436.298,-398.74"/>
<polygon fill="black" stroke="black" points="434.001,-396.092 428.204,-404.96 438.266,-401.642 434.001,-396.092"/>
</g>
<!-- 12&#45;&gt;3 -->
<g id="edge63" class="edge"><title>12&#45;&gt;3</title>
<path fill="none" stroke="black" d="M631.985,-204.283C669.822,-271.477 786.952,-479.484 833.067,-561.378"/>
<polygon fill="black" stroke="black" points="830.118,-563.273 838.074,-570.269 836.217,-559.839 830.118,-563.273"/>
</g>
<!-- 12&#45;&gt;32 -->
<g id="edge89" class="edge"><title>12&#45;&gt;32</title>
<path fill="none" stroke="black" d="M597.858,-194.952C545.764,-223.991 413.763,-303.052 333,-400 272.658,-472.435 265.243,-589.914 265.638,-648.081"/>
<polygon fill="black" stroke="black" points="262.141,-648.282 265.792,-658.227 269.14,-648.175 262.141,-648.282"/>
</g>
<!-- 12&#45;&gt;27 -->
<g id="edge93" class="edge"><title>12&#45;&gt;27</title>
<path fill="none" stroke="black" d="M642.009,-201.895C653.685,-212.482 667.875,-226.284 679,-240 788.058,-374.467 838.134,-403.615 886,-570 892.389,-592.21 893.147,-600.022 886,-622 884.131,-627.749 825.889,-705.372 822,-710 813.855,-719.694 804.53,-729.754 795.735,-738.841"/>
<polygon fill="black" stroke="black" points="793.007,-736.624 788.509,-746.217 798.007,-741.523 793.007,-736.624"/>
</g>
<!-- 12&#45;&gt;26 -->
<g id="edge126" class="edge"><title>12&#45;&gt;26</title>
<path fill="none" stroke="black" d="M619.606,-204.193C618.579,-259.499 615.812,-408.453 614.592,-474.14"/>
<polygon fill="black" stroke="black" points="611.089,-474.242 614.403,-484.306 618.088,-474.372 611.089,-474.242"/>
</g>
<!-- 12&#45;&gt;1 -->
<g id="edge145" class="edge"><title>12&#45;&gt;1</title>
<path fill="none" stroke="black" d="M597.896,-186.957C491.586,-206.601 38,-297.645 38,-421 38,-421 38,-421 38,-508 38,-666.097 117.194,-703.581 244,-798 275.006,-821.087 316.136,-838.001 345.017,-848.085"/>
<polygon fill="black" stroke="black" points="344.09,-851.467 354.685,-851.366 346.34,-844.838 344.09,-851.467"/>
</g>
<!-- 13&#45;&gt;16 -->
<g id="edge5" class="edge"><title>13&#45;&gt;16</title>
<path fill="none" stroke="black" d="M680.077,-115.372C722.69,-139.281 819.212,-193.572 900,-240 901.694,-240.973 903.431,-241.975 905.183,-242.988"/>
<polygon fill="black" stroke="black" points="903.536,-246.079 913.941,-248.072 907.05,-240.025 903.536,-246.079"/>
</g>
<!-- 13&#45;&gt;18 -->
<g id="edge13" class="edge"><title>13&#45;&gt;18</title>
<path fill="none" stroke="black" d="M635.957,-115.627C620.439,-125.672 600.463,-141.147 589,-160 560.577,-206.748 552.709,-271.34 550.628,-309.387"/>
<polygon fill="black" stroke="black" points="547.111,-309.69 550.166,-319.835 554.104,-309.999 547.111,-309.69"/>
</g>
<!-- 13&#45;&gt;12 -->
<g id="edge18" class="edge"><title>13&#45;&gt;12</title>
<path fill="none" stroke="black" d="M647.616,-124.314C643.646,-132.463 639.04,-141.918 634.74,-150.744"/>
<polygon fill="black" stroke="black" points="631.473,-149.459 630.24,-159.982 637.766,-152.525 631.473,-149.459"/>
</g>
<!-- 13&#45;&gt;23 -->
<g id="edge38" class="edge"><title>13&#45;&gt;23</title>
<path fill="none" stroke="black" d="M635.932,-112.977C615.937,-122.816 586.545,-139.358 566,-160 495.554,-230.78 442.327,-338.258 418.991,-390.437"/>
<polygon fill="black" stroke="black" points="415.689,-389.25 414.855,-399.812 422.093,-392.076 415.689,-389.25"/>
</g>
<!-- 13&#45;&gt;3 -->
<g id="edge44" class="edge"><title>13&#45;&gt;3</title>
<path fill="none" stroke="black" d="M680.263,-104.682C740.039,-110.559 903.787,-135.928 967,-240 1032.47,-347.793 931.867,-496.933 879.909,-562.201"/>
<polygon fill="black" stroke="black" points="877.085,-560.127 873.525,-570.106 882.531,-564.525 877.085,-560.127"/>
</g>
<!-- 13&#45;&gt;27 -->
<g id="edge62" class="edge"><title>13&#45;&gt;27</title>
<path fill="none" stroke="black" d="M680.247,-103.108C727.98,-104.292 842.344,-112.309 922,-160 984.078,-197.167 1114,-400.346 1114,-421 1114,-421 1114,-421 1114,-597 1114,-736.701 888.041,-764.239 798.717,-769.667"/>
<polygon fill="black" stroke="black" points="798.319,-766.184 788.526,-770.226 798.702,-773.173 798.319,-766.184"/>
</g>
<!-- 13&#45;&gt;32 -->
<g id="edge88" class="edge"><title>13&#45;&gt;32</title>
<path fill="none" stroke="black" d="M635.698,-109.766C608.371,-118.681 561.351,-136.076 526,-160 405.163,-241.777 373.601,-272.868 302,-400 252.84,-487.286 259.721,-521.876 263,-622 263.279,-630.522 263.777,-639.702 264.329,-648.288"/>
<polygon fill="black" stroke="black" points="260.845,-648.645 265.018,-658.383 267.829,-648.168 260.845,-648.645"/>
</g>
<!-- 13&#45;&gt;26 -->
<g id="edge125" class="edge"><title>13&#45;&gt;26</title>
<path fill="none" stroke="black" d="M656.637,-124.289C655.301,-144.734 653.157,-176.489 651,-204 642.631,-310.747 648.106,-338.468 630,-444 628.27,-454.083 625.716,-464.93 623.154,-474.687"/>
<polygon fill="black" stroke="black" points="619.764,-473.815 620.516,-484.384 626.519,-475.653 619.764,-473.815"/>
</g>
<!-- 14 -->
<g id="node15" class="node"><title>14</title>
<polygon fill="lightgrey" stroke="lightgrey" points="927,-44 883,-44 883,-0 927,-0 927,-44"/>
<text text-anchor="middle" x="905" y="-18.3" font-family="Times,serif" font-size="14.00">4.2.1</text>
</g>
<!-- 14&#45;&gt;16 -->
<g id="edge4" class="edge"><title>14&#45;&gt;16</title>
<path fill="none" stroke="black" d="M927.277,-25.2836C978.713,-31.0626 1103.25,-48.123 1128,-80 1161.8,-123.528 1160.96,-159.832 1128,-204 1108.83,-229.691 1017.67,-247.944 968.169,-256.145"/>
<polygon fill="black" stroke="black" points="967.593,-252.693 958.279,-257.742 968.709,-259.603 967.593,-252.693"/>
</g>
<!-- 14&#45;&gt;13 -->
<g id="edge68" class="edge"><title>14&#45;&gt;13</title>
<path fill="none" stroke="black" d="M882.645,-30.0595C838.65,-43.9527 740.704,-74.8829 689.919,-90.9205"/>
<polygon fill="black" stroke="black" points="688.609,-87.6637 680.127,-94.0126 690.717,-94.3388 688.609,-87.6637"/>
</g>
<!-- 15&#45;&gt;21 -->
<g id="edge28" class="edge"><title>15&#45;&gt;21</title>
<path fill="none" stroke="black" d="M1715.64,-508.736C1661.32,-511.35 1552.07,-522.619 1475,-570 1449.45,-585.705 1454.88,-602.61 1432,-622 1419.77,-632.364 1385.02,-651.94 1358.82,-666.126"/>
<polygon fill="black" stroke="black" points="1357.11,-663.074 1349.96,-670.896 1360.42,-669.238 1357.11,-663.074"/>
</g>
<!-- 15&#45;&gt;25 -->
<g id="edge35" class="edge"><title>15&#45;&gt;25</title>
<path fill="none" stroke="black" d="M1743.28,-524.9C1731.15,-560.112 1701.18,-643.581 1668,-710 1661.86,-722.292 1654.09,-735.386 1647.26,-746.279"/>
<polygon fill="black" stroke="black" points="1644.23,-744.531 1641.8,-754.844 1650.13,-748.294 1644.23,-744.531"/>
</g>
<!-- 15&#45;&gt;20 -->
<g id="edge65" class="edge"><title>15&#45;&gt;20</title>
<path fill="none" stroke="black" d="M1758.16,-524.313C1774.27,-554.593 1806,-621.97 1806,-683 1806,-683 1806,-683 1806,-773 1806,-823.927 1806.12,-838.797 1787,-886 1781.59,-899.353 1772.87,-912.703 1764.78,-923.494"/>
<polygon fill="black" stroke="black" points="1761.88,-921.514 1758.49,-931.552 1767.4,-925.819 1761.88,-921.514"/>
</g>
<!-- 15&#45;&gt;29 -->
<g id="edge80" class="edge"><title>15&#45;&gt;29</title>
<path fill="none" stroke="black" d="M1748.8,-525.406C1748.15,-582.261 1746.1,-762.809 1745.31,-831.82"/>
<polygon fill="black" stroke="black" points="1741.81,-831.863 1745.19,-841.903 1748.81,-831.943 1741.81,-831.863"/>
</g>
<!-- 15&#45;&gt;22 -->
<g id="edge99" class="edge"><title>15&#45;&gt;22</title>
<path fill="none" stroke="black" d="M1722.39,-517.98C1680.72,-533.606 1600,-563.874 1553.12,-581.454"/>
<polygon fill="black" stroke="black" points="1551.79,-578.214 1543.66,-585.003 1554.25,-584.769 1551.79,-578.214"/>
</g>
<!-- 15&#45;&gt;19 -->
<g id="edge114" class="edge"><title>15&#45;&gt;19</title>
<path fill="none" stroke="black" d="M1764.97,-523.048C1776.79,-534.886 1792.57,-552.289 1803,-570 1830.11,-616.034 1844,-629.574 1844,-683 1844,-683 1844,-683 1844,-773 1844,-865.856 1854.95,-910.715 1787,-974 1768.71,-991.037 1612.33,-1016.93 1535.82,-1028.74"/>
<polygon fill="black" stroke="black" points="1534.93,-1025.33 1525.58,-1030.31 1535.99,-1032.25 1534.93,-1025.33"/>
</g>
<!-- 15&#45;&gt;30 -->
<g id="edge123" class="edge"><title>15&#45;&gt;30</title>
<path fill="none" stroke="black" d="M1775.48,-518.188C1799.94,-528.541 1836.28,-546.402 1862,-570 1941.12,-642.578 1996,-663.635 1996,-771 1996,-771 1996,-771 1996,-1037 1996,-1148.73 1595.02,-1195.05 1461.02,-1207.41"/>
<polygon fill="black" stroke="black" points="1460.38,-1203.95 1450.73,-1208.34 1461.01,-1210.92 1460.38,-1203.95"/>
</g>
<!-- 15&#45;&gt;4 -->
<g id="edge152" class="edge"><title>15&#45;&gt;4</title>
<path fill="none" stroke="black" d="M1772.35,-519.913C1791.08,-530.612 1816.69,-548.007 1832,-570 1912.51,-685.615 1894.35,-750.157 1857,-886 1810.38,-1055.59 1561.5,-1105.25 1460.57,-1118.54"/>
<polygon fill="black" stroke="black" points="1459.91,-1115.1 1450.43,-1119.82 1460.78,-1122.04 1459.91,-1115.1"/>
</g>
<!-- 16&#45;&gt;18 -->
<g id="edge15" class="edge"><title>16&#45;&gt;18</title>
<path fill="none" stroke="black" d="M913.861,-267.474C848.836,-280.613 658.221,-319.131 582.018,-334.53"/>
<polygon fill="black" stroke="black" points="581.159,-331.133 572.05,-336.544 582.545,-337.994 581.159,-331.133"/>
</g>
<!-- 16&#45;&gt;23 -->
<g id="edge40" class="edge"><title>16&#45;&gt;23</title>
<path fill="none" stroke="black" d="M913.901,-269.588C830.647,-294.407 535.7,-382.335 437.826,-411.512"/>
<polygon fill="black" stroke="black" points="436.776,-408.173 428.193,-414.384 438.776,-414.881 436.776,-408.173"/>
</g>
<!-- 16&#45;&gt;3 -->
<g id="edge72" class="edge"><title>16&#45;&gt;3</title>
<path fill="none" stroke="black" d="M930.682,-284.02C916.583,-339.743 878.143,-491.671 860.753,-560.406"/>
<polygon fill="black" stroke="black" points="857.307,-559.756 858.247,-570.309 864.093,-561.473 857.307,-559.756"/>
</g>
<!-- 16&#45;&gt;6 -->
<g id="edge73" class="edge"><title>16&#45;&gt;6</title>
<path fill="none" stroke="black" d="M958.302,-274.313C1013.49,-304.072 1152,-390.288 1152,-506 1152,-506 1152,-506 1152,-597 1152,-805.607 846.303,-908.699 741.083,-938.005"/>
<polygon fill="black" stroke="black" points="739.981,-934.677 731.257,-940.688 741.826,-941.43 739.981,-934.677"/>
</g>
<!-- 16&#45;&gt;32 -->
<g id="edge90" class="edge"><title>16&#45;&gt;32</title>
<path fill="none" stroke="black" d="M913.786,-271.426C886.876,-281.865 840.377,-300.653 802,-320 606.316,-418.653 549.41,-434.725 377,-570 346.23,-594.142 315.549,-626.527 294.438,-650.438"/>
<polygon fill="black" stroke="black" points="291.602,-648.364 287.659,-658.198 296.874,-652.969 291.602,-648.364"/>
</g>
<!-- 16&#45;&gt;27 -->
<g id="edge102" class="edge"><title>16&#45;&gt;27</title>
<path fill="none" stroke="black" d="M940.541,-284.232C951.731,-341.336 976.423,-501.99 929,-622 910.935,-667.717 898.428,-676.994 862,-710 842.539,-727.632 817.295,-743.095 797.169,-754.041"/>
<polygon fill="black" stroke="black" points="795.509,-750.96 788.321,-758.744 798.794,-757.141 795.509,-750.96"/>
</g>
<!-- 16&#45;&gt;26 -->
<g id="edge127" class="edge"><title>16&#45;&gt;26</title>
<path fill="none" stroke="black" d="M913.768,-280.076C871.757,-312.306 777.764,-384.237 698,-444 682.843,-455.356 666.064,-467.772 651.513,-478.489"/>
<polygon fill="black" stroke="black" points="649.212,-475.837 643.232,-484.583 653.361,-481.475 649.212,-475.837"/>
</g>
<!-- 16&#45;&gt;1 -->
<g id="edge143" class="edge"><title>16&#45;&gt;1</title>
<path fill="none" stroke="black" d="M948.736,-284.175C954.389,-294.601 960.535,-307.574 964,-320 973.587,-354.38 969.443,-364.343 971,-400 977.162,-541.112 991.194,-601.3 901,-710 862.336,-756.597 852.193,-773.103 797,-798 728.745,-828.789 503.067,-849.339 415.327,-856.341"/>
<polygon fill="black" stroke="black" points="415.025,-852.853 405.331,-857.127 415.575,-859.832 415.025,-852.853"/>
</g>
<!-- 17&#45;&gt;5 -->
<g id="edge64" class="edge"><title>17&#45;&gt;5</title>
<path fill="none" stroke="black" d="M580.381,-1325.87C574.905,-1334.6 568.664,-1344.54 562.829,-1353.83"/>
<polygon fill="black" stroke="black" points="559.751,-1352.15 557.397,-1362.48 565.679,-1355.87 559.751,-1352.15"/>
</g>
<!-- 17&#45;&gt;31 -->
<g id="edge148" class="edge"><title>17&#45;&gt;31</title>
<path fill="none" stroke="black" d="M597.013,-1325.95C596.825,-1350.3 593.3,-1387.46 576,-1414 562.46,-1434.77 539.114,-1450.2 519.46,-1460.35"/>
<polygon fill="black" stroke="black" points="517.886,-1457.22 510.453,-1464.77 520.972,-1463.51 517.886,-1457.22"/>
</g>
<!-- 18&#45;&gt;3 -->
<g id="edge52" class="edge"><title>18&#45;&gt;3</title>
<path fill="none" stroke="black" d="M572.035,-355.836C609.96,-378.438 689.163,-427.903 748,-480 772.041,-501.287 774.475,-510.172 796,-534 804.508,-543.418 813.807,-553.594 822.341,-562.886"/>
<polygon fill="black" stroke="black" points="819.949,-565.456 829.294,-570.447 825.101,-560.718 819.949,-565.456"/>
</g>
<!-- 18&#45;&gt;23 -->
<g id="edge61" class="edge"><title>18&#45;&gt;23</title>
<path fill="none" stroke="black" d="M527.616,-356.255C523.126,-358.857 518.428,-361.541 514,-364 488.327,-378.254 458.821,-393.769 437.144,-405.008"/>
<polygon fill="black" stroke="black" points="435.348,-401.997 428.073,-409.699 438.563,-408.215 435.348,-401.997"/>
</g>
<!-- 18&#45;&gt;32 -->
<g id="edge91" class="edge"><title>18&#45;&gt;32</title>
<path fill="none" stroke="black" d="M527.712,-344.787C491.621,-348.767 419.911,-361.319 375,-400 299.822,-464.75 276.794,-587.775 269.881,-648.008"/>
<polygon fill="black" stroke="black" points="266.38,-647.838 268.803,-658.152 273.341,-648.578 266.38,-647.838"/>
</g>
<!-- 18&#45;&gt;27 -->
<g id="edge103" class="edge"><title>18&#45;&gt;27</title>
<path fill="none" stroke="black" d="M568.189,-364.285C586.073,-385.002 614.342,-417.192 640,-444 655.864,-460.575 663.136,-461.719 677,-480 729.52,-549.255 741.031,-572.756 758,-658 763.163,-683.937 764.278,-713.857 764.174,-736.391"/>
<polygon fill="black" stroke="black" points="760.673,-736.453 764.045,-746.497 767.673,-736.542 760.673,-736.453"/>
</g>
<!-- 18&#45;&gt;26 -->
<g id="edge128" class="edge"><title>18&#45;&gt;26</title>
<path fill="none" stroke="black" d="M558.367,-364.309C569.452,-392.541 589.085,-442.545 601.817,-474.971"/>
<polygon fill="black" stroke="black" points="598.616,-476.397 605.529,-484.426 605.132,-473.838 598.616,-476.397"/>
</g>
<!-- 18&#45;&gt;6 -->
<g id="edge133" class="edge"><title>18&#45;&gt;6</title>
<path fill="none" stroke="black" d="M547.352,-364.379C541.009,-421.946 528.332,-584.35 569,-710 594.52,-788.846 648.837,-870.24 680.881,-914.129"/>
<polygon fill="black" stroke="black" points="678.225,-916.425 686.978,-922.395 683.859,-912.27 678.225,-916.425"/>
</g>
<!-- 18&#45;&gt;1 -->
<g id="edge147" class="edge"><title>18&#45;&gt;1</title>
<path fill="none" stroke="black" d="M527.73,-343.153C485.291,-344.564 391.826,-353.192 333,-400 283.613,-439.297 234.828,-640.482 232,-658 221.156,-725.181 245.957,-749.805 294,-798 309.374,-813.423 329.032,-827.685 345.672,-838.535"/>
<polygon fill="black" stroke="black" points="344.245,-841.776 354.559,-844.197 348.006,-835.872 344.245,-841.776"/>
</g>
<!-- 19&#45;&gt;4 -->
<g id="edge16" class="edge"><title>19&#45;&gt;4</title>
<path fill="none" stroke="black" d="M1480.06,-1052.77C1468.49,-1065.87 1451.86,-1084.68 1438.73,-1099.54"/>
<polygon fill="black" stroke="black" points="1435.85,-1097.52 1431.85,-1107.33 1441.1,-1102.15 1435.85,-1097.52"/>
</g>
<!-- 19&#45;&gt;30 -->
<g id="edge51" class="edge"><title>19&#45;&gt;30</title>
<path fill="none" stroke="black" d="M1490.6,-1054.07C1485.71,-1076.74 1475.52,-1117.68 1460,-1150 1453.76,-1162.99 1444.94,-1176.29 1436.99,-1187.15"/>
<polygon fill="black" stroke="black" points="1434.09,-1185.18 1430.87,-1195.28 1439.68,-1189.39 1434.09,-1185.18"/>
</g>
<!-- 20&#45;&gt;4 -->
<g id="edge31" class="edge"><title>20&#45;&gt;4</title>
<path fill="none" stroke="black" d="M1720,-959.791C1693.85,-971.334 1651.85,-990.611 1617,-1010 1579.62,-1030.8 1573.04,-1040.6 1536,-1062 1507.79,-1078.3 1474.79,-1095.18 1450.87,-1107.04"/>
<polygon fill="black" stroke="black" points="1449.28,-1103.92 1441.86,-1111.49 1452.37,-1110.2 1449.28,-1103.92"/>
</g>
<!-- 20&#45;&gt;30 -->
<g id="edge94" class="edge"><title>20&#45;&gt;30</title>
<path fill="none" stroke="black" d="M1748.84,-965.945C1756.45,-1004.26 1768.8,-1098.23 1721,-1150 1686.37,-1187.51 1535.79,-1202.96 1460.78,-1208.42"/>
<polygon fill="black" stroke="black" points="1460.45,-1204.94 1450.72,-1209.13 1460.94,-1211.92 1460.45,-1204.94"/>
</g>
<!-- 20&#45;&gt;19 -->
<g id="edge120" class="edge"><title>20&#45;&gt;19</title>
<path fill="none" stroke="black" d="M1723.5,-961.794C1715.67,-966.091 1706.61,-970.64 1698,-974 1638.95,-997.041 1620.39,-990.746 1560,-1010 1549.93,-1013.21 1539.16,-1017.09 1529.29,-1020.84"/>
<polygon fill="black" stroke="black" points="1527.86,-1017.63 1519.79,-1024.5 1530.38,-1024.17 1527.86,-1017.63"/>
</g>
<!-- 21&#45;&gt;19 -->
<g id="edge117" class="edge"><title>21&#45;&gt;19</title>
<path fill="none" stroke="black" d="M1335.05,-701.881C1362.01,-758.366 1449.16,-941.02 1481.64,-1009.1"/>
<polygon fill="black" stroke="black" points="1478.56,-1010.77 1486.03,-1018.29 1484.88,-1007.76 1478.56,-1010.77"/>
</g>
<!-- 21&#45;&gt;25 -->
<g id="edge122" class="edge"><title>21&#45;&gt;25</title>
<path fill="none" stroke="black" d="M1356.09,-692.958C1398.07,-704.479 1478.08,-726.554 1546,-746 1561.38,-750.403 1578.29,-755.355 1592.95,-759.683"/>
<polygon fill="black" stroke="black" points="1592.11,-763.084 1602.7,-762.565 1594.1,-756.372 1592.11,-763.084"/>
</g>
<!-- 21&#45;&gt;29 -->
<g id="edge131" class="edge"><title>21&#45;&gt;29</title>
<path fill="none" stroke="black" d="M1352.34,-695.732C1380.95,-707.864 1428.87,-728.24 1470,-746 1522.99,-768.879 1535.67,-775.931 1589,-798 1629.86,-814.906 1677.21,-833.248 1708.93,-845.357"/>
<polygon fill="black" stroke="black" points="1708.06,-848.771 1718.65,-849.059 1710.55,-842.229 1708.06,-848.771"/>
</g>
<!-- 21&#45;&gt;20 -->
<g id="edge153" class="edge"><title>21&#45;&gt;20</title>
<path fill="none" stroke="black" d="M1352.23,-695.989C1374.78,-706.615 1407.87,-724.276 1432,-746 1453.27,-765.153 1451.51,-776.153 1470,-798 1505.33,-839.739 1509.51,-857.204 1556,-886 1602.51,-914.81 1663.98,-931.342 1704,-939.747"/>
<polygon fill="black" stroke="black" points="1703.44,-943.205 1713.93,-941.76 1704.83,-936.344 1703.44,-943.205"/>
</g>
<!-- 21&#45;&gt;4 -->
<g id="edge157" class="edge"><title>21&#45;&gt;4</title>
<path fill="none" stroke="black" d="M1325.3,-702.043C1320.52,-756.904 1310.71,-932.853 1366,-1062 1372.26,-1076.62 1383.29,-1090.34 1393.59,-1101.05"/>
<polygon fill="black" stroke="black" points="1391.31,-1103.73 1400.88,-1108.29 1396.25,-1098.76 1391.31,-1103.73"/>
</g>
<!-- 21&#45;&gt;30 -->
<g id="edge162" class="edge"><title>21&#45;&gt;30</title>
<path fill="none" stroke="black" d="M1314.77,-700.87C1267.49,-764.275 1104.58,-1003.08 1214,-1150 1233.45,-1176.11 1322.72,-1195.17 1376.51,-1204.52"/>
<polygon fill="black" stroke="black" points="1376,-1207.98 1386.44,-1206.2 1377.17,-1201.08 1376,-1207.98"/>
</g>
<!-- 22&#45;&gt;25 -->
<g id="edge20" class="edge"><title>22&#45;&gt;25</title>
<path fill="none" stroke="black" d="M1521.48,-613.855C1528.17,-636.999 1542.36,-679.244 1564,-710 1574.95,-725.554 1590.5,-740.023 1603.86,-750.962"/>
<polygon fill="black" stroke="black" points="1601.83,-753.819 1611.84,-757.295 1606.18,-748.336 1601.83,-753.819"/>
</g>
<!-- 22&#45;&gt;21 -->
<g id="edge34" class="edge"><title>22&#45;&gt;21</title>
<path fill="none" stroke="black" d="M1494.82,-609.558C1487.08,-613.739 1478.26,-618.275 1470,-622 1428.46,-640.739 1415.54,-639.261 1374,-658 1368.84,-660.328 1363.46,-662.973 1358.26,-665.65"/>
<polygon fill="black" stroke="black" points="1356.39,-662.68 1349.18,-670.442 1359.65,-668.871 1356.39,-662.68"/>
</g>
<!-- 22&#45;&gt;20 -->
<g id="edge53" class="edge"><title>22&#45;&gt;20</title>
<path fill="none" stroke="black" d="M1517.41,-613.999C1518.44,-636.587 1521.97,-677.434 1534,-710 1570.21,-807.983 1668.54,-890.838 1717.1,-927.221"/>
<polygon fill="black" stroke="black" points="1715.16,-930.14 1725.28,-933.265 1719.32,-924.509 1715.16,-930.14"/>
</g>
<!-- 22&#45;&gt;19 -->
<g id="edge116" class="edge"><title>22&#45;&gt;19</title>
<path fill="none" stroke="black" d="M1516.1,-614.17C1512.58,-681.226 1499.74,-925.783 1495.42,-1007.9"/>
<polygon fill="black" stroke="black" points="1491.92,-1007.78 1494.9,-1017.95 1498.92,-1008.15 1491.92,-1007.78"/>
</g>
<!-- 22&#45;&gt;29 -->
<g id="edge130" class="edge"><title>22&#45;&gt;29</title>
<path fill="none" stroke="black" d="M1534.71,-611.439C1565.12,-636.743 1628.3,-691.599 1673,-746 1696.08,-774.084 1717.81,-809.984 1731.24,-833.695"/>
<polygon fill="black" stroke="black" points="1728.19,-835.427 1736.13,-842.447 1734.3,-832.011 1728.19,-835.427"/>
</g>
<!-- 22&#45;&gt;4 -->
<g id="edge156" class="edge"><title>22&#45;&gt;4</title>
<path fill="none" stroke="black" d="M1502.08,-612.358C1466.57,-650.599 1380,-754.545 1380,-859 1380,-859 1380,-859 1380,-949 1380,-1002.24 1397.19,-1062.58 1408.45,-1096.38"/>
<polygon fill="black" stroke="black" points="1405.18,-1097.65 1411.73,-1105.98 1411.81,-1095.39 1405.18,-1097.65"/>
</g>
<!-- 22&#45;&gt;30 -->
<g id="edge166" class="edge"><title>22&#45;&gt;30</title>
<path fill="none" stroke="black" d="M1493.25,-608.732C1473.68,-619.375 1446.26,-636.648 1428,-658 1399.83,-690.932 1398.79,-704.594 1386,-746 1344.19,-881.309 1321.13,-922.404 1345,-1062 1351.99,-1102.87 1357.19,-1113.05 1376,-1150 1382.54,-1162.84 1391.4,-1176.12 1399.29,-1187.01"/>
<polygon fill="black" stroke="black" points="1396.58,-1189.23 1405.36,-1195.16 1402.2,-1185.05 1396.58,-1189.23"/>
</g>
<!-- 23&#45;&gt;26 -->
<g id="edge41" class="edge"><title>23&#45;&gt;26</title>
<path fill="none" stroke="black" d="M428.108,-436.8C432.62,-439.357 437.398,-441.886 442,-444 486.447,-464.42 500.039,-463.264 546,-480 553.515,-482.737 561.47,-485.709 569.188,-488.634"/>
<polygon fill="black" stroke="black" points="568.196,-492.001 578.787,-492.291 570.688,-485.46 568.196,-492.001"/>
</g>
<!-- 23&#45;&gt;3 -->
<g id="edge83" class="edge"><title>23&#45;&gt;3</title>
<path fill="none" stroke="black" d="M428.272,-424.809C475.693,-429.268 589.455,-443.228 677,-480 716.891,-496.755 721.852,-510.223 758,-534 777.834,-547.046 800.119,-561.516 818.01,-573.087"/>
<polygon fill="black" stroke="black" points="816.112,-576.027 826.411,-578.515 819.912,-570.148 816.112,-576.027"/>
</g>
<!-- 23&#45;&gt;32 -->
<g id="edge92" class="edge"><title>23&#45;&gt;32</title>
<path fill="none" stroke="black" d="M389.978,-444.121C382.311,-454.642 373.246,-467.712 366,-480 332.163,-537.378 299.639,-607.997 281.585,-649.017"/>
<polygon fill="black" stroke="black" points="278.33,-647.726 277.529,-658.29 284.743,-650.531 278.33,-647.726"/>
</g>
<!-- 23&#45;&gt;27 -->
<g id="edge104" class="edge"><title>23&#45;&gt;27</title>
<path fill="none" stroke="black" d="M428.185,-442.231C440.627,-453.147 456.344,-467.155 470,-480 567.758,-571.95 679.215,-685.024 732.066,-739.163"/>
<polygon fill="black" stroke="black" points="729.64,-741.688 739.127,-746.403 734.651,-736.801 729.64,-741.688"/>
</g>
<!-- 23&#45;&gt;0 -->
<g id="edge108" class="edge"><title>23&#45;&gt;0</title>
<path fill="none" stroke="black" d="M383.883,-426.099C299.16,-439.329 0,-499.068 0,-683 0,-683 0,-683 0,-949 0,-1075.65 87.7997,-1095.24 202,-1150 331.846,-1212.26 381.064,-1168.51 524,-1186 577.175,-1192.51 638.698,-1200.84 676.479,-1206.05"/>
<polygon fill="black" stroke="black" points="676.093,-1209.53 686.479,-1207.43 677.052,-1202.6 676.093,-1209.53"/>
</g>
<!-- 23&#45;&gt;6 -->
<g id="edge134" class="edge"><title>23&#45;&gt;6</title>
<path fill="none" stroke="black" d="M409.798,-444.009C423.467,-514.412 476.066,-745.461 600,-886 619.292,-907.877 648.403,-923.84 671.239,-933.937"/>
<polygon fill="black" stroke="black" points="670.023,-937.223 680.595,-937.905 672.756,-930.778 670.023,-937.223"/>
</g>
<!-- 23&#45;&gt;1 -->
<g id="edge151" class="edge"><title>23&#45;&gt;1</title>
<path fill="none" stroke="black" d="M404.746,-444.029C400.588,-513.755 387.227,-737.812 382.064,-824.396"/>
<polygon fill="black" stroke="black" points="378.563,-824.301 381.461,-834.492 385.551,-824.718 378.563,-824.301"/>
</g>
<!-- 23&#45;&gt;8 -->
<g id="edge165" class="edge"><title>23&#45;&gt;8</title>
<path fill="none" stroke="black" d="M383.898,-437.783C369.005,-448.418 349.506,-463.708 335,-480 214.831,-614.961 167.243,-656.193 135,-834 116.571,-935.631 112.276,-984.014 180,-1062 208.899,-1095.28 258.793,-1110.74 292.577,-1117.68"/>
<polygon fill="black" stroke="black" points="292.025,-1121.14 302.504,-1119.57 293.336,-1114.26 292.025,-1121.14"/>
</g>
<!-- 24 -->
<g id="node25" class="node"><title>24</title>
<polygon fill="lightgrey" stroke="lightgrey" points="515.5,-1237.5 464.5,-1237.5 464.5,-1186.5 515.5,-1186.5 515.5,-1237.5"/>
<text text-anchor="middle" x="490" y="-1208.3" font-family="Times,serif" font-size="14.00">4.2.23</text>
</g>
<!-- 24&#45;&gt;17 -->
<g id="edge22" class="edge"><title>24&#45;&gt;17</title>
<path fill="none" stroke="black" d="M515.39,-1233.6C529.446,-1245 547.098,-1259.32 562.297,-1271.66"/>
<polygon fill="black" stroke="black" points="560.479,-1274.69 570.45,-1278.27 564.89,-1269.25 560.479,-1274.69"/>
</g>
<!-- 24&#45;&gt;31 -->
<g id="edge70" class="edge"><title>24&#45;&gt;31</title>
<path fill="none" stroke="black" d="M489.53,-1237.65C488.636,-1284.46 486.692,-1386.36 485.665,-1440.14"/>
<polygon fill="black" stroke="black" points="482.164,-1440.16 485.473,-1450.23 489.163,-1440.29 482.164,-1440.16"/>
</g>
<!-- 24&#45;&gt;5 -->
<g id="edge111" class="edge"><title>24&#45;&gt;5</title>
<path fill="none" stroke="black" d="M502.859,-1237.72C508.13,-1248.62 513.934,-1261.72 518,-1274 526.491,-1299.64 532.69,-1329.58 536.659,-1352.19"/>
<polygon fill="black" stroke="black" points="533.257,-1353.06 538.377,-1362.34 540.159,-1351.9 533.257,-1353.06"/>
</g>
<!-- 25&#45;&gt;30 -->
<g id="edge81" class="edge"><title>25&#45;&gt;30</title>
<path fill="none" stroke="black" d="M1628.13,-790.267C1617.89,-847.31 1578.66,-1032.76 1484,-1150 1472.15,-1164.68 1456.77,-1179.1 1443.84,-1190.23"/>
<polygon fill="black" stroke="black" points="1441.55,-1187.59 1436.16,-1196.71 1446.06,-1192.94 1441.55,-1187.59"/>
</g>
<!-- 25&#45;&gt;19 -->
<g id="edge118" class="edge"><title>25&#45;&gt;19</title>
<path fill="none" stroke="black" d="M1622.43,-789.389C1599.32,-833.579 1535.59,-955.457 1507.55,-1009.09"/>
<polygon fill="black" stroke="black" points="1504.28,-1007.8 1502.74,-1018.28 1510.48,-1011.04 1504.28,-1007.8"/>
</g>
<!-- 25&#45;&gt;29 -->
<g id="edge132" class="edge"><title>25&#45;&gt;29</title>
<path fill="none" stroke="black" d="M1649.57,-787.009C1668.2,-801.064 1697.09,-822.856 1718.2,-838.783"/>
<polygon fill="black" stroke="black" points="1716.35,-841.769 1726.44,-844.997 1720.56,-836.181 1716.35,-841.769"/>
</g>
<!-- 25&#45;&gt;20 -->
<g id="edge154" class="edge"><title>25&#45;&gt;20</title>
<path fill="none" stroke="black" d="M1641.07,-789.21C1654.84,-811.259 1680.39,-851.87 1703,-886 1711.07,-898.179 1720.25,-911.564 1727.96,-922.685"/>
<polygon fill="black" stroke="black" points="1725.2,-924.844 1733.79,-931.052 1730.95,-920.845 1725.2,-924.844"/>
</g>
<!-- 25&#45;&gt;4 -->
<g id="edge158" class="edge"><title>25&#45;&gt;4</title>
<path fill="none" stroke="black" d="M1614.89,-787.812C1602.32,-799.736 1584.74,-817.216 1571,-834 1511.2,-907.074 1492.51,-924.707 1452,-1010 1438.66,-1038.08 1429.19,-1072.58 1423.69,-1096.02"/>
<polygon fill="black" stroke="black" points="1420.23,-1095.42 1421.44,-1105.95 1427.06,-1096.97 1420.23,-1095.42"/>
</g>
<!-- 26&#45;&gt;27 -->
<g id="edge42" class="edge"><title>26&#45;&gt;27</title>
<path fill="none" stroke="blue" stroke-width="2" d="M644.602,-524.126C662.458,-534.945 684.129,-550.728 698,-570 734.638,-620.903 751.332,-693.491 758.379,-736.078"/>
<polygon fill="blue" stroke="blue" points="754.963,-736.89 759.969,-746.227 761.879,-735.806 754.963,-736.89"/>
</g>
<!-- 26&#45;&gt;0 -->
<g id="edge45" class="edge"><title>26&#45;&gt;0</title>
<path fill="none" stroke="blue" stroke-width="2" d="M647.214,-523.313C675.936,-537.092 714.587,-557.1 726,-570 809.14,-663.969 806.114,-710.117 826,-834 846.961,-964.574 771.185,-1113.03 732.874,-1177.82"/>
<polygon fill="blue" stroke="blue" points="729.872,-1176.02 727.731,-1186.4 735.876,-1179.62 729.872,-1176.02"/>
</g>
<!-- 26&#45;&gt;32 -->
<g id="edge86" class="edge"><title>26&#45;&gt;32</title>
<path fill="none" stroke="blue" stroke-width="2" d="M580.167,-523.04C552.928,-535.296 513.755,-553.253 480,-570 416.202,-601.653 343.126,-641.143 301.282,-664.072"/>
<polygon fill="blue" stroke="blue" points="299.424,-661.1 292.342,-668.98 302.792,-667.236 299.424,-661.1"/>
</g>
<!-- 26&#45;&gt;8 -->
<g id="edge98" class="edge"><title>26&#45;&gt;8</title>
<path fill="none" stroke="blue" stroke-width="2" d="M582.64,-524.062C562.544,-535.273 536.643,-551.503 517,-570 415.049,-666.004 386.995,-700.406 345,-834 317.247,-922.286 320.623,-1033.08 324.705,-1088.33"/>
<polygon fill="blue" stroke="blue" points="321.216,-1088.61 325.495,-1098.3 328.194,-1088.06 321.216,-1088.61"/>
</g>
<!-- 26&#45;&gt;9 -->
<g id="edge101" class="edge"><title>26&#45;&gt;9</title>
<path fill="none" stroke="blue" stroke-width="2" d="M604.838,-530.907C593.77,-559.924 575.791,-611.732 569,-658 550.639,-783.102 575.216,-933.468 588.494,-1000.19"/>
<polygon fill="blue" stroke="blue" points="585.099,-1001.06 590.52,-1010.16 591.959,-999.664 585.099,-1001.06"/>
</g>
<!-- 26&#45;&gt;6 -->
<g id="edge110" class="edge"><title>26&#45;&gt;6</title>
<path fill="none" stroke="blue" stroke-width="2" d="M632.695,-527.593C642.497,-539.052 653.738,-554.316 660,-570 707.344,-688.579 709.384,-843.472 707.569,-911.897"/>
<polygon fill="blue" stroke="blue" points="704.064,-912.013 707.251,-922.117 711.06,-912.231 704.064,-912.013"/>
</g>
<!-- 26&#45;&gt;3 -->
<g id="edge137" class="edge"><title>26&#45;&gt;3</title>
<path fill="none" stroke="blue" stroke-width="2" d="M650.65,-522.172C660.789,-526.05 671.808,-530.223 682,-534 728.564,-551.254 782.575,-570.505 816.999,-582.679"/>
<polygon fill="blue" stroke="blue" points="816,-586.038 826.595,-586.069 818.332,-579.438 816,-586.038"/>
</g>
<!-- 26&#45;&gt;1 -->
<g id="edge138" class="edge"><title>26&#45;&gt;1</title>
<path fill="none" stroke="blue" stroke-width="2" d="M596.29,-527.897C561.692,-567.423 483.97,-659.5 432,-746 416.721,-771.43 402.866,-802.107 393.307,-825.077"/>
<polygon fill="blue" stroke="blue" points="390.035,-823.832 389.481,-834.412 396.512,-826.486 390.035,-823.832"/>
</g>
<!-- 27&#45;&gt;5 -->
<g id="edge3" class="edge"><title>27&#45;&gt;5</title>
<path fill="none" stroke="black" d="M788.378,-782.713C856.457,-810.604 1038,-897.84 1038,-1035 1038,-1035 1038,-1035 1038,-1125 1038,-1158.36 844.639,-1310.69 815,-1326 736.52,-1366.53 631.759,-1380.26 577.671,-1384.81"/>
<polygon fill="black" stroke="black" points="577.248,-1381.34 567.552,-1385.61 577.795,-1388.31 577.248,-1381.34"/>
</g>
<!-- 27&#45;&gt;8 -->
<g id="edge17" class="edge"><title>27&#45;&gt;8</title>
<path fill="none" stroke="black" d="M737.659,-793.324C722.879,-805.182 703.879,-820.432 687,-834 567.336,-930.189 425.365,-1044.55 361.758,-1095.8"/>
<polygon fill="black" stroke="black" points="359.264,-1093.31 353.673,-1102.31 363.656,-1098.76 359.264,-1093.31"/>
</g>
<!-- 27&#45;&gt;17 -->
<g id="edge48" class="edge"><title>27&#45;&gt;17</title>
<path fill="none" stroke="black" d="M775.452,-797.74C799.012,-847.688 845.953,-964.154 825,-1062 807.046,-1145.84 807.7,-1178.46 746,-1238 714.1,-1268.78 664.586,-1284.79 631.261,-1292.54"/>
<polygon fill="black" stroke="black" points="630.493,-1289.13 621.476,-1294.69 631.994,-1295.96 630.493,-1289.13"/>
</g>
<!-- 27&#45;&gt;9 -->
<g id="edge59" class="edge"><title>27&#45;&gt;9</title>
<path fill="none" stroke="black" d="M746.751,-797.573C739.447,-808.672 730.746,-821.967 723,-834 685.092,-892.889 641.646,-962.01 616.655,-1001.93"/>
<polygon fill="black" stroke="black" points="613.649,-1000.14 611.312,-1010.47 619.583,-1003.85 613.649,-1000.14"/>
</g>
<!-- 27&#45;&gt;0 -->
<g id="edge75" class="edge"><title>27&#45;&gt;0</title>
<path fill="none" stroke="black" d="M761.443,-797.821C757.442,-858.314 745.644,-1018.07 725,-1150 723.64,-1158.69 721.835,-1168 720.004,-1176.67"/>
<polygon fill="black" stroke="black" points="716.576,-1175.96 717.867,-1186.48 723.416,-1177.45 716.576,-1175.96"/>
</g>
<!-- 27&#45;&gt;6 -->
<g id="edge79" class="edge"><title>27&#45;&gt;6</title>
<path fill="none" stroke="black" d="M754.954,-797.561C745.095,-827.658 728.332,-878.827 717.213,-912.771"/>
<polygon fill="black" stroke="black" points="713.884,-911.69 714.097,-922.283 720.536,-913.869 713.884,-911.69"/>
</g>
<!-- 27&#45;&gt;1 -->
<g id="edge142" class="edge"><title>27&#45;&gt;1</title>
<path fill="none" stroke="black" d="M737.574,-778.709C671.193,-793.615 492.513,-833.736 415.795,-850.963"/>
<polygon fill="black" stroke="black" points="414.659,-847.63 405.668,-853.236 416.192,-854.46 414.659,-847.63"/>
</g>
<!-- 28 -->
<g id="node29" class="node"><title>28</title>
<polygon fill="lightgrey" stroke="lightgrey" points="629.5,-709.5 578.5,-709.5 578.5,-658.5 629.5,-658.5 629.5,-709.5"/>
<text text-anchor="middle" x="604" y="-680.3" font-family="Times,serif" font-size="14.00">4.2.11</text>
</g>
<!-- 28&#45;&gt;27 -->
<g id="edge21" class="edge"><title>28&#45;&gt;27</title>
<path fill="none" stroke="black" d="M629.627,-701.464C634.364,-704.379 639.299,-707.333 644,-710 671.986,-725.881 704.55,-742.446 728.532,-754.3"/>
<polygon fill="black" stroke="black" points="727.079,-757.486 737.597,-758.759 730.169,-751.204 727.079,-757.486"/>
</g>
<!-- 28&#45;&gt;1 -->
<g id="edge139" class="edge"><title>28&#45;&gt;1</title>
<path fill="none" stroke="black" d="M578.473,-707.915C551.99,-731.354 509.06,-768.422 470,-798 451.932,-811.682 431.014,-825.949 413.894,-837.242"/>
<polygon fill="black" stroke="black" points="411.769,-834.449 405.323,-842.857 415.606,-840.305 411.769,-834.449"/>
</g>
<!-- 29&#45;&gt;30 -->
<g id="edge76" class="edge"><title>29&#45;&gt;30</title>
<path fill="none" stroke="black" d="M1765.07,-874.37C1779.48,-885.265 1797.75,-902.075 1806,-922 1836.36,-995.284 1773.87,-1128.19 1749,-1150 1706.69,-1187.1 1540.69,-1202.9 1461.06,-1208.46"/>
<polygon fill="black" stroke="black" points="1460.62,-1204.98 1450.88,-1209.14 1461.09,-1211.96 1460.62,-1204.98"/>
</g>
<!-- 29&#45;&gt;19 -->
<g id="edge119" class="edge"><title>29&#45;&gt;19</title>
<path fill="none" stroke="black" d="M1731.07,-876.464C1709.45,-899.813 1665.74,-944.467 1622,-974 1592.93,-993.63 1556.56,-1010.31 1530.03,-1021.24"/>
<polygon fill="black" stroke="black" points="1528.69,-1018 1520.73,-1025 1531.31,-1024.49 1528.69,-1018"/>
</g>
<!-- 29&#45;&gt;4 -->
<g id="edge149" class="edge"><title>29&#45;&gt;4</title>
<path fill="none" stroke="black" d="M1759.3,-876.279C1779.14,-899.385 1810.12,-943.729 1787,-974 1750.09,-1022.33 1709.1,-982.228 1655,-1010 1622.4,-1026.74 1622.97,-1044.09 1591,-1062 1547.95,-1086.12 1493.64,-1103.38 1457.47,-1113.26"/>
<polygon fill="black" stroke="black" points="1456.53,-1109.89 1447.78,-1115.85 1458.34,-1116.65 1456.53,-1109.89"/>
</g>
<!-- 29&#45;&gt;20 -->
<g id="edge155" class="edge"><title>29&#45;&gt;20</title>
<path fill="none" stroke="black" d="M1745,-878.403C1745,-890.254 1745,-906.183 1745,-919.708"/>
<polygon fill="black" stroke="black" points="1741.5,-919.916 1745,-929.916 1748.5,-919.916 1741.5,-919.916"/>
</g>
<!-- 30&#45;&gt;17 -->
<g id="edge49" class="edge"><title>30&#45;&gt;17</title>
<path fill="none" stroke="black" d="M1385.78,-1216.37C1255.44,-1230.01 767.756,-1281.03 631.539,-1295.28"/>
<polygon fill="black" stroke="black" points="630.841,-1291.84 621.26,-1296.36 631.569,-1298.8 630.841,-1291.84"/>
</g>
<!-- 30&#45;&gt;31 -->
<g id="edge54" class="edge"><title>30&#45;&gt;31</title>
<path fill="none" stroke="black" d="M1397.61,-1226.4C1340.1,-1263.44 1170.6,-1367.57 1014,-1414 834.043,-1467.36 606.792,-1474.45 520.457,-1475.1"/>
<polygon fill="black" stroke="black" points="520.385,-1471.6 510.403,-1475.15 520.42,-1478.6 520.385,-1471.6"/>
</g>
<!-- 30&#45;&gt;5 -->
<g id="edge95" class="edge"><title>30&#45;&gt;5</title>
<path fill="none" stroke="black" d="M1388.32,-1219.98C1309.2,-1238.46 1086.59,-1289.77 900,-1326 782.449,-1348.82 642.271,-1371.36 577.742,-1381.47"/>
<polygon fill="black" stroke="black" points="577.025,-1378.04 567.685,-1383.04 578.106,-1384.95 577.025,-1378.04"/>
</g>
<!-- 32&#45;&gt;6 -->
<g id="edge7" class="edge"><title>32&#45;&gt;6</title>
<path fill="none" stroke="black" d="M291.852,-709.771C343.212,-760.766 458.09,-873.744 480,-886 541.861,-920.605 624.334,-936.371 670.618,-942.906"/>
<polygon fill="black" stroke="black" points="670.37,-946.405 680.748,-944.27 671.304,-939.467 670.37,-946.405"/>
</g>
<!-- 32&#45;&gt;27 -->
<g id="edge33" class="edge"><title>32&#45;&gt;27</title>
<path fill="none" stroke="black" d="M292.279,-689.383C374.194,-703.586 632.51,-748.375 727.499,-764.845"/>
<polygon fill="black" stroke="black" points="727.025,-768.314 737.476,-766.574 728.221,-761.417 727.025,-768.314"/>
</g>
<!-- 32&#45;&gt;0 -->
<g id="edge47" class="edge"><title>32&#45;&gt;0</title>
<path fill="none" stroke="black" d="M241.713,-703.12C227.959,-714.136 211.633,-729.279 201,-746 125.472,-864.774 109.777,-940.014 180,-1062 211.758,-1117.17 234.447,-1125.03 293,-1150 310.656,-1157.53 578.472,-1193.39 676.446,-1206.33"/>
<polygon fill="black" stroke="black" points="676.087,-1209.81 686.459,-1207.65 677.003,-1202.87 676.087,-1209.81"/>
</g>
<!-- 32&#45;&gt;9 -->
<g id="edge55" class="edge"><title>32&#45;&gt;9</title>
<path fill="none" stroke="black" d="M270.162,-709.757C276.739,-751.478 295.633,-836.113 345,-886 409.63,-951.31 508.62,-998.851 560.878,-1021.03"/>
<polygon fill="black" stroke="black" points="559.801,-1024.37 570.378,-1025 562.501,-1017.92 559.801,-1024.37"/>
</g>
<!-- 32&#45;&gt;8 -->
<g id="edge113" class="edge"><title>32&#45;&gt;8</title>
<path fill="none" stroke="black" d="M250.182,-709.676C218.579,-759.037 155.291,-873.806 176,-974 184.623,-1015.72 185.163,-1030.64 214,-1062 235.596,-1085.48 268.353,-1101.69 293.22,-1111.47"/>
<polygon fill="black" stroke="black" points="292.069,-1114.78 302.661,-1115.02 294.535,-1108.22 292.069,-1114.78"/>
</g>
<!-- 32&#45;&gt;1 -->
<g id="edge141" class="edge"><title>32&#45;&gt;1</title>
<path fill="none" stroke="black" d="M278.439,-709.671C289.761,-733.163 308.223,-769.121 328,-798 334.69,-807.768 342.676,-817.781 350.358,-826.797"/>
<polygon fill="black" stroke="black" points="347.791,-829.179 356.991,-834.433 353.075,-824.588 347.791,-829.179"/>
</g>
</g>
</svg>
