<?xml version="1.0" encoding="UTF-8" standalone="no"?>
<!DOCTYPE svg PUBLIC "-//W3C//DTD SVG 1.1//EN"
 "http://www.w3.org/Graphics/SVG/1.1/DTD/svg11.dtd">
<!-- Generated by graphviz version 2.30.1 (20170916.1124)
 -->
<!-- Title: fast Pages: 1 -->
<svg width="1100pt" height="701pt"
 viewBox="0.00 0.00 1100.00 701.00" xmlns="http://www.w3.org/2000/svg" xmlns:xlink="http://www.w3.org/1999/xlink">
<g id="graph0" class="graph" transform="scale(1 1) rotate(0) translate(4 697)">
<title>fast</title>
<polygon fill="white" stroke="white" points="-4,5 -4,-697 1097,-697 1097,5 -4,5"/>
<text text-anchor="middle" x="546" y="-677.8" font-family="Times,serif" font-size="14.00">fast&#45;4.3</text>
<!-- 0 -->
<g id="node1" class="node"><title>0</title>
<polygon fill="lightgrey" stroke="lightgrey" points="220,-582 176,-582 176,-538 220,-538 220,-582"/>
<text text-anchor="middle" x="198" y="-556.3" font-family="Times,serif" font-size="14.00">4.3.9</text>
</g>
<!-- 4 -->
<g id="node5" class="node"><title>4</title>
<polygon fill="yellowgreen" stroke="yellowgreen" points="375.5,-669.5 324.5,-669.5 324.5,-618.5 375.5,-618.5 375.5,-669.5"/>
<text text-anchor="middle" x="350" y="-640.3" font-family="Times,serif" font-size="14.00">4.3.10</text>
</g>
<!-- 0&#45;&gt;4 -->
<g id="edge39" class="edge"><title>0&#45;&gt;4</title>
<path fill="none" stroke="black" d="M220.102,-572.924C245.14,-586.431 286.258,-608.613 315.523,-624.401"/>
<polygon fill="black" stroke="black" points="314.11,-627.615 324.573,-629.283 317.433,-621.454 314.11,-627.615"/>
</g>
<!-- 1 -->
<g id="node2" class="node"><title>1</title>
<polygon fill="lightgrey" stroke="lightgrey" points="44,-422 0,-422 0,-378 44,-378 44,-422"/>
<text text-anchor="middle" x="22" y="-396.3" font-family="Times,serif" font-size="14.00">4.3.2</text>
</g>
<!-- 1&#45;&gt;4 -->
<g id="edge19" class="edge"><title>1&#45;&gt;4</title>
<path fill="none" stroke="black" d="M22.6043,-422.157C24.8839,-460.077 35.3116,-539.604 82,-582 115.882,-612.767 249.458,-631.675 314.303,-639.222"/>
<polygon fill="black" stroke="black" points="314.133,-642.725 324.464,-640.377 314.924,-635.77 314.133,-642.725"/>
</g>
<!-- 5 -->
<g id="node6" class="node"><title>5</title>
<polygon fill="lightgrey" stroke="lightgrey" points="170,-502 126,-502 126,-458 170,-458 170,-502"/>
<text text-anchor="middle" x="148" y="-476.3" font-family="Times,serif" font-size="14.00">4.3.8</text>
</g>
<!-- 1&#45;&gt;5 -->
<g id="edge22" class="edge"><title>1&#45;&gt;5</title>
<path fill="none" stroke="black" d="M44.2362,-414.765C64.5687,-427.352 94.8285,-446.084 117.431,-460.076"/>
<polygon fill="black" stroke="black" points="115.641,-463.085 125.986,-465.372 119.326,-457.133 115.641,-463.085"/>
</g>
<!-- 1&#45;&gt;0 -->
<g id="edge50" class="edge"><title>1&#45;&gt;0</title>
<path fill="none" stroke="black" d="M33.4535,-422.042C46.2299,-444.058 68.6084,-478.609 95,-502 116.221,-520.809 144.696,-535.973 166.328,-545.919"/>
<polygon fill="black" stroke="black" points="165.176,-549.237 175.734,-550.115 168.028,-542.844 165.176,-549.237"/>
</g>
<!-- 2 -->
<g id="node3" class="node"><title>2</title>
<polygon fill="lightgrey" stroke="lightgrey" points="114,-422 70,-422 70,-378 114,-378 114,-422"/>
<text text-anchor="middle" x="92" y="-396.3" font-family="Times,serif" font-size="14.00">4.3.3</text>
</g>
<!-- 2&#45;&gt;4 -->
<g id="edge8" class="edge"><title>2&#45;&gt;4</title>
<path fill="none" stroke="black" d="M86.8264,-422.087C79.0824,-459.188 69.2141,-536.51 108,-582 134.519,-613.103 253.396,-631.493 314.091,-639.016"/>
<polygon fill="black" stroke="black" points="314.015,-642.532 324.362,-640.253 314.852,-635.582 314.015,-642.532"/>
</g>
<!-- 2&#45;&gt;0 -->
<g id="edge16" class="edge"><title>2&#45;&gt;0</title>
<path fill="none" stroke="black" d="M92.9521,-422.084C94.8522,-443.819 100.474,-477.85 117,-502 129.372,-520.08 149.492,-534.282 166.584,-543.988"/>
<polygon fill="black" stroke="black" points="165.237,-547.239 175.699,-548.913 168.565,-541.08 165.237,-547.239"/>
</g>
<!-- 2&#45;&gt;5 -->
<g id="edge23" class="edge"><title>2&#45;&gt;5</title>
<path fill="none" stroke="black" d="M107.302,-422.314C113.339,-430.723 120.376,-440.523 126.883,-449.587"/>
<polygon fill="black" stroke="black" points="124.235,-451.9 132.91,-457.982 129.921,-447.817 124.235,-451.9"/>
</g>
<!-- 3 -->
<g id="node4" class="node"><title>3</title>
<ellipse fill="lightgrey" stroke="lightgrey" cx="837" cy="-480" rx="33.2948" ry="18"/>
<text text-anchor="middle" x="837" y="-476.3" font-family="Times,serif" font-size="14.00">4.2.26</text>
</g>
<!-- 12 -->
<g id="node13" class="node"><title>12</title>
<ellipse fill="lightgrey" stroke="lightgrey" cx="690" cy="-560" rx="33.2948" ry="18"/>
<text text-anchor="middle" x="690" y="-556.3" font-family="Times,serif" font-size="14.00">4.2.27</text>
</g>
<!-- 3&#45;&gt;12 -->
<g id="edge30" class="edge"><title>3&#45;&gt;12</title>
<path fill="none" stroke="black" d="M814.031,-493.188C789.22,-506.353 749.518,-527.419 721.734,-542.161"/>
<polygon fill="black" stroke="black" points="720,-539.119 712.807,-546.898 723.281,-545.303 720,-539.119"/>
</g>
<!-- 3&#45;&gt;4 -->
<g id="edge31" class="edge"><title>3&#45;&gt;4</title>
<path fill="none" stroke="black" d="M825.507,-497.052C808.107,-520.014 772.752,-561.699 732,-582 671.243,-612.266 468.265,-632.768 385.544,-640.055"/>
<polygon fill="black" stroke="black" points="385.042,-636.585 375.382,-640.937 385.647,-643.559 385.042,-636.585"/>
</g>
<!-- 5&#45;&gt;4 -->
<g id="edge17" class="edge"><title>5&#45;&gt;4</title>
<path fill="none" stroke="black" d="M146.144,-502.215C145.374,-524.703 147.761,-559.953 167,-582 204.452,-624.917 272.918,-637.733 314.656,-641.502"/>
<polygon fill="black" stroke="black" points="314.415,-644.993 324.656,-642.277 314.956,-638.014 314.415,-644.993"/>
</g>
<!-- 5&#45;&gt;0 -->
<g id="edge51" class="edge"><title>5&#45;&gt;0</title>
<path fill="none" stroke="black" d="M161.663,-502.314C166.997,-510.636 173.206,-520.321 178.966,-529.306"/>
<polygon fill="black" stroke="black" points="176.184,-531.452 184.527,-537.982 182.077,-527.674 176.184,-531.452"/>
</g>
<!-- 6 -->
<g id="node7" class="node"><title>6</title>
<ellipse fill="lightgrey" stroke="lightgrey" cx="859" cy="-18" rx="33.2948" ry="18"/>
<text text-anchor="middle" x="859" y="-14.3" font-family="Times,serif" font-size="14.00">4.2.16</text>
</g>
<!-- 15 -->
<g id="node16" class="node"><title>15</title>
<polygon fill="salmon" stroke="salmon" points="898.92,-320.533 858,-332.905 817.08,-320.533 832.71,-300.514 883.29,-300.514 898.92,-320.533"/>
<polygon fill="none" stroke="salmon" points="905.641,-322.659 858,-337.063 810.359,-322.659 830.756,-296.535 885.244,-296.535 905.641,-322.659"/>
<polygon fill="none" stroke="salmon" points="912.361,-324.785 858,-341.222 803.639,-324.785 828.802,-292.556 887.198,-292.556 912.361,-324.785"/>
<text text-anchor="middle" x="858" y="-311.3" font-family="Times,serif" font-size="14.00">4.2.21</text>
</g>
<!-- 6&#45;&gt;15 -->
<g id="edge18" class="edge"><title>6&#45;&gt;15</title>
<path fill="none" stroke="black" d="M866.49,-35.5411C876.688,-59.0606 894.424,-103.783 901,-144 909.07,-193.358 889.075,-249.376 873.711,-283.18"/>
<polygon fill="black" stroke="black" points="870.411,-281.974 869.328,-292.513 876.747,-284.949 870.411,-281.974"/>
</g>
<!-- 6&#45;&gt;12 -->
<g id="edge20" class="edge"><title>6&#45;&gt;12</title>
<path fill="none" stroke="black" d="M890.909,-23.3614C954.722,-34.0669 1092,-67.9147 1092,-161 1092,-161 1092,-161 1092,-401 1092,-477.939 833.707,-533.052 731.203,-551.894"/>
<polygon fill="black" stroke="black" points="730.425,-548.478 721.21,-553.706 731.674,-555.366 730.425,-548.478"/>
</g>
<!-- 6&#45;&gt;3 -->
<g id="edge27" class="edge"><title>6&#45;&gt;3</title>
<path fill="none" stroke="black" d="M889.041,-25.9958C943.74,-40.7147 1054,-80.3826 1054,-161 1054,-161 1054,-161 1054,-316 1054,-403.704 939.278,-450.043 876.662,-468.803"/>
<polygon fill="black" stroke="black" points="875.35,-465.539 866.718,-471.682 877.297,-472.263 875.35,-465.539"/>
</g>
<!-- 14 -->
<g id="node15" class="node"><title>14</title>
<ellipse fill="lightgrey" stroke="lightgrey" cx="563" cy="-400" rx="33.2948" ry="18"/>
<text text-anchor="middle" x="563" y="-396.3" font-family="Times,serif" font-size="14.00">4.2.25</text>
</g>
<!-- 6&#45;&gt;14 -->
<g id="edge29" class="edge"><title>6&#45;&gt;14</title>
<path fill="none" stroke="black" d="M827.943,-24.4374C741.087,-40.5182 502,-91.1295 502,-161 502,-161 502,-161 502,-235 502,-286.756 529.019,-342.262 547.092,-373.602"/>
<polygon fill="black" stroke="black" points="544.267,-375.701 552.375,-382.522 550.291,-372.134 544.267,-375.701"/>
</g>
<!-- 17 -->
<g id="node18" class="node"><title>17</title>
<ellipse fill="lightgrey" stroke="lightgrey" cx="737" cy="-234" rx="33.2948" ry="18"/>
<text text-anchor="middle" x="737" y="-230.3" font-family="Times,serif" font-size="14.00">4.2.20</text>
</g>
<!-- 6&#45;&gt;17 -->
<g id="edge41" class="edge"><title>6&#45;&gt;17</title>
<path fill="none" stroke="black" d="M829.012,-26.1338C805.17,-33.4649 773.08,-47.38 756,-72 728.35,-111.856 729.318,-171.019 732.903,-205.429"/>
<polygon fill="black" stroke="black" points="729.466,-206.16 734.126,-215.675 736.416,-205.331 729.466,-206.16"/>
</g>
<!-- 16 -->
<g id="node17" class="node"><title>16</title>
<ellipse fill="lightgrey" stroke="lightgrey" cx="859" cy="-162" rx="33.2948" ry="18"/>
<text text-anchor="middle" x="859" y="-158.3" font-family="Times,serif" font-size="14.00">4.2.19</text>
</g>
<!-- 6&#45;&gt;16 -->
<g id="edge42" class="edge"><title>6&#45;&gt;16</title>
<path fill="none" stroke="black" d="M859,-36.1285C859,-60.3298 859,-104.789 859,-133.607"/>
<polygon fill="black" stroke="black" points="855.5,-133.811 859,-143.811 862.5,-133.811 855.5,-133.811"/>
</g>
<!-- 10 -->
<g id="node11" class="node"><title>10</title>
<ellipse fill="lightgrey" stroke="lightgrey" cx="798" cy="-90" rx="33.2948" ry="18"/>
<text text-anchor="middle" x="798" y="-86.3" font-family="Times,serif" font-size="14.00">4.2.18</text>
</g>
<!-- 6&#45;&gt;10 -->
<g id="edge58" class="edge"><title>6&#45;&gt;10</title>
<path fill="none" stroke="black" d="M845.462,-34.5353C837.486,-43.6885 827.24,-55.4461 818.31,-65.6929"/>
<polygon fill="black" stroke="black" points="815.431,-63.6696 811.5,-73.5082 820.709,-68.2685 815.431,-63.6696"/>
</g>
<!-- 7 -->
<g id="node8" class="node"><title>7</title>
<polygon fill="lightgrey" stroke="lightgrey" points="176,-422 132,-422 132,-378 176,-378 176,-422"/>
<text text-anchor="middle" x="154" y="-396.3" font-family="Times,serif" font-size="14.00">4.3.0</text>
</g>
<!-- 7&#45;&gt;4 -->
<g id="edge15" class="edge"><title>7&#45;&gt;4</title>
<path fill="none" stroke="black" d="M136.002,-422.254C128.573,-432.39 120.819,-445.104 117,-458 100.986,-512.081 103.375,-542.874 144,-582 190.634,-626.913 268.739,-638.964 314.195,-642.069"/>
<polygon fill="black" stroke="black" points="314.282,-645.579 324.465,-642.655 314.681,-638.591 314.282,-645.579"/>
</g>
<!-- 7&#45;&gt;0 -->
<g id="edge21" class="edge"><title>7&#45;&gt;0</title>
<path fill="none" stroke="black" d="M164.681,-422.213C169.631,-432.755 175.236,-445.817 179,-458 186.086,-480.937 190.972,-507.662 194.013,-527.859"/>
<polygon fill="black" stroke="black" points="190.55,-528.37 195.437,-537.77 197.479,-527.374 190.55,-528.37"/>
</g>
<!-- 7&#45;&gt;5 -->
<g id="edge46" class="edge"><title>7&#45;&gt;5</title>
<path fill="none" stroke="black" d="M152.36,-422.314C151.754,-430.202 151.053,-439.316 150.393,-447.897"/>
<polygon fill="black" stroke="black" points="146.894,-447.743 149.617,-457.982 153.874,-448.28 146.894,-447.743"/>
</g>
<!-- 8 -->
<g id="node9" class="node"><title>8</title>
<polygon fill="lightgrey" stroke="lightgrey" points="308,-422 264,-422 264,-378 308,-378 308,-422"/>
<text text-anchor="middle" x="286" y="-396.3" font-family="Times,serif" font-size="14.00">4.3.5</text>
</g>
<!-- 8&#45;&gt;5 -->
<g id="edge24" class="edge"><title>8&#45;&gt;5</title>
<path fill="none" stroke="black" d="M263.833,-416.428C260.893,-418.352 257.895,-420.255 255,-422 230.033,-437.049 200.761,-452.499 179.151,-463.511"/>
<polygon fill="black" stroke="black" points="177.441,-460.453 170.099,-468.092 180.602,-466.699 177.441,-460.453"/>
</g>
<!-- 8&#45;&gt;4 -->
<g id="edge44" class="edge"><title>8&#45;&gt;4</title>
<path fill="none" stroke="black" d="M304.456,-422.033C312.384,-432.222 320.967,-445.04 326,-458 345.346,-507.81 349.724,-570.258 350.392,-608.365"/>
<polygon fill="black" stroke="black" points="346.893,-608.472 350.491,-618.437 353.892,-608.403 346.893,-608.472"/>
</g>
<!-- 8&#45;&gt;0 -->
<g id="edge55" class="edge"><title>8&#45;&gt;0</title>
<path fill="none" stroke="black" d="M274.132,-422.309C258.869,-449.713 232.262,-497.483 214.892,-528.671"/>
<polygon fill="black" stroke="black" points="211.628,-527.338 209.82,-537.777 217.744,-530.744 211.628,-527.338"/>
</g>
<!-- 9 -->
<g id="node10" class="node"><title>9</title>
<polygon fill="lightgrey" stroke="lightgrey" points="246,-422 202,-422 202,-378 246,-378 246,-422"/>
<text text-anchor="middle" x="224" y="-396.3" font-family="Times,serif" font-size="14.00">4.3.1</text>
</g>
<!-- 9&#45;&gt;5 -->
<g id="edge7" class="edge"><title>9&#45;&gt;5</title>
<path fill="none" stroke="black" d="M203.233,-422.314C194.702,-431.069 184.7,-441.334 175.57,-450.704"/>
<polygon fill="black" stroke="black" points="172.951,-448.377 168.479,-457.982 177.965,-453.262 172.951,-448.377"/>
</g>
<!-- 9&#45;&gt;0 -->
<g id="edge13" class="edge"><title>9&#45;&gt;0</title>
<path fill="none" stroke="black" d="M222.261,-422.003C220.386,-442.51 216.983,-474.549 212,-502 210.46,-510.482 208.409,-519.583 206.353,-527.968"/>
<polygon fill="black" stroke="black" points="202.938,-527.197 203.876,-537.75 209.724,-528.915 202.938,-527.197"/>
</g>
<!-- 9&#45;&gt;4 -->
<g id="edge56" class="edge"><title>9&#45;&gt;4</title>
<path fill="none" stroke="black" d="M234.961,-422.053C256.831,-464.056 306.046,-558.58 332.459,-609.309"/>
<polygon fill="black" stroke="black" points="329.391,-610.996 337.113,-618.25 335.6,-607.763 329.391,-610.996"/>
</g>
<!-- 10&#45;&gt;14 -->
<g id="edge1" class="edge"><title>10&#45;&gt;14</title>
<path fill="none" stroke="black" d="M772.706,-101.769C720.17,-125.848 601.199,-189.757 566,-288 556.233,-315.261 556.895,-348.746 559.11,-371.766"/>
<polygon fill="black" stroke="black" points="555.648,-372.303 560.244,-381.85 562.604,-371.521 555.648,-372.303"/>
</g>
<!-- 10&#45;&gt;15 -->
<g id="edge3" class="edge"><title>10&#45;&gt;15</title>
<path fill="none" stroke="black" d="M801.206,-108.165C804.675,-126.165 810.578,-155.224 817,-180 826.202,-215.5 838.783,-255.654 847.573,-282.673"/>
<polygon fill="black" stroke="black" points="844.303,-283.933 850.741,-292.348 850.955,-281.755 844.303,-283.933"/>
</g>
<!-- 10&#45;&gt;17 -->
<g id="edge26" class="edge"><title>10&#45;&gt;17</title>
<path fill="none" stroke="black" d="M790.763,-107.847C780.261,-132.294 760.7,-177.829 748.292,-206.714"/>
<polygon fill="black" stroke="black" points="744.959,-205.605 744.228,-216.175 751.391,-208.368 744.959,-205.605"/>
</g>
<!-- 10&#45;&gt;12 -->
<g id="edge40" class="edge"><title>10&#45;&gt;12</title>
<path fill="none" stroke="black" d="M766.182,-94.9823C686.246,-106.932 477.774,-150.61 399,-288 345.604,-381.128 423.493,-439.819 511,-502 552.312,-531.355 609.423,-546.075 647.932,-553.11"/>
<polygon fill="black" stroke="black" points="647.821,-556.643 658.271,-554.897 649.013,-549.745 647.821,-556.643"/>
</g>
<!-- 10&#45;&gt;3 -->
<g id="edge45" class="edge"><title>10&#45;&gt;3</title>
<path fill="none" stroke="black" d="M827.225,-98.6985C850.612,-106.366 882.463,-120.457 901,-144 941.745,-195.748 928.167,-222.604 936,-288 943.236,-348.41 943.128,-372.324 908,-422 897.192,-437.284 881.19,-450.625 867.113,-460.55"/>
<polygon fill="black" stroke="black" points="864.977,-457.769 858.66,-466.275 868.902,-463.565 864.977,-457.769"/>
</g>
<!-- 10&#45;&gt;16 -->
<g id="edge47" class="edge"><title>10&#45;&gt;16</title>
<path fill="none" stroke="black" d="M811.538,-106.535C819.514,-115.689 829.76,-127.446 838.69,-137.693"/>
<polygon fill="black" stroke="black" points="836.291,-140.268 845.5,-145.508 841.569,-135.67 836.291,-140.268"/>
</g>
<!-- 11 -->
<g id="node12" class="node"><title>11</title>
<ellipse fill="lightgrey" stroke="lightgrey" cx="677" cy="-315" rx="33.2948" ry="18"/>
<text text-anchor="middle" x="677" y="-311.3" font-family="Times,serif" font-size="14.00">4.2.22</text>
</g>
<!-- 11&#45;&gt;12 -->
<g id="edge4" class="edge"><title>11&#45;&gt;12</title>
<path fill="none" stroke="black" d="M677.914,-333.087C680.138,-374.654 685.845,-481.331 688.544,-531.782"/>
<polygon fill="black" stroke="black" points="685.058,-532.133 689.087,-541.932 692.048,-531.759 685.058,-532.133"/>
</g>
<!-- 11&#45;&gt;4 -->
<g id="edge11" class="edge"><title>11&#45;&gt;4</title>
<path fill="none" stroke="black" d="M667.563,-332.257C654.715,-353.792 630.393,-392.489 605,-422 535.143,-503.186 435.01,-581.126 383.472,-619.051"/>
<polygon fill="black" stroke="black" points="381.335,-616.278 375.33,-625.006 385.468,-621.927 381.335,-616.278"/>
</g>
<!-- 11&#45;&gt;3 -->
<g id="edge36" class="edge"><title>11&#45;&gt;3</title>
<path fill="none" stroke="black" d="M692.052,-331.335C720.284,-360.095 781.316,-422.272 814.467,-456.044"/>
<polygon fill="black" stroke="black" points="812.368,-458.903 821.871,-463.587 817.364,-453.999 812.368,-458.903"/>
</g>
<!-- 11&#45;&gt;14 -->
<g id="edge38" class="edge"><title>11&#45;&gt;14</title>
<path fill="none" stroke="black" d="M657.919,-329.892C639.423,-343.358 611.18,-363.922 590.306,-379.119"/>
<polygon fill="black" stroke="black" points="588.168,-376.347 582.143,-385.062 592.288,-382.006 588.168,-376.347"/>
</g>
<!-- 12&#45;&gt;4 -->
<g id="edge53" class="edge"><title>12&#45;&gt;4</title>
<path fill="none" stroke="black" d="M660.422,-568.134C598.005,-583.187 453.043,-618.149 385.642,-634.404"/>
<polygon fill="black" stroke="black" points="384.416,-631.099 375.515,-636.846 386.057,-637.904 384.416,-631.099"/>
</g>
<!-- 13 -->
<g id="node14" class="node"><title>13</title>
<ellipse fill="lightgrey" stroke="lightgrey" cx="441" cy="-315" rx="33.2948" ry="18"/>
<text text-anchor="middle" x="441" y="-311.3" font-family="Times,serif" font-size="14.00">4.2.23</text>
</g>
<!-- 13&#45;&gt;12 -->
<g id="edge5" class="edge"><title>13&#45;&gt;12</title>
<path fill="none" stroke="black" d="M443.435,-333.068C447.366,-355.5 456.913,-395.189 478,-422 525.549,-482.456 607.55,-524.412 654.412,-544.817"/>
<polygon fill="black" stroke="black" points="653.281,-548.14 663.853,-548.843 656.027,-541.701 653.281,-548.14"/>
</g>
<!-- 13&#45;&gt;3 -->
<g id="edge6" class="edge"><title>13&#45;&gt;3</title>
<path fill="none" stroke="black" d="M451.3,-332.49C468.415,-359.353 502.638,-410.707 521,-422 566.239,-449.822 719.19,-467.805 794.454,-475.182"/>
<polygon fill="black" stroke="black" points="794.25,-478.679 804.539,-476.153 794.92,-471.711 794.25,-478.679"/>
</g>
<!-- 13&#45;&gt;4 -->
<g id="edge25" class="edge"><title>13&#45;&gt;4</title>
<path fill="none" stroke="black" d="M436.236,-333.121C421.904,-384.618 378.992,-538.821 359.646,-608.339"/>
<polygon fill="black" stroke="black" points="356.169,-607.778 356.86,-618.351 362.913,-609.655 356.169,-607.778"/>
</g>
<!-- 13&#45;&gt;14 -->
<g id="edge28" class="edge"><title>13&#45;&gt;14</title>
<path fill="none" stroke="black" d="M460.873,-329.52C480.901,-343.146 512.001,-364.304 534.621,-379.693"/>
<polygon fill="black" stroke="black" points="532.899,-382.754 543.136,-385.486 536.836,-376.967 532.899,-382.754"/>
</g>
<!-- 14&#45;&gt;12 -->
<g id="edge9" class="edge"><title>14&#45;&gt;12</title>
<path fill="none" stroke="black" d="M575.642,-416.727C597.988,-444.528 644.585,-502.499 670.879,-535.211"/>
<polygon fill="black" stroke="black" points="668.417,-537.735 677.41,-543.336 673.873,-533.349 668.417,-537.735"/>
</g>
<!-- 14&#45;&gt;3 -->
<g id="edge12" class="edge"><title>14&#45;&gt;3</title>
<path fill="none" stroke="black" d="M591.547,-409.127C640.968,-423.195 742.508,-452.101 798.252,-467.97"/>
<polygon fill="black" stroke="black" points="797.529,-471.403 808.105,-470.774 799.445,-464.67 797.529,-471.403"/>
</g>
<!-- 14&#45;&gt;4 -->
<g id="edge54" class="edge"><title>14&#45;&gt;4</title>
<path fill="none" stroke="black" d="M545.108,-415.443C531.821,-426.516 513.558,-442.483 499,-458 451.126,-509.029 446.261,-527.808 402,-582 394.374,-591.336 385.956,-601.339 378.153,-610.487"/>
<polygon fill="black" stroke="black" points="375.336,-608.397 371.491,-618.269 380.653,-612.949 375.336,-608.397"/>
</g>
<!-- 15&#45;&gt;14 -->
<g id="edge2" class="edge"><title>15&#45;&gt;14</title>
<path fill="none" stroke="blue" stroke-width="2" d="M814.789,-328.158C757.236,-344.35 656.315,-372.745 601.34,-388.213"/>
<polygon fill="blue" stroke="blue" points="600.309,-384.867 591.631,-390.945 602.205,-391.605 600.309,-384.867"/>
</g>
<!-- 15&#45;&gt;4 -->
<g id="edge14" class="edge"><title>15&#45;&gt;4</title>
<path fill="none" stroke="blue" stroke-width="2" d="M867.988,-338.259C882.71,-374.586 905.754,-447.981 879,-502 852.962,-554.574 828.106,-559.317 774,-582 639.01,-638.593 460.963,-644.222 385.858,-643.801"/>
<polygon fill="blue" stroke="blue" points="385.575,-640.298 375.541,-643.7 385.507,-647.298 385.575,-640.298"/>
</g>
<!-- 15&#45;&gt;3 -->
<g id="edge32" class="edge"><title>15&#45;&gt;3</title>
<path fill="none" stroke="blue" stroke-width="2" d="M854.856,-340.403C851.008,-370.274 844.51,-420.71 840.504,-451.801"/>
<polygon fill="blue" stroke="blue" points="837.006,-451.561 839.2,-461.927 843.949,-452.456 837.006,-451.561"/>
</g>
<!-- 15&#45;&gt;12 -->
<g id="edge48" class="edge"><title>15&#45;&gt;12</title>
<path fill="none" stroke="blue" stroke-width="2" d="M848.085,-338.28C831.317,-374.638 794.959,-448.074 752,-502 741.489,-515.195 727.859,-528.074 716.056,-538.241"/>
<polygon fill="blue" stroke="blue" points="713.637,-535.702 708.238,-544.818 718.144,-541.059 713.637,-535.702"/>
</g>
<!-- 16&#45;&gt;17 -->
<g id="edge10" class="edge"><title>16&#45;&gt;17</title>
<path fill="none" stroke="black" d="M836.907,-175.676C817.56,-186.777 789.252,-203.019 767.704,-215.383"/>
<polygon fill="black" stroke="black" points="765.861,-212.405 758.929,-220.418 769.344,-218.477 765.861,-212.405"/>
</g>
<!-- 16&#45;&gt;3 -->
<g id="edge34" class="edge"><title>16&#45;&gt;3</title>
<path fill="none" stroke="black" d="M871.548,-179.087C894.244,-210.194 938.237,-280.912 921,-342 908.611,-385.906 877.779,-429.617 857.118,-455.469"/>
<polygon fill="black" stroke="black" points="854.153,-453.566 850.542,-463.526 859.577,-457.992 854.153,-453.566"/>
</g>
<!-- 16&#45;&gt;15 -->
<g id="edge35" class="edge"><title>16&#45;&gt;15</title>
<path fill="none" stroke="black" d="M858.887,-180.028C858.724,-204.728 858.418,-250.942 858.211,-282.094"/>
<polygon fill="black" stroke="black" points="854.709,-282.401 858.143,-292.424 861.709,-282.448 854.709,-282.401"/>
</g>
<!-- 16&#45;&gt;14 -->
<g id="edge37" class="edge"><title>16&#45;&gt;14</title>
<path fill="none" stroke="black" d="M827.358,-167.487C769.625,-177.518 648,-207.558 592,-288 574.632,-312.949 567.665,-347.604 564.871,-371.523"/>
<polygon fill="black" stroke="black" points="561.367,-371.386 563.858,-381.684 568.333,-372.081 561.367,-371.386"/>
</g>
<!-- 16&#45;&gt;12 -->
<g id="edge49" class="edge"><title>16&#45;&gt;12</title>
<path fill="none" stroke="black" d="M879.371,-176.444C892.293,-186.002 908.341,-199.957 918,-216 935.014,-244.258 931.97,-255.262 936,-288 948.026,-385.69 950.481,-434.336 879,-502 839.221,-539.655 775.446,-552.51 733.141,-556.854"/>
<polygon fill="black" stroke="black" points="732.782,-553.372 723.14,-557.764 733.416,-560.343 732.782,-553.372"/>
</g>
<!-- 17&#45;&gt;3 -->
<g id="edge33" class="edge"><title>17&#45;&gt;3</title>
<path fill="none" stroke="black" d="M743.873,-251.771C760.964,-293.473 805.49,-402.115 826.162,-452.556"/>
<polygon fill="black" stroke="black" points="823.048,-454.186 830.078,-462.112 829.525,-451.531 823.048,-454.186"/>
</g>
<!-- 17&#45;&gt;15 -->
<g id="edge43" class="edge"><title>17&#45;&gt;15</title>
<path fill="none" stroke="black" d="M757.526,-248.401C774.281,-259.341 798.44,-275.114 818.869,-288.452"/>
<polygon fill="black" stroke="black" points="817.077,-291.462 827.364,-293.998 820.904,-285.6 817.077,-291.462"/>
</g>
<!-- 17&#45;&gt;12 -->
<g id="edge52" class="edge"><title>17&#45;&gt;12</title>
<path fill="none" stroke="black" d="M734.645,-252.193C728.813,-294.635 713.143,-407.774 699,-502 697.531,-511.79 695.855,-522.514 694.351,-531.993"/>
<polygon fill="black" stroke="black" points="690.865,-531.624 692.746,-542.05 697.778,-532.727 690.865,-531.624"/>
</g>
<!-- 17&#45;&gt;14 -->
<g id="edge57" class="edge"><title>17&#45;&gt;14</title>
<path fill="none" stroke="black" d="M709.975,-244.56C687.955,-253.335 657.012,-268.01 635,-288 608.129,-312.402 586.997,-348.973 574.758,-373.392"/>
<polygon fill="black" stroke="black" points="571.595,-371.894 570.362,-382.417 577.888,-374.96 571.595,-371.894"/>
</g>
</g>
</svg>
