<?xml version="1.0" encoding="UTF-8" standalone="no"?>
<!DOCTYPE svg PUBLIC "-//W3C//DTD SVG 1.1//EN"
 "http://www.w3.org/Graphics/SVG/1.1/DTD/svg11.dtd">
<!-- Generated by graphviz version 2.30.1 (20170916.1124)
 -->
<!-- Title: stable Pages: 1 -->
<svg width="664pt" height="541pt"
 viewBox="0.00 0.00 664.00 541.00" xmlns="http://www.w3.org/2000/svg" xmlns:xlink="http://www.w3.org/1999/xlink">
<g id="graph0" class="graph" transform="scale(1 1) rotate(0) translate(4 537)">
<title>stable</title>
<polygon fill="white" stroke="white" points="-4,5 -4,-537 661,-537 661,5 -4,5"/>
<text text-anchor="middle" x="328" y="-517.8" font-family="Times,serif" font-size="14.00">stable&#45;4.3</text>
<!-- 0 -->
<g id="node1" class="node"><title>0</title>
<ellipse fill="lightgrey" stroke="lightgrey" cx="197" cy="-22" rx="33.2948" ry="18"/>
<text text-anchor="middle" x="197" y="-18.3" font-family="Times,serif" font-size="14.00">4.2.16</text>
</g>
<!-- 10 -->
<g id="node11" class="node"><title>10</title>
<ellipse fill="lightgrey" stroke="lightgrey" cx="293" cy="-182" rx="33.2948" ry="18"/>
<text text-anchor="middle" x="293" y="-178.3" font-family="Times,serif" font-size="14.00">4.2.19</text>
</g>
<!-- 0&#45;&gt;10 -->
<g id="edge10" class="edge"><title>0&#45;&gt;10</title>
<path fill="none" stroke="black" d="M212.413,-38.5206C222.763,-49.4847 236.239,-64.8658 246,-80 261.404,-103.885 274.61,-133.629 283.066,-154.636"/>
<polygon fill="black" stroke="black" points="279.905,-156.159 286.825,-164.182 286.418,-153.595 279.905,-156.159"/>
</g>
<!-- 9 -->
<g id="node10" class="node"><title>9</title>
<polygon fill="salmon" stroke="salmon" points="160.92,-344.533 120,-356.905 79.0801,-344.533 94.7101,-324.514 145.29,-324.514 160.92,-344.533"/>
<polygon fill="none" stroke="salmon" points="167.641,-346.659 120,-361.063 72.3593,-346.659 92.7561,-320.535 147.244,-320.535 167.641,-346.659"/>
<polygon fill="none" stroke="salmon" points="174.361,-348.785 120,-365.222 65.6386,-348.785 90.802,-316.556 149.198,-316.556 174.361,-348.785"/>
<text text-anchor="middle" x="120" y="-335.3" font-family="Times,serif" font-size="14.00">4.2.21</text>
</g>
<!-- 0&#45;&gt;9 -->
<g id="edge20" class="edge"><title>0&#45;&gt;9</title>
<path fill="none" stroke="black" d="M172.21,-33.998C154.377,-43.3956 131.662,-58.778 121,-80 83.7501,-154.14 99.8837,-256.07 111.649,-306.755"/>
<polygon fill="black" stroke="black" points="108.247,-307.577 113.999,-316.475 115.051,-305.932 108.247,-307.577"/>
</g>
<!-- 15 -->
<g id="node16" class="node"><title>15</title>
<ellipse fill="lightgrey" stroke="lightgrey" cx="297" cy="-420" rx="33.2948" ry="18"/>
<text text-anchor="middle" x="297" y="-416.3" font-family="Times,serif" font-size="14.00">4.2.25</text>
</g>
<!-- 0&#45;&gt;15 -->
<g id="edge21" class="edge"><title>0&#45;&gt;15</title>
<path fill="none" stroke="black" d="M221.877,-33.9328C266.147,-55.2714 354,-106.947 354,-181 354,-181 354,-181 354,-259 354,-308.973 329.021,-362.899 312.135,-393.645"/>
<polygon fill="black" stroke="black" points="309.054,-391.983 307.19,-402.413 315.151,-395.422 309.054,-391.983"/>
</g>
<!-- 8 -->
<g id="node9" class="node"><title>8</title>
<ellipse fill="lightgrey" stroke="lightgrey" cx="249" cy="-492" rx="33.2948" ry="18"/>
<text text-anchor="middle" x="249" y="-488.3" font-family="Times,serif" font-size="14.00">4.2.26</text>
</g>
<!-- 0&#45;&gt;8 -->
<g id="edge24" class="edge"><title>0&#45;&gt;8</title>
<path fill="none" stroke="black" d="M168.355,-31.2105C113.717,-48.8241 0,-95.7262 0,-181 0,-181 0,-181 0,-340 0,-435.772 136.343,-472.488 207.248,-485.107"/>
<polygon fill="black" stroke="black" points="206.766,-488.575 217.211,-486.798 207.938,-481.674 206.766,-488.575"/>
</g>
<!-- 4 -->
<g id="node5" class="node"><title>4</title>
<ellipse fill="lightgrey" stroke="lightgrey" cx="163" cy="-102" rx="33.2948" ry="18"/>
<text text-anchor="middle" x="163" y="-98.3" font-family="Times,serif" font-size="14.00">4.2.18</text>
</g>
<!-- 0&#45;&gt;4 -->
<g id="edge32" class="edge"><title>0&#45;&gt;4</title>
<path fill="none" stroke="black" d="M189.623,-39.9248C185.137,-50.2161 179.318,-63.5652 174.265,-75.1575"/>
<polygon fill="black" stroke="black" points="171.034,-73.8106 170.246,-84.3762 177.451,-76.6078 171.034,-73.8106"/>
</g>
<!-- 11 -->
<g id="node12" class="node"><title>11</title>
<ellipse fill="lightgrey" stroke="lightgrey" cx="179" cy="-258" rx="33.2948" ry="18"/>
<text text-anchor="middle" x="179" y="-254.3" font-family="Times,serif" font-size="14.00">4.2.20</text>
</g>
<!-- 0&#45;&gt;11 -->
<g id="edge35" class="edge"><title>0&#45;&gt;11</title>
<path fill="none" stroke="black" d="M200.042,-40.145C201.887,-51.4272 204.06,-66.5425 205,-80 206.362,-99.508 206.885,-104.535 205,-124 201.397,-161.212 192.249,-203.473 185.828,-230.176"/>
<polygon fill="black" stroke="black" points="182.416,-229.394 183.435,-239.939 189.215,-231.06 182.416,-229.394"/>
</g>
<!-- 1 -->
<g id="node2" class="node"><title>1</title>
<polygon fill="lightgrey" stroke="lightgrey" points="408,-44 364,-44 364,-0 408,-0 408,-44"/>
<text text-anchor="middle" x="386" y="-18.3" font-family="Times,serif" font-size="14.00">4.3.0</text>
</g>
<!-- 5 -->
<g id="node6" class="node"><title>5</title>
<polygon fill="lightgrey" stroke="lightgrey" points="514,-124 470,-124 470,-80 514,-80 514,-124"/>
<text text-anchor="middle" x="492" y="-98.3" font-family="Times,serif" font-size="14.00">4.3.8</text>
</g>
<!-- 1&#45;&gt;5 -->
<g id="edge1" class="edge"><title>1&#45;&gt;5</title>
<path fill="none" stroke="black" d="M408.221,-39.3514C423.627,-50.6876 444.342,-65.9308 461.319,-78.4234"/>
<polygon fill="black" stroke="black" points="459.679,-81.5624 469.808,-84.6702 463.828,-75.9243 459.679,-81.5624"/>
</g>
<!-- 2 -->
<g id="node3" class="node"><title>2</title>
<polygon fill="lightgrey" stroke="lightgrey" points="539,-204 495,-204 495,-160 539,-160 539,-204"/>
<text text-anchor="middle" x="517" y="-178.3" font-family="Times,serif" font-size="14.00">4.3.9</text>
</g>
<!-- 1&#45;&gt;2 -->
<g id="edge14" class="edge"><title>1&#45;&gt;2</title>
<path fill="none" stroke="black" d="M395.49,-44.2035C405.757,-65.7281 423.567,-99.3108 445,-124 457.031,-137.858 472.799,-150.778 486.512,-160.802"/>
<polygon fill="black" stroke="black" points="484.556,-163.705 494.733,-166.651 488.614,-158.002 484.556,-163.705"/>
</g>
<!-- 3 -->
<g id="node4" class="node"><title>3</title>
<polygon fill="lightgrey" stroke="lightgrey" points="470,-44 426,-44 426,-0 470,-0 470,-44"/>
<text text-anchor="middle" x="448" y="-18.3" font-family="Times,serif" font-size="14.00">4.3.1</text>
</g>
<!-- 3&#45;&gt;2 -->
<g id="edge9" class="edge"><title>3&#45;&gt;2</title>
<path fill="none" stroke="black" d="M446.898,-44.2233C446.65,-65.4647 448.638,-98.5572 461,-124 467.184,-136.727 477.33,-148.361 487.299,-157.753"/>
<polygon fill="black" stroke="black" points="485.033,-160.421 494.82,-164.479 489.699,-155.204 485.033,-160.421"/>
</g>
<!-- 3&#45;&gt;5 -->
<g id="edge33" class="edge"><title>3&#45;&gt;5</title>
<path fill="none" stroke="black" d="M460.023,-44.3138C464.669,-52.5492 470.067,-62.1195 475.091,-71.0254"/>
<polygon fill="black" stroke="black" points="472.182,-72.9918 480.144,-79.982 478.279,-69.5526 472.182,-72.9918"/>
</g>
<!-- 4&#45;&gt;8 -->
<g id="edge4" class="edge"><title>4&#45;&gt;8</title>
<path fill="none" stroke="black" d="M147.754,-118.237C108.603,-159.282 10.7584,-275.192 57,-366 88.1082,-427.089 164.357,-462.58 210.864,-479.251"/>
<polygon fill="black" stroke="black" points="209.997,-482.655 220.591,-482.62 212.287,-476.04 209.997,-482.655"/>
</g>
<!-- 4&#45;&gt;15 -->
<g id="edge15" class="edge"><title>4&#45;&gt;15</title>
<path fill="none" stroke="black" d="M170.178,-119.786C185.339,-155.255 221.721,-240.451 252,-312 263.662,-339.557 276.935,-371.144 286.026,-392.815"/>
<polygon fill="black" stroke="black" points="282.913,-394.442 290.008,-402.31 289.368,-391.734 282.913,-394.442"/>
</g>
<!-- 4&#45;&gt;11 -->
<g id="edge23" class="edge"><title>4&#45;&gt;11</title>
<path fill="none" stroke="black" d="M164.773,-120.069C167.525,-146.549 172.847,-197.776 176.144,-229.514"/>
<polygon fill="black" stroke="black" points="172.704,-230.27 177.219,-239.854 179.666,-229.546 172.704,-230.27"/>
</g>
<!-- 4&#45;&gt;10 -->
<g id="edge31" class="edge"><title>4&#45;&gt;10</title>
<path fill="none" stroke="black" d="M184.467,-115.88C205.825,-128.695 238.789,-148.474 262.786,-162.872"/>
<polygon fill="black" stroke="black" points="261.126,-165.957 271.501,-168.101 264.727,-159.955 261.126,-165.957"/>
</g>
<!-- 4&#45;&gt;9 -->
<g id="edge36" class="edge"><title>4&#45;&gt;9</title>
<path fill="none" stroke="black" d="M159.629,-120.285C154.585,-146.253 144.83,-196.886 137,-240 132.991,-262.076 128.672,-286.99 125.39,-306.172"/>
<polygon fill="black" stroke="black" points="121.914,-305.739 123.683,-316.185 128.814,-306.916 121.914,-305.739"/>
</g>
<!-- 5&#45;&gt;2 -->
<g id="edge25" class="edge"><title>5&#45;&gt;2</title>
<path fill="none" stroke="black" d="M498.831,-124.314C501.388,-132.289 504.345,-141.516 507.122,-150.18"/>
<polygon fill="black" stroke="black" points="503.878,-151.527 510.263,-159.982 510.544,-149.391 503.878,-151.527"/>
</g>
<!-- 6 -->
<g id="node7" class="node"><title>6</title>
<polygon fill="lightgrey" stroke="lightgrey" points="532,-44 488,-44 488,-0 532,-0 532,-44"/>
<text text-anchor="middle" x="510" y="-18.3" font-family="Times,serif" font-size="14.00">4.3.5</text>
</g>
<!-- 6&#45;&gt;2 -->
<g id="edge19" class="edge"><title>6&#45;&gt;2</title>
<path fill="none" stroke="black" d="M516.023,-44.1886C518.745,-54.8369 521.649,-67.9974 523,-80 525.615,-103.23 523.89,-129.602 521.63,-149.572"/>
<polygon fill="black" stroke="black" points="518.136,-149.31 520.382,-159.664 525.083,-150.169 518.136,-149.31"/>
</g>
<!-- 6&#45;&gt;5 -->
<g id="edge28" class="edge"><title>6&#45;&gt;5</title>
<path fill="none" stroke="black" d="M505.081,-44.3138C503.241,-52.2892 501.112,-61.5164 499.112,-70.1798"/>
<polygon fill="black" stroke="black" points="495.689,-69.451 496.85,-79.982 502.509,-71.0251 495.689,-69.451"/>
</g>
<!-- 7 -->
<g id="node8" class="node"><title>7</title>
<ellipse fill="lightgrey" stroke="lightgrey" cx="415" cy="-339" rx="33.2948" ry="18"/>
<text text-anchor="middle" x="415" y="-335.3" font-family="Times,serif" font-size="14.00">4.2.22</text>
</g>
<!-- 7&#45;&gt;15 -->
<g id="edge8" class="edge"><title>7&#45;&gt;15</title>
<path fill="none" stroke="black" d="M394.983,-353.401C375.912,-366.169 347.005,-385.522 325.525,-399.903"/>
<polygon fill="black" stroke="black" points="323.478,-397.061 317.115,-405.533 327.372,-402.878 323.478,-397.061"/>
</g>
<!-- 7&#45;&gt;8 -->
<g id="edge18" class="edge"><title>7&#45;&gt;8</title>
<path fill="none" stroke="black" d="M405.031,-356.465C391.839,-377.289 366.962,-413.392 339,-438 322.076,-452.894 300.363,-465.822 282.504,-475.181"/>
<polygon fill="black" stroke="black" points="280.881,-472.08 273.562,-479.741 284.061,-478.316 280.881,-472.08"/>
</g>
<!-- 9&#45;&gt;15 -->
<g id="edge6" class="edge"><title>9&#45;&gt;15</title>
<path fill="none" stroke="blue" stroke-width="2" d="M153.709,-355.045C185.069,-369.042 231.562,-389.793 263.012,-403.83"/>
<polygon fill="blue" stroke="blue" points="261.697,-407.076 272.256,-407.956 264.551,-400.684 261.697,-407.076"/>
</g>
<!-- 9&#45;&gt;8 -->
<g id="edge22" class="edge"><title>9&#45;&gt;8</title>
<path fill="none" stroke="blue" stroke-width="2" d="M132.662,-361.38C145.372,-382.02 166.155,-413.641 188,-438 198.477,-449.682 211.443,-461.274 222.724,-470.624"/>
<polygon fill="blue" stroke="blue" points="220.611,-473.417 230.58,-477.005 225.025,-467.984 220.611,-473.417"/>
</g>
<!-- 10&#45;&gt;8 -->
<g id="edge3" class="edge"><title>10&#45;&gt;8</title>
<path fill="none" stroke="black" d="M322.713,-190.007C400.02,-209.742 597.609,-270.64 541,-366 489.03,-453.545 360.149,-479.831 292.321,-487.684"/>
<polygon fill="black" stroke="black" points="291.55,-484.246 281.98,-488.792 292.296,-491.206 291.55,-484.246"/>
</g>
<!-- 10&#45;&gt;11 -->
<g id="edge16" class="edge"><title>10&#45;&gt;11</title>
<path fill="none" stroke="black" d="M272.619,-196.23C254.655,-207.89 228.277,-225.013 208.094,-238.114"/>
<polygon fill="black" stroke="black" points="206.071,-235.255 199.589,-243.635 209.882,-241.126 206.071,-235.255"/>
</g>
<!-- 10&#45;&gt;9 -->
<g id="edge30" class="edge"><title>10&#45;&gt;9</title>
<path fill="none" stroke="black" d="M283.054,-199.238C270.384,-219.021 246.989,-252.682 221,-276 203.416,-291.776 181.289,-305.872 162.23,-316.622"/>
<polygon fill="black" stroke="black" points="160.503,-313.578 153.436,-321.472 163.883,-319.708 160.503,-313.578"/>
</g>
<!-- 10&#45;&gt;15 -->
<g id="edge34" class="edge"><title>10&#45;&gt;15</title>
<path fill="none" stroke="black" d="M293.294,-200.354C293.984,-241.028 295.708,-342.768 296.539,-391.774"/>
<polygon fill="black" stroke="black" points="293.042,-392 296.711,-401.939 300.041,-391.881 293.042,-392"/>
</g>
<!-- 11&#45;&gt;8 -->
<g id="edge11" class="edge"><title>11&#45;&gt;8</title>
<path fill="none" stroke="black" d="M184.147,-276.06C196.207,-316.031 226.368,-415.992 240.91,-464.187"/>
<polygon fill="black" stroke="black" points="237.606,-465.353 243.845,-473.915 244.307,-463.331 237.606,-465.353"/>
</g>
<!-- 11&#45;&gt;9 -->
<g id="edge27" class="edge"><title>11&#45;&gt;9</title>
<path fill="none" stroke="black" d="M167.06,-274.987C159.977,-284.472 150.769,-296.801 142.379,-308.035"/>
<polygon fill="black" stroke="black" points="139.35,-306.241 136.171,-316.348 144.959,-310.43 139.35,-306.241"/>
</g>
<!-- 11&#45;&gt;15 -->
<g id="edge29" class="edge"><title>11&#45;&gt;15</title>
<path fill="none" stroke="black" d="M190.746,-274.926C211.509,-303.079 254.803,-361.784 279.234,-394.91"/>
<polygon fill="black" stroke="black" points="276.55,-397.167 285.302,-403.138 282.183,-393.013 276.55,-397.167"/>
</g>
<!-- 12 -->
<g id="node13" class="node"><title>12</title>
<ellipse fill="lightgrey" stroke="lightgrey" cx="499" cy="-339" rx="33.2948" ry="18"/>
<text text-anchor="middle" x="499" y="-335.3" font-family="Times,serif" font-size="14.00">4.2.23</text>
</g>
<!-- 12&#45;&gt;15 -->
<g id="edge5" class="edge"><title>12&#45;&gt;15</title>
<path fill="none" stroke="black" d="M479.03,-353.69C472.23,-357.988 464.459,-362.515 457,-366 417.238,-384.578 369.147,-399.58 336.135,-408.818"/>
<polygon fill="black" stroke="black" points="335.112,-405.47 326.4,-411.498 336.97,-412.219 335.112,-405.47"/>
</g>
<!-- 12&#45;&gt;8 -->
<g id="edge12" class="edge"><title>12&#45;&gt;8</title>
<path fill="none" stroke="black" d="M482.231,-354.655C458.287,-375.098 412.384,-412.526 369,-438 342.072,-453.811 309.567,-467.889 285.182,-477.555"/>
<polygon fill="black" stroke="black" points="283.646,-474.397 275.602,-481.292 286.19,-480.918 283.646,-474.397"/>
</g>
<!-- 13 -->
<g id="node14" class="node"><title>13</title>
<polygon fill="lightgrey" stroke="lightgrey" points="594,-44 550,-44 550,-0 594,-0 594,-44"/>
<text text-anchor="middle" x="572" y="-18.3" font-family="Times,serif" font-size="14.00">4.3.2</text>
</g>
<!-- 13&#45;&gt;5 -->
<g id="edge2" class="edge"><title>13&#45;&gt;5</title>
<path fill="none" stroke="black" d="M550.14,-44.3138C541.071,-53.1561 530.423,-63.5371 520.736,-72.9825"/>
<polygon fill="black" stroke="black" points="518.274,-70.4949 513.557,-79.982 523.16,-75.507 518.274,-70.4949"/>
</g>
<!-- 13&#45;&gt;2 -->
<g id="edge7" class="edge"><title>13&#45;&gt;2</title>
<path fill="none" stroke="black" d="M564.65,-44.2886C557.584,-64.7345 546.593,-96.489 537,-124 534.022,-132.541 530.78,-141.797 527.791,-150.317"/>
<polygon fill="black" stroke="black" points="524.439,-149.298 524.428,-159.893 531.043,-151.617 524.439,-149.298"/>
</g>
<!-- 14 -->
<g id="node15" class="node"><title>14</title>
<polygon fill="lightgrey" stroke="lightgrey" points="656,-44 612,-44 612,-0 656,-0 656,-44"/>
<text text-anchor="middle" x="634" y="-18.3" font-family="Times,serif" font-size="14.00">4.3.3</text>
</g>
<!-- 14&#45;&gt;5 -->
<g id="edge13" class="edge"><title>14&#45;&gt;5</title>
<path fill="none" stroke="black" d="M611.858,-38.47C608.914,-40.3873 605.908,-42.2769 603,-44 576.745,-59.5568 545.772,-75.2529 523.225,-86.224"/>
<polygon fill="black" stroke="black" points="521.599,-83.1223 514.116,-90.6225 524.643,-89.4259 521.599,-83.1223"/>
</g>
<!-- 14&#45;&gt;2 -->
<g id="edge17" class="edge"><title>14&#45;&gt;2</title>
<path fill="none" stroke="black" d="M618.221,-44.3086C597.753,-71.9495 561.942,-120.308 538.864,-151.474"/>
<polygon fill="black" stroke="black" points="535.854,-149.658 532.716,-159.777 541.479,-153.824 535.854,-149.658"/>
</g>
<!-- 15&#45;&gt;8 -->
<g id="edge26" class="edge"><title>15&#45;&gt;8</title>
<path fill="none" stroke="black" d="M285.867,-437.235C279.93,-445.894 272.502,-456.727 265.871,-466.396"/>
<polygon fill="black" stroke="black" points="262.841,-464.626 260.072,-474.853 268.614,-468.585 262.841,-464.626"/>
</g>
</g>
</svg>
