<?xml version="1.0" encoding="UTF-8" standalone="no"?>
<!DOCTYPE svg PUBLIC "-//W3C//DTD SVG 1.1//EN"
 "http://www.w3.org/Graphics/SVG/1.1/DTD/svg11.dtd">
<!-- Generated by graphviz version 2.30.1 (20170916.1124)
 -->
<!-- Title: stable Pages: 1 -->
<svg width="616pt" height="461pt"
 viewBox="0.00 0.00 616.00 461.00" xmlns="http://www.w3.org/2000/svg" xmlns:xlink="http://www.w3.org/1999/xlink">
<g id="graph0" class="graph" transform="scale(1 1) rotate(0) translate(4 457)">
<title>stable</title>
<polygon fill="white" stroke="white" points="-4,5 -4,-457 613,-457 613,5 -4,5"/>
<text text-anchor="middle" x="304" y="-437.8" font-family="Times,serif" font-size="14.00">stable&#45;4.3</text>
<!-- 0 -->
<g id="node1" class="node"><title>0</title>
<ellipse fill="lightgrey" stroke="lightgrey" cx="33" cy="-340" rx="33.2948" ry="18"/>
<text text-anchor="middle" x="33" y="-336.3" font-family="Times,serif" font-size="14.00">4.2.22</text>
</g>
<!-- 7 -->
<g id="node8" class="node"><title>7</title>
<ellipse fill="lightgrey" stroke="lightgrey" cx="193" cy="-412" rx="33.2948" ry="18"/>
<text text-anchor="middle" x="193" y="-408.3" font-family="Times,serif" font-size="14.00">4.2.25</text>
</g>
<!-- 0&#45;&gt;7 -->
<g id="edge4" class="edge"><title>0&#45;&gt;7</title>
<path fill="none" stroke="black" d="M58,-351.938C85.0439,-363.769 128.34,-382.711 158.587,-395.944"/>
<polygon fill="black" stroke="black" points="157.348,-399.222 167.912,-400.024 160.153,-392.809 157.348,-399.222"/>
</g>
<!-- 1 -->
<g id="node2" class="node"><title>1</title>
<polygon fill="lightgrey" stroke="lightgrey" points="360,-44 316,-44 316,-0 360,-0 360,-44"/>
<text text-anchor="middle" x="338" y="-18.3" font-family="Times,serif" font-size="14.00">4.3.1</text>
</g>
<!-- 10 -->
<g id="node11" class="node"><title>10</title>
<polygon fill="lightgrey" stroke="lightgrey" points="484,-124 440,-124 440,-80 484,-80 484,-124"/>
<text text-anchor="middle" x="462" y="-98.3" font-family="Times,serif" font-size="14.00">4.3.8</text>
</g>
<!-- 1&#45;&gt;10 -->
<g id="edge13" class="edge"><title>1&#45;&gt;10</title>
<path fill="none" stroke="black" d="M360.27,-38.2634C363.193,-40.2144 366.159,-42.1684 369,-44 389.331,-57.1068 412.526,-71.325 430.667,-82.2823"/>
<polygon fill="black" stroke="black" points="429.278,-85.5315 439.65,-87.6918 432.889,-79.5348 429.278,-85.5315"/>
</g>
<!-- 2 -->
<g id="node3" class="node"><title>2</title>
<ellipse fill="lightgrey" stroke="lightgrey" cx="262" cy="-102" rx="33.2948" ry="18"/>
<text text-anchor="middle" x="262" y="-98.3" font-family="Times,serif" font-size="14.00">4.2.18</text>
</g>
<!-- 4 -->
<g id="node5" class="node"><title>4</title>
<ellipse fill="lightgrey" stroke="lightgrey" cx="199" cy="-178" rx="33.2948" ry="18"/>
<text text-anchor="middle" x="199" y="-174.3" font-family="Times,serif" font-size="14.00">4.2.19</text>
</g>
<!-- 2&#45;&gt;4 -->
<g id="edge5" class="edge"><title>2&#45;&gt;4</title>
<path fill="none" stroke="black" d="M248.639,-118.693C240.036,-128.799 228.695,-142.121 219.024,-153.479"/>
<polygon fill="black" stroke="black" points="216.159,-151.446 212.341,-161.329 221.489,-155.984 216.159,-151.446"/>
</g>
<!-- 6 -->
<g id="node7" class="node"><title>6</title>
<polygon fill="salmon" stroke="salmon" points="216.92,-264.533 176,-276.905 135.08,-264.533 150.71,-244.514 201.29,-244.514 216.92,-264.533"/>
<polygon fill="none" stroke="salmon" points="223.641,-266.659 176,-281.063 128.359,-266.659 148.756,-240.535 203.244,-240.535 223.641,-266.659"/>
<polygon fill="none" stroke="salmon" points="230.361,-268.785 176,-285.222 121.639,-268.785 146.802,-236.556 205.198,-236.556 230.361,-268.785"/>
<text text-anchor="middle" x="176" y="-255.3" font-family="Times,serif" font-size="14.00">4.2.20</text>
</g>
<!-- 2&#45;&gt;6 -->
<g id="edge12" class="edge"><title>2&#45;&gt;6</title>
<path fill="none" stroke="black" d="M261.092,-120.185C259.412,-139.702 254.628,-171.95 241,-196 233.885,-208.556 223.421,-220.136 212.958,-229.804"/>
<polygon fill="black" stroke="black" points="210.563,-227.249 205.387,-236.494 215.199,-232.495 210.563,-227.249"/>
</g>
<!-- 9 -->
<g id="node10" class="node"><title>9</title>
<ellipse fill="lightgrey" stroke="lightgrey" cx="193" cy="-340" rx="33.2948" ry="18"/>
<text text-anchor="middle" x="193" y="-336.3" font-family="Times,serif" font-size="14.00">4.2.21</text>
</g>
<!-- 2&#45;&gt;9 -->
<g id="edge20" class="edge"><title>2&#45;&gt;9</title>
<path fill="none" stroke="black" d="M265.913,-120.034C272.743,-153.792 283.639,-230.694 256,-286 248.888,-300.232 236.049,-312.108 223.809,-320.986"/>
<polygon fill="black" stroke="black" points="221.799,-318.12 215.509,-326.645 225.743,-323.903 221.799,-318.12"/>
</g>
<!-- 2&#45;&gt;7 -->
<g id="edge22" class="edge"><title>2&#45;&gt;7</title>
<path fill="none" stroke="black" d="M273.383,-119.163C301.956,-161.904 370.83,-279.97 319,-358 300.442,-385.939 263.97,-399.183 235.021,-405.442"/>
<polygon fill="black" stroke="black" points="234.278,-402.021 225.136,-407.377 235.623,-408.89 234.278,-402.021"/>
</g>
<!-- 3 -->
<g id="node4" class="node"><title>3</title>
<polygon fill="lightgrey" stroke="lightgrey" points="422,-44 378,-44 378,-0 422,-0 422,-44"/>
<text text-anchor="middle" x="400" y="-18.3" font-family="Times,serif" font-size="14.00">4.3.2</text>
</g>
<!-- 3&#45;&gt;10 -->
<g id="edge17" class="edge"><title>3&#45;&gt;10</title>
<path fill="none" stroke="black" d="M416.942,-44.3138C423.763,-52.896 431.737,-62.9278 439.065,-72.1467"/>
<polygon fill="black" stroke="black" points="436.331,-74.3316 445.293,-79.982 441.811,-69.9759 436.331,-74.3316"/>
</g>
<!-- 4&#45;&gt;6 -->
<g id="edge1" class="edge"><title>4&#45;&gt;6</title>
<path fill="none" stroke="black" d="M194.009,-196.142C191.406,-205.083 188.14,-216.303 185.106,-226.724"/>
<polygon fill="black" stroke="black" points="181.732,-225.791 182.297,-236.37 188.453,-227.747 181.732,-225.791"/>
</g>
<!-- 4&#45;&gt;7 -->
<g id="edge8" class="edge"><title>4&#45;&gt;7</title>
<path fill="none" stroke="black" d="M171.09,-187.895C150.984,-195.936 125.312,-209.95 113,-232 82.6073,-286.431 136.648,-354.597 169.867,-388.986"/>
<polygon fill="black" stroke="black" points="167.478,-391.547 177.002,-396.189 172.451,-386.621 167.478,-391.547"/>
</g>
<!-- 4&#45;&gt;9 -->
<g id="edge15" class="edge"><title>4&#45;&gt;9</title>
<path fill="none" stroke="black" d="M214.661,-194.103C223.683,-203.931 234.166,-217.571 239,-232 246.624,-254.757 247.396,-263.517 239,-286 234.648,-297.653 226.452,-308.441 218.169,-317.2"/>
<polygon fill="black" stroke="black" points="215.598,-314.82 210.962,-324.346 220.527,-319.79 215.598,-314.82"/>
</g>
<!-- 5 -->
<g id="node6" class="node"><title>5</title>
<polygon fill="lightgrey" stroke="lightgrey" points="484,-44 440,-44 440,-0 484,-0 484,-44"/>
<text text-anchor="middle" x="462" y="-18.3" font-family="Times,serif" font-size="14.00">4.3.3</text>
</g>
<!-- 5&#45;&gt;10 -->
<g id="edge14" class="edge"><title>5&#45;&gt;10</title>
<path fill="none" stroke="black" d="M462,-44.3138C462,-52.2025 462,-61.316 462,-69.8971"/>
<polygon fill="black" stroke="black" points="458.5,-69.982 462,-79.982 465.5,-69.982 458.5,-69.982"/>
</g>
<!-- 6&#45;&gt;7 -->
<g id="edge11" class="edge"><title>6&#45;&gt;7</title>
<path fill="none" stroke="blue" stroke-width="2" d="M163.217,-281.724C153.103,-301.793 142.051,-332.297 151,-358 154.902,-369.205 162.268,-379.823 169.756,-388.571"/>
<polygon fill="blue" stroke="blue" points="167.246,-391.013 176.571,-396.043 172.418,-386.296 167.246,-391.013"/>
</g>
<!-- 6&#45;&gt;9 -->
<g id="edge19" class="edge"><title>6&#45;&gt;9</title>
<path fill="none" stroke="blue" stroke-width="2" d="M181.101,-283.703C183.033,-292.684 185.247,-302.971 187.237,-312.217"/>
<polygon fill="blue" stroke="blue" points="183.835,-313.049 189.361,-322.089 190.679,-311.576 183.835,-313.049"/>
</g>
<!-- 8 -->
<g id="node9" class="node"><title>8</title>
<ellipse fill="lightgrey" stroke="lightgrey" cx="277" cy="-340" rx="33.2948" ry="18"/>
<text text-anchor="middle" x="277" y="-336.3" font-family="Times,serif" font-size="14.00">4.2.23</text>
</g>
<!-- 8&#45;&gt;7 -->
<g id="edge18" class="edge"><title>8&#45;&gt;7</title>
<path fill="none" stroke="black" d="M259.595,-355.504C247.657,-365.453 231.624,-378.813 218.282,-389.932"/>
<polygon fill="black" stroke="black" points="215.824,-387.424 210.383,-396.515 220.305,-392.801 215.824,-387.424"/>
</g>
<!-- 9&#45;&gt;7 -->
<g id="edge21" class="edge"><title>9&#45;&gt;7</title>
<path fill="none" stroke="black" d="M193,-358.303C193,-366.017 193,-375.288 193,-383.888"/>
<polygon fill="black" stroke="black" points="189.5,-383.896 193,-393.896 196.5,-383.896 189.5,-383.896"/>
</g>
<!-- 11 -->
<g id="node12" class="node"><title>11</title>
<polygon fill="lightgrey" stroke="lightgrey" points="546,-44 502,-44 502,-0 546,-0 546,-44"/>
<text text-anchor="middle" x="524" y="-18.3" font-family="Times,serif" font-size="14.00">4.3.0</text>
</g>
<!-- 11&#45;&gt;10 -->
<g id="edge2" class="edge"><title>11&#45;&gt;10</title>
<path fill="none" stroke="black" d="M507.058,-44.3138C500.237,-52.896 492.263,-62.9278 484.935,-72.1467"/>
<polygon fill="black" stroke="black" points="482.189,-69.9759 478.707,-79.982 487.669,-74.3316 482.189,-69.9759"/>
</g>
<!-- 12 -->
<g id="node13" class="node"><title>12</title>
<ellipse fill="lightgrey" stroke="lightgrey" cx="262" cy="-22" rx="33.2948" ry="18"/>
<text text-anchor="middle" x="262" y="-18.3" font-family="Times,serif" font-size="14.00">4.2.16</text>
</g>
<!-- 12&#45;&gt;9 -->
<g id="edge3" class="edge"><title>12&#45;&gt;9</title>
<path fill="none" stroke="black" d="M277.593,-38.3627C287.253,-49.024 298.781,-64.1184 304,-80 322.566,-136.495 307.085,-240.729 277,-286 265.485,-303.328 246.164,-316.095 228.955,-324.752"/>
<polygon fill="black" stroke="black" points="227.217,-321.702 219.674,-329.141 230.21,-328.03 227.217,-321.702"/>
</g>
<!-- 12&#45;&gt;6 -->
<g id="edge6" class="edge"><title>12&#45;&gt;6</title>
<path fill="none" stroke="black" d="M244.36,-37.2671C231.626,-48.1266 214.537,-63.9038 202,-80 176.933,-112.185 167.337,-120.537 157,-160 151.203,-182.129 156.435,-207.49 162.864,-226.869"/>
<polygon fill="black" stroke="black" points="159.614,-228.176 166.283,-236.408 166.204,-225.814 159.614,-228.176"/>
</g>
<!-- 12&#45;&gt;2 -->
<g id="edge9" class="edge"><title>12&#45;&gt;2</title>
<path fill="none" stroke="black" d="M262,-40.3107C262,-50.1062 262,-62.5782 262,-73.665"/>
<polygon fill="black" stroke="black" points="258.5,-73.7376 262,-83.7377 265.5,-73.7377 258.5,-73.7376"/>
</g>
<!-- 12&#45;&gt;4 -->
<g id="edge10" class="edge"><title>12&#45;&gt;4</title>
<path fill="none" stroke="black" d="M247.905,-38.3128C238.64,-49.1841 226.981,-64.5398 220,-80 209.903,-102.363 204.541,-129.862 201.771,-149.863"/>
<polygon fill="black" stroke="black" points="198.29,-149.488 200.516,-159.847 205.236,-150.361 198.29,-149.488"/>
</g>
<!-- 12&#45;&gt;7 -->
<g id="edge16" class="edge"><title>12&#45;&gt;7</title>
<path fill="none" stroke="black" d="M286.769,-34.2897C329.374,-55.6057 412,-106.087 412,-177 412,-177 412,-177 412,-260 412,-345.744 296.809,-386.541 233.511,-402.486"/>
<polygon fill="black" stroke="black" points="232.347,-399.166 223.451,-404.921 233.994,-405.97 232.347,-399.166"/>
</g>
<!-- 13 -->
<g id="node14" class="node"><title>13</title>
<polygon fill="lightgrey" stroke="lightgrey" points="608,-44 564,-44 564,-0 608,-0 608,-44"/>
<text text-anchor="middle" x="586" y="-18.3" font-family="Times,serif" font-size="14.00">4.3.5</text>
</g>
<!-- 13&#45;&gt;10 -->
<g id="edge7" class="edge"><title>13&#45;&gt;10</title>
<path fill="none" stroke="black" d="M563.73,-38.2634C560.807,-40.2144 557.841,-42.1684 555,-44 534.669,-57.1068 511.474,-71.325 493.333,-82.2823"/>
<polygon fill="black" stroke="black" points="491.111,-79.5348 484.35,-87.6918 494.722,-85.5315 491.111,-79.5348"/>
</g>
</g>
</svg>
