<?xml version="1.0" encoding="UTF-8" standalone="no"?>
<!DOCTYPE svg PUBLIC "-//W3C//DTD SVG 1.1//EN"
 "http://www.w3.org/Graphics/SVG/1.1/DTD/svg11.dtd">
<!-- Generated by graphviz version 2.30.1 (20170916.1124)
 -->
<!-- Title: stable Pages: 1 -->
<svg width="1785pt" height="1445pt"
 viewBox="0.00 0.00 1784.95 1445.00" xmlns="http://www.w3.org/2000/svg" xmlns:xlink="http://www.w3.org/1999/xlink">
<g id="graph0" class="graph" transform="scale(1 1) rotate(0) translate(4 1441)">
<title>stable</title>
<polygon fill="white" stroke="white" points="-4,5 -4,-1441 1781.95,-1441 1781.95,5 -4,5"/>
<text text-anchor="middle" x="888.473" y="-1421.8" font-family="Times,serif" font-size="14.00">stable&#45;4.2</text>
<!-- 0 -->
<g id="node1" class="node"><title>0</title>
<ellipse fill="lightgrey" stroke="lightgrey" cx="1601.95" cy="-948" rx="33.2948" ry="18"/>
<text text-anchor="middle" x="1601.95" y="-944.3" font-family="Times,serif" font-size="14.00">4.1.30</text>
</g>
<!-- 8 -->
<g id="node9" class="node"><title>8</title>
<ellipse fill="lightgrey" stroke="lightgrey" cx="1350.95" cy="-1212" rx="33.2948" ry="18"/>
<text text-anchor="middle" x="1350.95" y="-1208.3" font-family="Times,serif" font-size="14.00">4.1.38</text>
</g>
<!-- 0&#45;&gt;8 -->
<g id="edge15" class="edge"><title>0&#45;&gt;8</title>
<path fill="none" stroke="black" d="M1597.37,-966.161C1590.46,-989.66 1575.62,-1032.32 1551.95,-1062 1504.13,-1121.95 1426.67,-1170.08 1383.19,-1194.18"/>
<polygon fill="black" stroke="black" points="1381.3,-1191.22 1374.2,-1199.09 1384.65,-1197.37 1381.3,-1191.22"/>
</g>
<!-- 15 -->
<g id="node16" class="node"><title>15</title>
<ellipse fill="lightgrey" stroke="lightgrey" cx="1312.95" cy="-1124" rx="33.2948" ry="18"/>
<text text-anchor="middle" x="1312.95" y="-1120.3" font-family="Times,serif" font-size="14.00">4.1.34</text>
</g>
<!-- 0&#45;&gt;15 -->
<g id="edge42" class="edge"><title>0&#45;&gt;15</title>
<path fill="none" stroke="black" d="M1593.19,-965.427C1579.25,-990.033 1549.68,-1036.31 1511.95,-1062 1463.93,-1094.69 1397.76,-1110.38 1355.16,-1117.53"/>
<polygon fill="black" stroke="black" points="1354.45,-1114.1 1345.12,-1119.13 1355.55,-1121.01 1354.45,-1114.1"/>
</g>
<!-- 29 -->
<g id="node30" class="node"><title>29</title>
<ellipse fill="lightgrey" stroke="lightgrey" cx="1469.95" cy="-1036" rx="33.2948" ry="18"/>
<text text-anchor="middle" x="1469.95" y="-1032.3" font-family="Times,serif" font-size="14.00">4.1.31</text>
</g>
<!-- 0&#45;&gt;29 -->
<g id="edge53" class="edge"><title>0&#45;&gt;29</title>
<path fill="none" stroke="black" d="M1581.61,-962.249C1559.58,-976.6 1524.24,-999.624 1499.23,-1015.92"/>
<polygon fill="black" stroke="black" points="1496.99,-1013.2 1490.52,-1021.59 1500.81,-1019.07 1496.99,-1013.2"/>
</g>
<!-- 1 -->
<g id="node2" class="node"><title>1</title>
<ellipse fill="lightgrey" stroke="lightgrey" cx="1563.95" cy="-772" rx="33.2948" ry="18"/>
<text text-anchor="middle" x="1563.95" y="-768.3" font-family="Times,serif" font-size="14.00">4.1.28</text>
</g>
<!-- 1&#45;&gt;29 -->
<g id="edge7" class="edge"><title>1&#45;&gt;29</title>
<path fill="none" stroke="black" d="M1558.55,-789.794C1547.33,-824.451 1520.41,-906.317 1494.95,-974 1490.6,-985.564 1485.47,-998.223 1480.99,-1009"/>
<polygon fill="black" stroke="black" points="1477.74,-1007.7 1477.11,-1018.27 1484.2,-1010.4 1477.74,-1007.7"/>
</g>
<!-- 1&#45;&gt;0 -->
<g id="edge9" class="edge"><title>1&#45;&gt;0</title>
<path fill="none" stroke="black" d="M1567.66,-790.001C1574.27,-820.277 1588.13,-883.755 1596.06,-920.038"/>
<polygon fill="black" stroke="black" points="1592.67,-920.907 1598.22,-929.93 1599.5,-919.414 1592.67,-920.907"/>
</g>
<!-- 1&#45;&gt;15 -->
<g id="edge17" class="edge"><title>1&#45;&gt;15</title>
<path fill="none" stroke="black" d="M1553.5,-789.302C1545.64,-801.583 1534.6,-818.84 1524.95,-834 1510.24,-857.086 1507.54,-863.505 1491.95,-886 1436.43,-966.082 1365.33,-1057.08 1331.91,-1099.24"/>
<polygon fill="black" stroke="black" points="1329.04,-1097.23 1325.56,-1107.24 1334.52,-1101.59 1329.04,-1097.23"/>
</g>
<!-- 10 -->
<g id="node11" class="node"><title>10</title>
<ellipse fill="lightgrey" stroke="lightgrey" cx="1449.95" cy="-860" rx="33.2948" ry="18"/>
<text text-anchor="middle" x="1449.95" y="-856.3" font-family="Times,serif" font-size="14.00">4.1.29</text>
</g>
<!-- 1&#45;&gt;10 -->
<g id="edge80" class="edge"><title>1&#45;&gt;10</title>
<path fill="none" stroke="black" d="M1545.38,-787.009C1526.74,-801.064 1497.86,-822.856 1476.75,-838.783"/>
<polygon fill="black" stroke="black" points="1474.38,-836.181 1468.51,-844.997 1478.6,-841.769 1474.38,-836.181"/>
</g>
<!-- 1&#45;&gt;8 -->
<g id="edge116" class="edge"><title>1&#45;&gt;8</title>
<path fill="none" stroke="black" d="M1579.85,-788.117C1607.84,-816.432 1662.95,-880.617 1662.95,-947 1662.95,-947 1662.95,-947 1662.95,-1037 1662.95,-1158.9 1479.03,-1196.19 1393.61,-1206.93"/>
<polygon fill="black" stroke="black" points="1392.97,-1203.48 1383.45,-1208.14 1393.8,-1210.43 1392.97,-1203.48"/>
</g>
<!-- 2 -->
<g id="node3" class="node"><title>2</title>
<polygon fill="lightgrey" stroke="lightgrey" points="372.446,-797.5 321.446,-797.5 321.446,-746.5 372.446,-746.5 372.446,-797.5"/>
<text text-anchor="middle" x="346.946" y="-768.3" font-family="Times,serif" font-size="14.00">4.2.14</text>
</g>
<!-- 24 -->
<g id="node25" class="node"><title>24</title>
<polygon fill="lightgrey" stroke="lightgrey" points="638.446,-1149.5 587.446,-1149.5 587.446,-1098.5 638.446,-1098.5 638.446,-1149.5"/>
<text text-anchor="middle" x="612.946" y="-1120.3" font-family="Times,serif" font-size="14.00">4.2.20</text>
</g>
<!-- 2&#45;&gt;24 -->
<g id="edge59" class="edge"><title>2&#45;&gt;24</title>
<path fill="none" stroke="black" d="M372.307,-783.327C395.773,-793.727 430.734,-811.444 455.946,-834 536.402,-905.978 583.651,-1029.27 602.86,-1088.82"/>
<polygon fill="black" stroke="black" points="599.565,-1090.01 605.913,-1098.49 606.241,-1087.9 599.565,-1090.01"/>
</g>
<!-- 25 -->
<g id="node26" class="node"><title>25</title>
<polygon fill="lightgrey" stroke="lightgrey" points="562.446,-1061.5 511.446,-1061.5 511.446,-1010.5 562.446,-1010.5 562.446,-1061.5"/>
<text text-anchor="middle" x="536.946" y="-1032.3" font-family="Times,serif" font-size="14.00">4.2.19</text>
</g>
<!-- 2&#45;&gt;25 -->
<g id="edge81" class="edge"><title>2&#45;&gt;25</title>
<path fill="none" stroke="black" d="M372.348,-793.542C404.007,-820.27 458.065,-869.761 491.946,-922 507.761,-946.383 519.578,-977.21 527.125,-1000.5"/>
<polygon fill="black" stroke="black" points="523.865,-1001.81 530.193,-1010.31 530.545,-999.717 523.865,-1001.81"/>
</g>
<!-- 11 -->
<g id="node12" class="node"><title>11</title>
<polygon fill="lightgrey" stroke="lightgrey" points="372.446,-885.5 321.446,-885.5 321.446,-834.5 372.446,-834.5 372.446,-885.5"/>
<text text-anchor="middle" x="346.946" y="-856.3" font-family="Times,serif" font-size="14.00">4.2.16</text>
</g>
<!-- 2&#45;&gt;11 -->
<g id="edge96" class="edge"><title>2&#45;&gt;11</title>
<path fill="none" stroke="black" d="M346.946,-797.875C346.946,-806.147 346.946,-815.514 346.946,-824.386"/>
<polygon fill="black" stroke="black" points="343.446,-824.478 346.946,-834.478 350.446,-824.478 343.446,-824.478"/>
</g>
<!-- 5 -->
<g id="node6" class="node"><title>5</title>
<polygon fill="lightgrey" stroke="lightgrey" points="519.446,-1413.5 468.446,-1413.5 468.446,-1362.5 519.446,-1362.5 519.446,-1413.5"/>
<text text-anchor="middle" x="493.946" y="-1384.3" font-family="Times,serif" font-size="14.00">4.2.26</text>
</g>
<!-- 2&#45;&gt;5 -->
<g id="edge115" class="edge"><title>2&#45;&gt;5</title>
<path fill="none" stroke="black" d="M321.423,-776.36C252.006,-787.069 64.9463,-827.054 64.9463,-947 64.9463,-947 64.9463,-947 64.9463,-1213 64.9463,-1277.48 100.496,-1293.09 155.946,-1326 206.877,-1356.23 382.299,-1376.28 458.333,-1383.74"/>
<polygon fill="black" stroke="black" points="458.088,-1387.23 468.378,-1384.71 458.761,-1380.26 458.088,-1387.23"/>
</g>
<!-- 4 -->
<g id="node5" class="node"><title>4</title>
<polygon fill="lightgrey" stroke="lightgrey" points="492.446,-1325.5 441.446,-1325.5 441.446,-1274.5 492.446,-1274.5 492.446,-1325.5"/>
<text text-anchor="middle" x="466.946" y="-1296.3" font-family="Times,serif" font-size="14.00">4.2.25</text>
</g>
<!-- 2&#45;&gt;4 -->
<g id="edge121" class="edge"><title>2&#45;&gt;4</title>
<path fill="none" stroke="black" d="M324.977,-797.587C317.039,-808.051 309.032,-820.863 304.946,-834 274.69,-931.297 299.056,-964.59 328.946,-1062 354.152,-1144.14 360.898,-1166.77 408.946,-1238 416.232,-1248.8 425.479,-1259.48 434.437,-1268.81"/>
<polygon fill="black" stroke="black" points="431.999,-1271.32 441.516,-1275.98 436.98,-1266.4 431.999,-1271.32"/>
</g>
<!-- 22 -->
<g id="node23" class="node"><title>22</title>
<polygon fill="lightgrey" stroke="lightgrey" points="448.446,-973.5 397.446,-973.5 397.446,-922.5 448.446,-922.5 448.446,-973.5"/>
<text text-anchor="middle" x="422.946" y="-944.3" font-family="Times,serif" font-size="14.00">4.2.18</text>
</g>
<!-- 2&#45;&gt;22 -->
<g id="edge125" class="edge"><title>2&#45;&gt;22</title>
<path fill="none" stroke="black" d="M361.888,-797.779C368.169,-808.688 375.31,-821.779 380.946,-834 392.859,-859.826 403.959,-890.074 411.752,-912.773"/>
<polygon fill="black" stroke="black" points="408.462,-913.968 414.987,-922.315 415.091,-911.721 408.462,-913.968"/>
</g>
<!-- 14 -->
<g id="node15" class="node"><title>14</title>
<polygon fill="lightgrey" stroke="lightgrey" points="638.446,-1237.5 587.446,-1237.5 587.446,-1186.5 638.446,-1186.5 638.446,-1237.5"/>
<text text-anchor="middle" x="612.946" y="-1208.3" font-family="Times,serif" font-size="14.00">4.2.21</text>
</g>
<!-- 2&#45;&gt;14 -->
<g id="edge141" class="edge"><title>2&#45;&gt;14</title>
<path fill="none" stroke="black" d="M328.969,-797.521C322.227,-808.173 315.374,-821.14 311.946,-834 305.995,-856.332 308.225,-863.19 311.946,-886 332.526,-1012.14 325.276,-1071.26 425.946,-1150 471.105,-1185.32 537.458,-1200.55 577.785,-1206.85"/>
<polygon fill="black" stroke="black" points="577.292,-1210.31 587.693,-1208.3 578.305,-1203.39 577.292,-1210.31"/>
</g>
<!-- 3 -->
<g id="node4" class="node"><title>3</title>
<polygon fill="salmon" stroke="salmon" points="473.866,-512.533 432.946,-524.905 392.026,-512.533 407.656,-492.514 458.236,-492.514 473.866,-512.533"/>
<polygon fill="none" stroke="salmon" points="480.587,-514.659 432.946,-529.063 385.306,-514.659 405.702,-488.535 460.19,-488.535 480.587,-514.659"/>
<polygon fill="none" stroke="salmon" points="487.308,-516.785 432.946,-533.222 378.585,-516.785 403.748,-484.556 462.144,-484.556 487.308,-516.785"/>
<text text-anchor="middle" x="432.946" y="-503.3" font-family="Times,serif" font-size="14.00">4.2.10</text>
</g>
<!-- 3&#45;&gt;25 -->
<g id="edge56" class="edge"><title>3&#45;&gt;25</title>
<path fill="none" stroke="blue" stroke-width="2" d="M438.282,-531.726C452.413,-594.962 491.6,-772.897 518.946,-922 523.742,-948.145 528.442,-977.831 531.836,-1000.21"/>
<polygon fill="blue" stroke="blue" points="528.398,-1000.89 533.346,-1010.25 535.32,-999.845 528.398,-1000.89"/>
</g>
<!-- 3&#45;&gt;11 -->
<g id="edge60" class="edge"><title>3&#45;&gt;11</title>
<path fill="none" stroke="blue" stroke-width="2" d="M429.615,-532.507C421.205,-593.126 398.534,-748.745 380.946,-798 377.618,-807.322 372.954,-816.902 368.146,-825.627"/>
<polygon fill="blue" stroke="blue" points="365.074,-823.949 363.133,-834.364 371.145,-827.433 365.074,-823.949"/>
</g>
<!-- 3&#45;&gt;14 -->
<g id="edge95" class="edge"><title>3&#45;&gt;14</title>
<path fill="none" stroke="blue" stroke-width="2" d="M383.346,-518.308C317.498,-534.951 203.747,-574.684 153.946,-658 142.089,-677.837 148.739,-687.483 153.946,-710 202.985,-922.057 199.791,-1013.03 368.946,-1150 429.934,-1199.38 525.543,-1209.49 577.107,-1211.13"/>
<polygon fill="blue" stroke="blue" points="577.337,-1214.64 587.414,-1211.37 577.496,-1207.64 577.337,-1214.64"/>
</g>
<!-- 3&#45;&gt;2 -->
<g id="edge100" class="edge"><title>3&#45;&gt;2</title>
<path fill="none" stroke="blue" stroke-width="2" d="M414.205,-527.575C404.389,-539.028 393.148,-554.292 386.946,-570 363.946,-628.251 386.095,-649.233 370.946,-710 368.726,-718.906 365.523,-728.254 362.176,-736.883"/>
<polygon fill="blue" stroke="blue" points="358.89,-735.674 358.382,-746.256 365.378,-738.3 358.89,-735.674"/>
</g>
<!-- 6 -->
<g id="node7" class="node"><title>6</title>
<polygon fill="lightgrey" stroke="lightgrey" points="816.446,-709.5 765.446,-709.5 765.446,-658.5 816.446,-658.5 816.446,-709.5"/>
<text text-anchor="middle" x="790.946" y="-680.3" font-family="Times,serif" font-size="14.00">4.2.13</text>
</g>
<!-- 3&#45;&gt;6 -->
<g id="edge107" class="edge"><title>3&#45;&gt;6</title>
<path fill="none" stroke="blue" stroke-width="2" d="M474.887,-520.547C510.304,-531.745 561.968,-549.509 604.946,-570 645.264,-589.223 652.685,-598.954 690.946,-622 717.586,-638.045 724.426,-641.758 750.946,-658 752.876,-659.182 754.854,-660.399 756.849,-661.631"/>
<polygon fill="blue" stroke="blue" points="755.255,-664.761 765.597,-667.06 758.946,-658.813 755.255,-664.761"/>
</g>
<!-- 3&#45;&gt;22 -->
<g id="edge122" class="edge"><title>3&#45;&gt;22</title>
<path fill="none" stroke="blue" stroke-width="2" d="M432.373,-533.179C430.677,-607.609 425.686,-826.723 423.738,-912.247"/>
<polygon fill="blue" stroke="blue" points="420.234,-912.388 423.505,-922.465 427.232,-912.548 420.234,-912.388"/>
</g>
<!-- 13 -->
<g id="node14" class="node"><title>13</title>
<polygon fill="lightgrey" stroke="lightgrey" points="860.446,-621.5 809.446,-621.5 809.446,-570.5 860.446,-570.5 860.446,-621.5"/>
<text text-anchor="middle" x="834.946" y="-592.3" font-family="Times,serif" font-size="14.00">4.2.12</text>
</g>
<!-- 3&#45;&gt;13 -->
<g id="edge129" class="edge"><title>3&#45;&gt;13</title>
<path fill="none" stroke="blue" stroke-width="2" d="M481.838,-518.581C564.006,-536.364 727.846,-571.822 799.744,-587.382"/>
<polygon fill="blue" stroke="blue" points="799.15,-590.834 809.664,-589.528 800.63,-583.992 799.15,-590.834"/>
</g>
<!-- 3&#45;&gt;24 -->
<g id="edge133" class="edge"><title>3&#45;&gt;24</title>
<path fill="none" stroke="blue" stroke-width="2" d="M446.065,-529.248C452.921,-540.967 461.082,-555.953 466.946,-570 545.554,-758.289 555.279,-810.472 597.946,-1010 603.484,-1035.9 607.331,-1065.59 609.741,-1088.04"/>
<polygon fill="blue" stroke="blue" points="606.273,-1088.53 610.78,-1098.12 613.236,-1087.81 606.273,-1088.53"/>
</g>
<!-- 4&#45;&gt;5 -->
<g id="edge12" class="edge"><title>4&#45;&gt;5</title>
<path fill="none" stroke="black" d="M474.756,-1325.87C477.381,-1334.24 480.358,-1343.72 483.17,-1352.68"/>
<polygon fill="black" stroke="black" points="479.913,-1353.99 486.248,-1362.48 486.591,-1351.89 479.913,-1353.99"/>
</g>
<!-- 6&#45;&gt;11 -->
<g id="edge6" class="edge"><title>6&#45;&gt;11</title>
<path fill="none" stroke="black" d="M765.48,-694.98C690.073,-724.531 467.832,-811.626 381.651,-845.399"/>
<polygon fill="black" stroke="black" points="380.343,-842.153 372.31,-849.06 382.897,-848.67 380.343,-842.153"/>
</g>
<!-- 6&#45;&gt;14 -->
<g id="edge54" class="edge"><title>6&#45;&gt;14</title>
<path fill="none" stroke="black" d="M806.593,-709.808C844.721,-773.73 934.051,-947.085 859.946,-1062 800.581,-1154.06 738.536,-1125.91 646.946,-1186 646.858,-1186.06 646.77,-1186.12 646.682,-1186.17"/>
<polygon fill="black" stroke="black" points="644.639,-1183.33 638.359,-1191.86 648.589,-1189.11 644.639,-1183.33"/>
</g>
<!-- 6&#45;&gt;25 -->
<g id="edge62" class="edge"><title>6&#45;&gt;25</title>
<path fill="none" stroke="black" d="M780.409,-709.858C753.727,-772.007 682.792,-932.157 642.946,-974 622.96,-994.988 594.151,-1010.94 571.61,-1021.25"/>
<polygon fill="black" stroke="black" points="570.112,-1018.09 562.377,-1025.33 572.939,-1024.49 570.112,-1018.09"/>
</g>
<!-- 6&#45;&gt;24 -->
<g id="edge73" class="edge"><title>6&#45;&gt;24</title>
<path fill="none" stroke="black" d="M793.306,-709.793C795.66,-732.757 799.682,-767.815 804.946,-798 825.219,-914.237 904.368,-968.08 832.946,-1062 810.643,-1091.33 704.69,-1110.23 648.359,-1118.38"/>
<polygon fill="black" stroke="black" points="647.863,-1114.92 638.449,-1119.78 648.84,-1121.85 647.863,-1114.92"/>
</g>
<!-- 6&#45;&gt;2 -->
<g id="edge94" class="edge"><title>6&#45;&gt;2</title>
<path fill="none" stroke="black" d="M765.645,-690.669C742.175,-695.877 706.254,-703.716 674.946,-710 568.874,-731.289 442.975,-753.986 382.65,-764.703"/>
<polygon fill="black" stroke="black" points="381.747,-761.308 372.512,-766.501 382.969,-768.201 381.747,-761.308"/>
</g>
<!-- 6&#45;&gt;22 -->
<g id="edge124" class="edge"><title>6&#45;&gt;22</title>
<path fill="none" stroke="black" d="M765.8,-709.509C716.856,-756.881 609.835,-858.75 566.946,-886 532.254,-908.042 488.236,-925.346 458.053,-935.808"/>
<polygon fill="black" stroke="black" points="456.726,-932.563 448.382,-939.091 458.976,-939.191 456.726,-932.563"/>
</g>
<!-- 7 -->
<g id="node8" class="node"><title>7</title>
<polygon fill="lightgrey" stroke="lightgrey" points="258.446,-1237.5 207.446,-1237.5 207.446,-1186.5 258.446,-1186.5 258.446,-1237.5"/>
<text text-anchor="middle" x="232.946" y="-1208.3" font-family="Times,serif" font-size="14.00">4.2.23</text>
</g>
<!-- 7&#45;&gt;5 -->
<g id="edge10" class="edge"><title>7&#45;&gt;5</title>
<path fill="none" stroke="black" d="M258.447,-1230C305.713,-1261.51 406.925,-1328.99 459.952,-1364.34"/>
<polygon fill="black" stroke="black" points="458.08,-1367.3 468.342,-1369.93 461.963,-1361.47 458.08,-1367.3"/>
</g>
<!-- 7&#45;&gt;4 -->
<g id="edge24" class="edge"><title>7&#45;&gt;4</title>
<path fill="none" stroke="black" d="M258.229,-1230.14C263.001,-1232.98 268.037,-1235.74 272.946,-1238 326.342,-1262.59 392.348,-1281 431.973,-1290.86"/>
<polygon fill="black" stroke="black" points="431.15,-1294.27 441.695,-1293.24 432.814,-1287.47 431.15,-1294.27"/>
</g>
<!-- 8&#45;&gt;4 -->
<g id="edge46" class="edge"><title>8&#45;&gt;4</title>
<path fill="none" stroke="black" d="M1318.7,-1216.14C1181.32,-1229.5 645.361,-1281.64 502.243,-1295.57"/>
<polygon fill="black" stroke="black" points="501.863,-1292.09 492.249,-1296.54 502.541,-1299.05 501.863,-1292.09"/>
</g>
<!-- 8&#45;&gt;5 -->
<g id="edge105" class="edge"><title>8&#45;&gt;5</title>
<path fill="none" stroke="black" d="M1320.45,-1219.19C1188.82,-1245.92 669.744,-1351.31 529.199,-1379.84"/>
<polygon fill="black" stroke="black" points="528.475,-1376.42 519.371,-1381.84 529.868,-1383.28 528.475,-1376.42"/>
</g>
<!-- 9 -->
<g id="node10" class="node"><title>9</title>
<polygon fill="lightgrey" stroke="lightgrey" points="214.446,-709.5 163.446,-709.5 163.446,-658.5 214.446,-658.5 214.446,-709.5"/>
<text text-anchor="middle" x="188.946" y="-680.3" font-family="Times,serif" font-size="14.00">4.2.11</text>
</g>
<!-- 9&#45;&gt;2 -->
<g id="edge48" class="edge"><title>9&#45;&gt;2</title>
<path fill="none" stroke="black" d="M214.581,-701.45C219.317,-704.367 224.25,-707.324 228.946,-710 256.542,-725.722 288.597,-742.182 312.326,-754.036"/>
<polygon fill="black" stroke="black" points="310.794,-757.182 321.306,-758.5 313.91,-750.914 310.794,-757.182"/>
</g>
<!-- 9&#45;&gt;11 -->
<g id="edge63" class="edge"><title>9&#45;&gt;11</title>
<path fill="none" stroke="black" d="M211.249,-709.561C239.048,-740.175 286.643,-792.59 317.438,-826.504"/>
<polygon fill="black" stroke="black" points="315.188,-829.233 324.502,-834.283 320.371,-824.527 315.188,-829.233"/>
</g>
<!-- 10&#45;&gt;0 -->
<g id="edge4" class="edge"><title>10&#45;&gt;0</title>
<path fill="none" stroke="black" d="M1472.05,-873.505C1498.05,-888.218 1541.4,-912.744 1570.8,-929.379"/>
<polygon fill="black" stroke="black" points="1569.39,-932.602 1579.82,-934.48 1572.84,-926.509 1569.39,-932.602"/>
</g>
<!-- 10&#45;&gt;29 -->
<g id="edge5" class="edge"><title>10&#45;&gt;29</title>
<path fill="none" stroke="black" d="M1460.19,-877.359C1467,-889.244 1475.33,-905.986 1478.95,-922 1485.48,-950.968 1481.19,-985.045 1476.56,-1008.14"/>
<polygon fill="black" stroke="black" points="1473.13,-1007.41 1474.44,-1017.93 1479.98,-1008.89 1473.13,-1007.41"/>
</g>
<!-- 10&#45;&gt;15 -->
<g id="edge27" class="edge"><title>10&#45;&gt;15</title>
<path fill="none" stroke="black" d="M1428.83,-874.059C1412.35,-885.133 1389.83,-902.326 1374.95,-922 1334.79,-975.062 1320.39,-1054.42 1315.42,-1095.76"/>
<polygon fill="black" stroke="black" points="1311.92,-1095.56 1314.3,-1105.88 1318.88,-1096.33 1311.92,-1095.56"/>
</g>
<!-- 10&#45;&gt;8 -->
<g id="edge35" class="edge"><title>10&#45;&gt;8</title>
<path fill="none" stroke="black" d="M1445.17,-877.881C1429.26,-934.121 1377.98,-1115.43 1358.52,-1184.21"/>
<polygon fill="black" stroke="black" points="1355.14,-1183.3 1355.79,-1193.88 1361.88,-1185.21 1355.14,-1183.3"/>
</g>
<!-- 11&#45;&gt;25 -->
<g id="edge1" class="edge"><title>11&#45;&gt;25</title>
<path fill="none" stroke="black" d="M372.573,-871.246C396.277,-881.59 431.574,-899.269 456.946,-922 470.818,-934.428 497.211,-973.218 515.883,-1001.9"/>
<polygon fill="black" stroke="black" points="513.035,-1003.94 521.407,-1010.44 518.912,-1000.14 513.035,-1003.94"/>
</g>
<!-- 11&#45;&gt;14 -->
<g id="edge19" class="edge"><title>11&#45;&gt;14</title>
<path fill="none" stroke="black" d="M347.94,-885.728C349.404,-908.949 353.022,-944.445 361.946,-974 374.529,-1015.67 380.732,-1025.83 404.946,-1062 434.018,-1105.43 441.093,-1118.7 482.946,-1150 512.107,-1171.81 550.312,-1188.59 577.747,-1198.98"/>
<polygon fill="black" stroke="black" points="576.738,-1202.34 587.331,-1202.52 579.161,-1195.77 576.738,-1202.34"/>
</g>
<!-- 11&#45;&gt;24 -->
<g id="edge61" class="edge"><title>11&#45;&gt;24</title>
<path fill="none" stroke="black" d="M353.378,-885.823C360.078,-909.425 371.852,-945.46 387.946,-974 412.631,-1017.77 418.474,-1032.21 458.946,-1062 495.256,-1088.73 544.852,-1105.6 577.842,-1114.66"/>
<polygon fill="black" stroke="black" points="576.951,-1118.04 587.514,-1117.22 578.745,-1111.28 576.951,-1118.04"/>
</g>
<!-- 11&#45;&gt;5 -->
<g id="edge72" class="edge"><title>11&#45;&gt;5</title>
<path fill="none" stroke="black" d="M321.687,-880.656C266.679,-923.678 140.946,-1023.3 140.946,-1035 140.946,-1035 140.946,-1035 140.946,-1213 140.946,-1353.5 368.725,-1380.56 458.34,-1385.76"/>
<polygon fill="black" stroke="black" points="458.391,-1389.27 468.559,-1386.29 458.755,-1382.28 458.391,-1389.27"/>
</g>
<!-- 11&#45;&gt;22 -->
<g id="edge127" class="edge"><title>11&#45;&gt;22</title>
<path fill="none" stroke="black" d="M368.929,-885.875C376.954,-894.956 386.146,-905.358 394.644,-914.974"/>
<polygon fill="black" stroke="black" points="392.031,-917.303 401.276,-922.478 397.276,-912.667 392.031,-917.303"/>
</g>
<!-- 11&#45;&gt;4 -->
<g id="edge140" class="edge"><title>11&#45;&gt;4</title>
<path fill="none" stroke="black" d="M345.418,-885.812C344.416,-908.79 343.937,-943.856 347.946,-974 362.769,-1085.43 419.481,-1207.57 448.941,-1265.25"/>
<polygon fill="black" stroke="black" points="445.9,-1266.99 453.595,-1274.27 452.12,-1263.78 445.9,-1266.99"/>
</g>
<!-- 12 -->
<g id="node13" class="node"><title>12</title>
<polygon fill="lightgrey" stroke="lightgrey" points="764.946,-44 720.946,-44 720.946,-0 764.946,-0 764.946,-44"/>
<text text-anchor="middle" x="742.946" y="-18.3" font-family="Times,serif" font-size="14.00">4.2.0</text>
</g>
<!-- 18 -->
<g id="node19" class="node"><title>18</title>
<polygon fill="lightgrey" stroke="lightgrey" points="535.946,-124 491.946,-124 491.946,-80 535.946,-80 535.946,-124"/>
<text text-anchor="middle" x="513.946" y="-98.3" font-family="Times,serif" font-size="14.00">4.2.2</text>
</g>
<!-- 12&#45;&gt;18 -->
<g id="edge22" class="edge"><title>12&#45;&gt;18</title>
<path fill="none" stroke="black" d="M720.572,-30.621C679.68,-44.5491 592.769,-74.152 545.747,-90.1683"/>
<polygon fill="black" stroke="black" points="544.412,-86.9255 536.074,-93.4629 546.669,-93.5517 544.412,-86.9255"/>
</g>
<!-- 21 -->
<g id="node22" class="node"><title>21</title>
<polygon fill="lightgrey" stroke="lightgrey" points="235.946,-284 191.946,-284 191.946,-240 235.946,-240 235.946,-284"/>
<text text-anchor="middle" x="213.946" y="-258.3" font-family="Times,serif" font-size="14.00">4.2.7</text>
</g>
<!-- 12&#45;&gt;21 -->
<g id="edge36" class="edge"><title>12&#45;&gt;21</title>
<path fill="none" stroke="black" d="M720.883,-22.651C645.941,-22.6722 398.157,-32.8009 259.946,-160 239.66,-178.67 227.681,-208.022 221.06,-230.283"/>
<polygon fill="black" stroke="black" points="217.679,-229.376 218.384,-239.948 224.425,-231.244 217.679,-229.376"/>
</g>
<!-- 28 -->
<g id="node29" class="node"><title>28</title>
<polygon fill="lightgrey" stroke="lightgrey" points="700.946,-444 656.946,-444 656.946,-400 700.946,-400 700.946,-444"/>
<text text-anchor="middle" x="678.946" y="-418.3" font-family="Times,serif" font-size="14.00">4.2.9</text>
</g>
<!-- 12&#45;&gt;28 -->
<g id="edge51" class="edge"><title>12&#45;&gt;28</title>
<path fill="none" stroke="black" d="M751.38,-44.0792C762.575,-74.0114 780.946,-130.781 780.946,-181 780.946,-181 780.946,-181 780.946,-263 780.946,-316.878 738.565,-366.946 708.44,-395.73"/>
<polygon fill="black" stroke="black" points="706.016,-393.204 701.079,-402.578 710.784,-398.329 706.016,-393.204"/>
</g>
<!-- 23 -->
<g id="node24" class="node"><title>23</title>
<polygon fill="lightgrey" stroke="lightgrey" points="369.946,-364 325.946,-364 325.946,-320 369.946,-320 369.946,-364"/>
<text text-anchor="middle" x="347.946" y="-338.3" font-family="Times,serif" font-size="14.00">4.2.8</text>
</g>
<!-- 12&#45;&gt;23 -->
<g id="edge64" class="edge"><title>12&#45;&gt;23</title>
<path fill="none" stroke="black" d="M720.863,-40.7785C654.084,-94.5398 454.194,-255.464 377.947,-316.847"/>
<polygon fill="black" stroke="black" points="375.712,-314.153 370.118,-323.151 380.102,-319.606 375.712,-314.153"/>
</g>
<!-- 12&#45;&gt;3 -->
<g id="edge83" class="edge"><title>12&#45;&gt;3</title>
<path fill="none" stroke="black" d="M729.427,-44.0645C680.135,-120.864 509.945,-386.031 452.25,-475.924"/>
<polygon fill="black" stroke="black" points="449.169,-474.245 446.713,-484.551 455.06,-478.026 449.169,-474.245"/>
</g>
<!-- 12&#45;&gt;13 -->
<g id="edge98" class="edge"><title>12&#45;&gt;13</title>
<path fill="none" stroke="black" d="M765.114,-29.68C815.233,-46.3054 932.946,-94.5539 932.946,-181 932.946,-181 932.946,-181 932.946,-423 932.946,-477.336 895.568,-530.161 866.98,-562.616"/>
<polygon fill="black" stroke="black" points="864.038,-560.652 859.929,-570.417 869.231,-565.345 864.038,-560.652"/>
</g>
<!-- 12&#45;&gt;6 -->
<g id="edge106" class="edge"><title>12&#45;&gt;6</title>
<path fill="none" stroke="black" d="M765.168,-25.4842C829.098,-33.9816 1008.95,-67.9343 1008.95,-181 1008.95,-181 1008.95,-181 1008.95,-508 1008.95,-600.637 887.755,-652.42 826.094,-672.771"/>
<polygon fill="black" stroke="black" points="824.838,-669.498 816.38,-675.88 826.971,-676.165 824.838,-669.498"/>
</g>
<!-- 13&#45;&gt;2 -->
<g id="edge11" class="edge"><title>13&#45;&gt;2</title>
<path fill="none" stroke="black" d="M809.51,-606.348C756.369,-625.847 629.648,-672.188 522.946,-710 474.257,-727.254 417.808,-746.725 382.237,-758.929"/>
<polygon fill="black" stroke="black" points="380.666,-755.768 372.342,-762.322 382.936,-762.389 380.666,-755.768"/>
</g>
<!-- 13&#45;&gt;14 -->
<g id="edge21" class="edge"><title>13&#45;&gt;14</title>
<path fill="none" stroke="black" d="M860.388,-609.729C879.074,-620.288 903.753,-636.959 918.946,-658 943.021,-691.342 1008.95,-859.99 1008.95,-947 1008.95,-947 1008.95,-947 1008.95,-1037 1008.95,-1207.76 811.974,-1115.68 647.562,-1186.58"/>
<polygon fill="black" stroke="black" points="645.944,-1183.47 638.274,-1190.78 648.828,-1189.85 645.944,-1183.47"/>
</g>
<!-- 13&#45;&gt;25 -->
<g id="edge32" class="edge"><title>13&#45;&gt;25</title>
<path fill="none" stroke="black" d="M842.208,-621.633C847.899,-644.787 853.674,-680.238 845.946,-710 828.196,-778.366 686.39,-964.547 674.946,-974 644.373,-999.255 601.701,-1015.97 571.93,-1025.42"/>
<polygon fill="black" stroke="black" points="570.903,-1022.07 562.365,-1028.34 572.951,-1028.77 570.903,-1022.07"/>
</g>
<!-- 13&#45;&gt;11 -->
<g id="edge70" class="edge"><title>13&#45;&gt;11</title>
<path fill="none" stroke="black" d="M809.695,-610.826C768.029,-633.326 681.919,-678.513 605.946,-710 559.983,-729.049 541.519,-718.666 499.946,-746 473.916,-763.115 477.189,-778.435 452.946,-798 430.925,-815.772 403.103,-831.573 381.488,-842.638"/>
<polygon fill="black" stroke="black" points="379.707,-839.616 372.339,-847.23 382.847,-845.872 379.707,-839.616"/>
</g>
<!-- 13&#45;&gt;6 -->
<g id="edge108" class="edge"><title>13&#45;&gt;6</title>
<path fill="none" stroke="black" d="M822.22,-621.875C817.803,-630.506 812.777,-640.331 808.065,-649.54"/>
<polygon fill="black" stroke="black" points="804.931,-647.981 803.492,-658.478 811.163,-651.17 804.931,-647.981"/>
</g>
<!-- 13&#45;&gt;24 -->
<g id="edge112" class="edge"><title>13&#45;&gt;24</title>
<path fill="none" stroke="black" d="M859.676,-621.646C888.708,-653.32 932.946,-711.367 932.946,-771 932.946,-771 932.946,-771 932.946,-861 932.946,-956.043 930.625,-998.458 859.946,-1062 828.959,-1089.86 709.485,-1109.79 648.784,-1118.34"/>
<polygon fill="black" stroke="black" points="647.945,-1114.92 638.518,-1119.76 648.903,-1121.86 647.945,-1114.92"/>
</g>
<!-- 13&#45;&gt;22 -->
<g id="edge123" class="edge"><title>13&#45;&gt;22</title>
<path fill="none" stroke="black" d="M838.013,-621.878C839.798,-645.845 839.369,-682.427 824.946,-710 768.346,-818.21 720.988,-827.221 613.946,-886 563.25,-913.839 497.903,-931.237 458.279,-940.02"/>
<polygon fill="black" stroke="black" points="457.34,-936.642 448.301,-942.17 458.814,-943.485 457.34,-936.642"/>
</g>
<!-- 14&#45;&gt;5 -->
<g id="edge20" class="edge"><title>14&#45;&gt;5</title>
<path fill="none" stroke="black" d="M596.149,-1237.56C575.388,-1267.92 539.968,-1319.71 516.76,-1353.64"/>
<polygon fill="black" stroke="black" points="513.607,-1352.05 510.851,-1362.28 519.385,-1356 513.607,-1352.05"/>
</g>
<!-- 14&#45;&gt;4 -->
<g id="edge118" class="edge"><title>14&#45;&gt;4</title>
<path fill="none" stroke="black" d="M587.64,-1229.01C582.782,-1232.03 577.721,-1235.14 572.946,-1238 549.156,-1252.27 522.037,-1267.87 501.184,-1279.72"/>
<polygon fill="black" stroke="black" points="499.343,-1276.74 492.37,-1284.71 502.795,-1282.83 499.343,-1276.74"/>
</g>
<!-- 15&#45;&gt;14 -->
<g id="edge28" class="edge"><title>15&#45;&gt;14</title>
<path fill="none" stroke="black" d="M1280.74,-1128.32C1232.83,-1133.23 1139.96,-1142.65 1060.95,-1150 971.96,-1158.28 748.4,-1153.75 648.068,-1186.66"/>
<polygon fill="black" stroke="black" points="646.715,-1183.43 638.465,-1190.07 649.059,-1190.02 646.715,-1183.43"/>
</g>
<!-- 15&#45;&gt;8 -->
<g id="edge89" class="edge"><title>15&#45;&gt;8</title>
<path fill="none" stroke="black" d="M1320.27,-1141.58C1325.71,-1153.88 1333.22,-1170.87 1339.45,-1184.97"/>
<polygon fill="black" stroke="black" points="1336.27,-1186.44 1343.51,-1194.18 1342.67,-1183.61 1336.27,-1186.44"/>
</g>
<!-- 16 -->
<g id="node17" class="node"><title>16</title>
<polygon fill="lightgrey" stroke="lightgrey" points="707.446,-1237.5 656.446,-1237.5 656.446,-1186.5 707.446,-1186.5 707.446,-1237.5"/>
<text text-anchor="middle" x="681.946" y="-1208.3" font-family="Times,serif" font-size="14.00">4.2.22</text>
</g>
<!-- 16&#45;&gt;5 -->
<g id="edge26" class="edge"><title>16&#45;&gt;5</title>
<path fill="none" stroke="black" d="M658.111,-1237.91C635.469,-1261.26 600.19,-1296.84 567.946,-1326 554.959,-1337.74 540.153,-1350.14 527.215,-1360.66"/>
<polygon fill="black" stroke="black" points="525.011,-1357.94 519.433,-1366.95 529.411,-1363.38 525.011,-1357.94"/>
</g>
<!-- 16&#45;&gt;4 -->
<g id="edge119" class="edge"><title>16&#45;&gt;4</title>
<path fill="none" stroke="black" d="M656.494,-1232.46C653.36,-1234.47 650.136,-1236.37 646.946,-1238 599.168,-1262.48 539.413,-1280.48 502.205,-1290.35"/>
<polygon fill="black" stroke="black" points="501.133,-1287.02 492.337,-1292.92 502.896,-1293.79 501.133,-1287.02"/>
</g>
<!-- 17 -->
<g id="node18" class="node"><title>17</title>
<polygon fill="lightgrey" stroke="lightgrey" points="457.946,-204 413.946,-204 413.946,-160 457.946,-160 457.946,-204"/>
<text text-anchor="middle" x="435.946" y="-178.3" font-family="Times,serif" font-size="14.00">4.2.4</text>
</g>
<!-- 17&#45;&gt;11 -->
<g id="edge13" class="edge"><title>17&#45;&gt;11</title>
<path fill="none" stroke="black" d="M413.68,-192.757C359.002,-218.009 218.006,-291.214 154.946,-400 116.679,-466.015 140.588,-494.307 130.946,-570 118.077,-671.031 80.05,-727.912 153.946,-798 192.497,-834.564 217.285,-817.985 267.946,-834 282.406,-838.571 298.352,-843.616 312.109,-847.971"/>
<polygon fill="black" stroke="black" points="311.097,-851.321 321.687,-851.002 313.209,-844.648 311.097,-851.321"/>
</g>
<!-- 17&#45;&gt;28 -->
<g id="edge23" class="edge"><title>17&#45;&gt;28</title>
<path fill="none" stroke="black" d="M454.222,-204.085C473.756,-225.821 506.342,-259.853 538.946,-284 565.797,-303.886 579.802,-297.995 604.946,-320 628.277,-340.418 648.58,-369.434 661.988,-391.131"/>
<polygon fill="black" stroke="black" points="659.137,-393.182 667.3,-399.935 665.131,-389.565 659.137,-393.182"/>
</g>
<!-- 17&#45;&gt;21 -->
<g id="edge39" class="edge"><title>17&#45;&gt;21</title>
<path fill="none" stroke="black" d="M413.815,-188.921C379.64,-198.314 312.192,-217.851 256.946,-240 253.042,-241.565 249.001,-243.332 245.029,-245.161"/>
<polygon fill="black" stroke="black" points="243.506,-242.009 235.985,-249.471 246.518,-248.328 243.506,-242.009"/>
</g>
<!-- 17&#45;&gt;2 -->
<g id="edge43" class="edge"><title>17&#45;&gt;2</title>
<path fill="none" stroke="black" d="M430.199,-204.057C417.238,-252.406 385.644,-375.265 369.946,-480 356.179,-571.858 350.336,-681.345 348.127,-736.134"/>
<polygon fill="black" stroke="black" points="344.621,-736.213 347.732,-746.341 351.616,-736.484 344.621,-736.213"/>
</g>
<!-- 17&#45;&gt;23 -->
<g id="edge66" class="edge"><title>17&#45;&gt;23</title>
<path fill="none" stroke="black" d="M413.741,-203.283C403.572,-213.505 392.017,-226.566 383.946,-240 370.825,-261.841 361.443,-289.2 355.554,-309.932"/>
<polygon fill="black" stroke="black" points="352.113,-309.246 352.866,-319.814 358.868,-311.083 352.113,-309.246"/>
</g>
<!-- 17&#45;&gt;3 -->
<g id="edge85" class="edge"><title>17&#45;&gt;3</title>
<path fill="none" stroke="black" d="M435.749,-204.193C435.236,-259.499 433.852,-408.453 433.242,-474.14"/>
<polygon fill="black" stroke="black" points="429.741,-474.273 433.148,-484.306 436.741,-474.338 429.741,-474.273"/>
</g>
<!-- 17&#45;&gt;13 -->
<g id="edge101" class="edge"><title>17&#45;&gt;13</title>
<path fill="none" stroke="black" d="M458.148,-194.657C521.357,-229.05 703.479,-336.735 792.946,-480 808.61,-505.082 819.653,-536.867 826.471,-560.661"/>
<polygon fill="black" stroke="black" points="823.104,-561.617 829.136,-570.327 829.852,-559.756 823.104,-561.617"/>
</g>
<!-- 17&#45;&gt;6 -->
<g id="edge110" class="edge"><title>17&#45;&gt;6</title>
<path fill="none" stroke="black" d="M458.044,-189.285C487.64,-198.203 541.255,-216.135 582.946,-240 676.418,-293.506 695.814,-317.413 764.946,-400 821.799,-467.918 847.095,-484.165 868.946,-570 874.648,-592.397 879.073,-601.225 868.946,-622 859.794,-640.775 841.76,-655.469 825.336,-665.727"/>
<polygon fill="black" stroke="black" points="823.282,-662.874 816.444,-670.967 826.836,-668.905 823.282,-662.874"/>
</g>
<!-- 18&#45;&gt;17 -->
<g id="edge8" class="edge"><title>18&#45;&gt;17</title>
<path fill="none" stroke="black" d="M492.632,-124.314C483.877,-133.069 473.613,-143.334 464.242,-152.704"/>
<polygon fill="black" stroke="black" points="461.561,-150.436 456.964,-159.982 466.51,-155.386 461.561,-150.436"/>
</g>
<!-- 18&#45;&gt;2 -->
<g id="edge29" class="edge"><title>18&#45;&gt;2</title>
<path fill="none" stroke="black" d="M491.876,-102.92C425.969,-104.075 232.121,-117.999 182.946,-240 103.559,-436.96 154.231,-531.294 268.946,-710 279.916,-727.089 297.37,-741.395 312.988,-751.848"/>
<polygon fill="black" stroke="black" points="311.115,-754.805 321.423,-757.252 314.891,-748.91 311.115,-754.805"/>
</g>
<!-- 18&#45;&gt;21 -->
<g id="edge38" class="edge"><title>18&#45;&gt;21</title>
<path fill="none" stroke="black" d="M491.635,-105.153C452.052,-109.809 368.056,-123.508 307.946,-160 291.802,-169.801 259.882,-205.849 237.745,-232.09"/>
<polygon fill="black" stroke="black" points="234.958,-229.967 231.218,-239.879 240.324,-234.463 234.958,-229.967"/>
</g>
<!-- 18&#45;&gt;28 -->
<g id="edge52" class="edge"><title>18&#45;&gt;28</title>
<path fill="none" stroke="black" d="M535.971,-111.306C556.748,-120.25 587.268,-136.441 604.946,-160 657.839,-230.488 672.945,-337.366 677.245,-389.784"/>
<polygon fill="black" stroke="black" points="673.759,-390.099 677.989,-399.812 680.739,-389.581 673.759,-390.099"/>
</g>
<!-- 18&#45;&gt;23 -->
<g id="edge65" class="edge"><title>18&#45;&gt;23</title>
<path fill="none" stroke="black" d="M491.528,-110.3C467.665,-118.996 429.969,-135.497 404.946,-160 375.953,-188.39 373.535,-201.423 360.946,-240 353.554,-262.652 350.343,-289.448 348.958,-309.745"/>
<polygon fill="black" stroke="black" points="345.449,-309.814 348.375,-319.997 352.437,-310.212 345.449,-309.814"/>
</g>
<!-- 18&#45;&gt;3 -->
<g id="edge84" class="edge"><title>18&#45;&gt;3</title>
<path fill="none" stroke="black" d="M510.192,-124.219C500.613,-177.919 474.168,-323.507 447.946,-444 445.762,-454.039 443.19,-464.945 440.8,-474.77"/>
<polygon fill="black" stroke="black" points="437.387,-473.99 438.398,-484.536 444.185,-475.662 437.387,-473.99"/>
</g>
<!-- 18&#45;&gt;13 -->
<g id="edge91" class="edge"><title>18&#45;&gt;13</title>
<path fill="none" stroke="black" d="M536.187,-102.99C612.194,-104.228 856.946,-119.221 856.946,-261 856.946,-261 856.946,-261 856.946,-423 856.946,-470.88 848.455,-525.656 842.023,-560.278"/>
<polygon fill="black" stroke="black" points="838.538,-559.868 840.104,-570.346 845.414,-561.178 838.538,-559.868"/>
</g>
<!-- 18&#45;&gt;6 -->
<g id="edge109" class="edge"><title>18&#45;&gt;6</title>
<path fill="none" stroke="black" d="M536.039,-104.575C600.185,-109.508 784.99,-126.373 833.946,-160 877.172,-189.691 894.946,-208.559 894.946,-261 894.946,-261 894.946,-261 894.946,-343 894.946,-467.051 948.23,-514.144 886.946,-622 873.69,-645.331 847.457,-661.081 825.759,-670.724"/>
<polygon fill="black" stroke="black" points="824.354,-667.518 816.481,-674.609 827.057,-673.975 824.354,-667.518"/>
</g>
<!-- 19 -->
<g id="node20" class="node"><title>19</title>
<polygon fill="lightgrey" stroke="lightgrey" points="363.946,-44 319.946,-44 319.946,-0 363.946,-0 363.946,-44"/>
<text text-anchor="middle" x="341.946" y="-18.3" font-family="Times,serif" font-size="14.00">4.2.1</text>
</g>
<!-- 19&#45;&gt;18 -->
<g id="edge30" class="edge"><title>19&#45;&gt;18</title>
<path fill="none" stroke="black" d="M364.08,-33.0375C394.139,-46.6689 448.046,-71.1149 482.353,-86.6726"/>
<polygon fill="black" stroke="black" points="481.345,-90.0585 491.897,-91.0011 484.236,-83.6834 481.345,-90.0585"/>
</g>
<!-- 19&#45;&gt;21 -->
<g id="edge37" class="edge"><title>19&#45;&gt;21</title>
<path fill="none" stroke="black" d="M319.939,-24.1028C286.185,-27.1199 222.541,-38.345 193.946,-80 163.068,-124.982 182.911,-191.573 199.122,-230.195"/>
<polygon fill="black" stroke="black" points="196.128,-232.085 203.342,-239.844 202.542,-229.28 196.128,-232.085"/>
</g>
<!-- 20 -->
<g id="node21" class="node"><title>20</title>
<ellipse fill="lightgrey" stroke="lightgrey" cx="1494.95" cy="-507" rx="33.2948" ry="18"/>
<text text-anchor="middle" x="1494.95" y="-503.3" font-family="Times,serif" font-size="14.00">4.1.24</text>
</g>
<!-- 20&#45;&gt;8 -->
<g id="edge34" class="edge"><title>20&#45;&gt;8</title>
<path fill="none" stroke="black" d="M1526.75,-512.447C1600.5,-524.733 1776.95,-566.321 1776.95,-683 1776.95,-683 1776.95,-683 1776.95,-1037 1776.95,-1119.76 1704.03,-1115.2 1628.95,-1150 1550.66,-1186.29 1449.82,-1201.45 1393.62,-1207.43"/>
<polygon fill="black" stroke="black" points="1393.26,-1203.95 1383.66,-1208.44 1393.97,-1210.91 1393.26,-1203.95"/>
</g>
<!-- 26 -->
<g id="node27" class="node"><title>26</title>
<ellipse fill="lightgrey" stroke="lightgrey" cx="1396.95" cy="-684" rx="33.2948" ry="18"/>
<text text-anchor="middle" x="1396.95" y="-680.3" font-family="Times,serif" font-size="14.00">4.1.27</text>
</g>
<!-- 20&#45;&gt;26 -->
<g id="edge47" class="edge"><title>20&#45;&gt;26</title>
<path fill="none" stroke="black" d="M1482.58,-523.809C1473.3,-536.046 1460.58,-553.615 1450.95,-570 1434.07,-598.701 1418.06,-633.496 1407.92,-656.827"/>
<polygon fill="black" stroke="black" points="1404.68,-655.503 1403.95,-666.072 1411.11,-658.266 1404.68,-655.503"/>
</g>
<!-- 20&#45;&gt;15 -->
<g id="edge57" class="edge"><title>20&#45;&gt;15</title>
<path fill="none" stroke="black" d="M1466.59,-516.561C1439.02,-526.029 1397.27,-543.537 1368.95,-570 1306.16,-628.658 1306.87,-661.966 1288.95,-746 1259.65,-883.358 1253.41,-925.617 1286.95,-1062 1289.89,-1073.98 1294.93,-1086.62 1299.79,-1097.27"/>
<polygon fill="black" stroke="black" points="1296.68,-1098.89 1304.14,-1106.42 1303.01,-1095.88 1296.68,-1098.89"/>
</g>
<!-- 20&#45;&gt;10 -->
<g id="edge75" class="edge"><title>20&#45;&gt;10</title>
<path fill="none" stroke="black" d="M1491.64,-525.062C1489.3,-537.491 1486.19,-554.751 1483.95,-570 1469.81,-665.92 1457.76,-780.445 1452.61,-831.771"/>
<polygon fill="black" stroke="black" points="1449.1,-831.718 1451.59,-842.016 1456.07,-832.411 1449.1,-831.718"/>
</g>
<!-- 20&#45;&gt;0 -->
<g id="edge77" class="edge"><title>20&#45;&gt;0</title>
<path fill="none" stroke="black" d="M1522.73,-516.87C1578.96,-536.757 1700.95,-590.554 1700.95,-683 1700.95,-683 1700.95,-683 1700.95,-773 1700.95,-834.197 1654.11,-893.526 1624.87,-924.606"/>
<polygon fill="black" stroke="black" points="1622.27,-922.255 1617.85,-931.883 1627.31,-927.113 1622.27,-922.255"/>
</g>
<!-- 27 -->
<g id="node28" class="node"><title>27</title>
<ellipse fill="lightgrey" stroke="lightgrey" cx="1525.95" cy="-596" rx="33.2948" ry="18"/>
<text text-anchor="middle" x="1525.95" y="-592.3" font-family="Times,serif" font-size="14.00">4.1.26</text>
</g>
<!-- 20&#45;&gt;27 -->
<g id="edge114" class="edge"><title>20&#45;&gt;27</title>
<path fill="none" stroke="black" d="M1500.92,-524.774C1505.34,-537.171 1511.44,-554.296 1516.51,-568.531"/>
<polygon fill="black" stroke="black" points="1513.33,-570.032 1519.99,-578.277 1519.93,-567.682 1513.33,-570.032"/>
</g>
<!-- 20&#45;&gt;1 -->
<g id="edge135" class="edge"><title>20&#45;&gt;1</title>
<path fill="none" stroke="black" d="M1517.8,-520.083C1535.14,-530.666 1557.68,-547.817 1567.95,-570 1594.52,-627.429 1581.45,-704.326 1571.56,-744.314"/>
<polygon fill="black" stroke="black" points="1568.14,-743.551 1569.01,-754.109 1574.91,-745.311 1568.14,-743.551"/>
</g>
<!-- 20&#45;&gt;29 -->
<g id="edge142" class="edge"><title>20&#45;&gt;29</title>
<path fill="none" stroke="black" d="M1474.19,-521.211C1440.53,-544.127 1375.72,-594.898 1354.95,-658 1310.72,-792.31 1317.5,-853.778 1391.95,-974 1403.17,-992.128 1421.83,-1007.01 1438.08,-1017.53"/>
<polygon fill="black" stroke="black" points="1436.46,-1020.64 1446.8,-1022.93 1440.14,-1014.69 1436.46,-1020.64"/>
</g>
<!-- 21&#45;&gt;23 -->
<g id="edge67" class="edge"><title>21&#45;&gt;23</title>
<path fill="none" stroke="black" d="M236.074,-275.88C258.186,-288.752 292.367,-308.648 317.129,-323.062"/>
<polygon fill="black" stroke="black" points="315.383,-326.095 325.786,-328.101 318.904,-320.045 315.383,-326.095"/>
</g>
<!-- 21&#45;&gt;3 -->
<g id="edge86" class="edge"><title>21&#45;&gt;3</title>
<path fill="none" stroke="black" d="M232.177,-284.126C261.623,-318.132 321.641,-386.974 373.946,-444 383.968,-454.926 395.141,-466.754 405.045,-477.121"/>
<polygon fill="black" stroke="black" points="402.552,-479.578 411.998,-484.377 407.606,-474.735 402.552,-479.578"/>
</g>
<!-- 21&#45;&gt;28 -->
<g id="edge97" class="edge"><title>21&#45;&gt;28</title>
<path fill="none" stroke="black" d="M236.333,-262.288C294.181,-261.332 452.132,-264.394 566.946,-320 592.993,-332.615 593.473,-344.598 614.946,-364 626.051,-374.034 638.31,-384.982 649.101,-394.578"/>
<polygon fill="black" stroke="black" points="646.861,-397.27 656.662,-401.294 651.51,-392.036 646.861,-397.27"/>
</g>
<!-- 21&#45;&gt;11 -->
<g id="edge99" class="edge"><title>21&#45;&gt;11</title>
<path fill="none" stroke="black" d="M191.745,-274.647C155.829,-294.812 85.7991,-339.9 53.9463,-400 23.9488,-456.599 26.1771,-619.189 44.9463,-710 53.5692,-751.72 49.7582,-771.289 82.9463,-798 148.201,-850.519 186.772,-813.33 267.946,-834 282.53,-837.713 298.386,-842.567 312.04,-847.008"/>
<polygon fill="black" stroke="black" points="310.95,-850.334 321.543,-850.147 313.145,-843.687 310.95,-850.334"/>
</g>
<!-- 21&#45;&gt;13 -->
<g id="edge102" class="edge"><title>21&#45;&gt;13</title>
<path fill="none" stroke="black" d="M236.143,-269.051C268.377,-278.197 329.673,-296.944 378.946,-320 544.703,-397.559 726.768,-519.601 800.811,-570.958"/>
<polygon fill="black" stroke="black" points="799.089,-574.024 809.297,-576.863 803.088,-568.279 799.089,-574.024"/>
</g>
<!-- 21&#45;&gt;6 -->
<g id="edge111" class="edge"><title>21&#45;&gt;6</title>
<path fill="none" stroke="black" d="M220.239,-284.101C236.439,-334.821 284.416,-464.507 369.946,-534 489.63,-631.243 677.468,-667.323 755.313,-678.582"/>
<polygon fill="black" stroke="black" points="755.161,-682.094 765.549,-680.009 756.128,-675.161 755.161,-682.094"/>
</g>
<!-- 21&#45;&gt;2 -->
<g id="edge113" class="edge"><title>21&#45;&gt;2</title>
<path fill="none" stroke="black" d="M215.267,-284.338C219.077,-340.399 231.866,-496.2 262.946,-622 272.928,-662.402 274.003,-674.037 294.946,-710 300.737,-719.944 308.212,-729.828 315.679,-738.653"/>
<polygon fill="black" stroke="black" points="313.267,-741.211 322.486,-746.432 318.535,-736.602 313.267,-741.211"/>
</g>
<!-- 21&#45;&gt;22 -->
<g id="edge128" class="edge"><title>21&#45;&gt;22</title>
<path fill="none" stroke="black" d="M191.911,-281.658C190.6,-282.495 189.274,-283.283 187.946,-284 141.941,-308.847 115.458,-285.756 75.9463,-320 -26.7564,-409.01 -5.6346,-490.307 27.9463,-622 62.0187,-755.62 76.2546,-809.442 190.946,-886 251.971,-926.735 338.879,-940.293 387.143,-944.788"/>
<polygon fill="black" stroke="black" points="387.142,-948.3 397.403,-945.66 387.735,-941.325 387.142,-948.3"/>
</g>
<!-- 22&#45;&gt;4 -->
<g id="edge33" class="edge"><title>22&#45;&gt;4</title>
<path fill="none" stroke="black" d="M424.747,-973.728C426.507,-996.648 429.432,-1031.68 432.946,-1062 441.315,-1134.21 454.116,-1218.36 461.389,-1264.44"/>
<polygon fill="black" stroke="black" points="457.96,-1265.16 462.983,-1274.49 464.873,-1264.07 457.96,-1265.16"/>
</g>
<!-- 22&#45;&gt;14 -->
<g id="edge40" class="edge"><title>22&#45;&gt;14</title>
<path fill="none" stroke="black" d="M427.196,-973.846C432.105,-997.79 441.8,-1034.35 458.946,-1062 490.986,-1113.66 544.865,-1160.07 579.651,-1186.9"/>
<polygon fill="black" stroke="black" points="577.55,-1189.69 587.628,-1192.96 581.787,-1184.12 577.55,-1189.69"/>
</g>
<!-- 22&#45;&gt;25 -->
<g id="edge82" class="edge"><title>22&#45;&gt;25</title>
<path fill="none" stroke="black" d="M448.247,-968.086C464.369,-980.249 485.452,-996.154 503.019,-1009.41"/>
<polygon fill="black" stroke="black" points="501.232,-1012.44 511.323,-1015.67 505.447,-1006.85 501.232,-1012.44"/>
</g>
<!-- 22&#45;&gt;5 -->
<g id="edge131" class="edge"><title>22&#45;&gt;5</title>
<path fill="none" stroke="black" d="M397.597,-962.276C326.956,-1001.13 136.963,-1119.39 197.946,-1238 248.761,-1336.84 391.419,-1371.35 458.387,-1382.34"/>
<polygon fill="black" stroke="black" points="458.041,-1385.83 468.46,-1383.91 459.117,-1378.91 458.041,-1385.83"/>
</g>
<!-- 22&#45;&gt;24 -->
<g id="edge134" class="edge"><title>22&#45;&gt;24</title>
<path fill="none" stroke="black" d="M438.254,-973.578C456.585,-1002.5 486.717,-1048.33 501.946,-1062 524.525,-1082.27 555.013,-1098.41 578.323,-1108.99"/>
<polygon fill="black" stroke="black" points="576.948,-1112.2 587.51,-1113.04 579.772,-1105.8 576.948,-1112.2"/>
</g>
<!-- 23&#45;&gt;22 -->
<g id="edge41" class="edge"><title>23&#45;&gt;22</title>
<path fill="none" stroke="black" d="M325.736,-350.269C290.917,-361.935 225.441,-385.041 205.946,-400 92.6062,-486.971 95.456,-569.429 120.946,-710 128.399,-751.1 126.697,-766.342 153.946,-798 206.383,-858.92 241.613,-847.088 311.946,-886 337.536,-900.158 366.497,-916.069 388.419,-928.091"/>
<polygon fill="black" stroke="black" points="386.902,-931.251 397.353,-932.989 390.267,-925.112 386.902,-931.251"/>
</g>
<!-- 23&#45;&gt;2 -->
<g id="edge74" class="edge"><title>23&#45;&gt;2</title>
<path fill="none" stroke="black" d="M334.427,-364.046C306.227,-410.624 245.912,-525.918 272.946,-622 278.025,-640.05 286.123,-641.455 294.946,-658 308.817,-684.011 322.68,-714.41 332.6,-737.123"/>
<polygon fill="black" stroke="black" points="329.411,-738.567 336.598,-746.351 335.834,-735.784 329.411,-738.567"/>
</g>
<!-- 23&#45;&gt;6 -->
<g id="edge76" class="edge"><title>23&#45;&gt;6</title>
<path fill="none" stroke="black" d="M368.715,-364.024C407.059,-401.947 492.76,-482.628 576.946,-534 611.967,-555.37 627.187,-548.207 661.946,-570 698.752,-593.075 735.507,-626.554 760.314,-651.082"/>
<polygon fill="black" stroke="black" points="758.07,-653.788 767.616,-658.385 763.02,-648.838 758.07,-653.788"/>
</g>
<!-- 23&#45;&gt;3 -->
<g id="edge87" class="edge"><title>23&#45;&gt;3</title>
<path fill="none" stroke="black" d="M359.059,-364.309C373.844,-392.663 400.081,-442.977 416.984,-475.389"/>
<polygon fill="black" stroke="black" points="413.969,-477.177 421.696,-484.426 420.176,-473.941 413.969,-477.177"/>
</g>
<!-- 23&#45;&gt;28 -->
<g id="edge90" class="edge"><title>23&#45;&gt;28</title>
<path fill="none" stroke="black" d="M370.05,-347.45C414.653,-356.528 518.54,-378.177 604.946,-400 618.739,-403.483 633.866,-407.704 646.829,-411.445"/>
<polygon fill="black" stroke="black" points="646.114,-414.882 656.694,-414.319 648.072,-408.162 646.114,-414.882"/>
</g>
<!-- 23&#45;&gt;13 -->
<g id="edge103" class="edge"><title>23&#45;&gt;13</title>
<path fill="none" stroke="black" d="M370.15,-350.781C398.612,-360.996 449.263,-379.993 490.946,-400 608.094,-456.228 740.07,-535.913 800.902,-573.627"/>
<polygon fill="black" stroke="black" points="799.356,-576.787 809.696,-579.095 803.052,-570.843 799.356,-576.787"/>
</g>
<!-- 23&#45;&gt;11 -->
<g id="edge130" class="edge"><title>23&#45;&gt;11</title>
<path fill="none" stroke="black" d="M325.554,-355.269C270.867,-387.059 134.946,-477.853 134.946,-595 134.946,-595 134.946,-595 134.946,-685 134.946,-775.434 251.635,-827.454 311.869,-848.283"/>
<polygon fill="black" stroke="black" points="310.78,-851.609 321.374,-851.473 313.007,-844.973 310.78,-851.609"/>
</g>
<!-- 24&#45;&gt;5 -->
<g id="edge18" class="edge"><title>24&#45;&gt;5</title>
<path fill="none" stroke="black" d="M638.589,-1132.11C663.362,-1140.51 699.48,-1157.11 715.946,-1186 727.391,-1206.08 725.768,-1217.08 715.946,-1238 679.807,-1314.97 581.708,-1358.08 528.832,-1376.38"/>
<polygon fill="black" stroke="black" points="527.569,-1373.11 519.201,-1379.61 529.795,-1379.75 527.569,-1373.11"/>
</g>
<!-- 24&#45;&gt;14 -->
<g id="edge93" class="edge"><title>24&#45;&gt;14</title>
<path fill="none" stroke="black" d="M612.946,-1149.87C612.946,-1158.15 612.946,-1167.51 612.946,-1176.39"/>
<polygon fill="black" stroke="black" points="609.446,-1176.48 612.946,-1186.48 616.446,-1176.48 609.446,-1176.48"/>
</g>
<!-- 24&#45;&gt;4 -->
<g id="edge117" class="edge"><title>24&#45;&gt;4</title>
<path fill="none" stroke="black" d="M592.338,-1149.56C566.65,-1180.17 522.669,-1232.59 494.213,-1266.5"/>
<polygon fill="black" stroke="black" points="491.433,-1264.37 487.686,-1274.28 496.795,-1268.87 491.433,-1264.37"/>
</g>
<!-- 25&#45;&gt;24 -->
<g id="edge25" class="edge"><title>25&#45;&gt;24</title>
<path fill="none" stroke="black" d="M558.929,-1061.87C566.954,-1070.96 576.146,-1081.36 584.644,-1090.97"/>
<polygon fill="black" stroke="black" points="582.031,-1093.3 591.276,-1098.48 587.276,-1088.67 582.031,-1093.3"/>
</g>
<!-- 25&#45;&gt;4 -->
<g id="edge45" class="edge"><title>25&#45;&gt;4</title>
<path fill="none" stroke="black" d="M523.022,-1061.6C517.35,-1072.48 511.151,-1085.59 506.946,-1098 487.721,-1154.73 476.483,-1223.77 471.042,-1264.39"/>
<polygon fill="black" stroke="black" points="467.568,-1263.96 469.751,-1274.33 474.51,-1264.87 467.568,-1263.96"/>
</g>
<!-- 25&#45;&gt;14 -->
<g id="edge126" class="edge"><title>25&#45;&gt;14</title>
<path fill="none" stroke="black" d="M544.554,-1061.74C552.015,-1084.97 564.242,-1120.47 577.946,-1150 582.18,-1159.12 587.314,-1168.69 592.33,-1177.48"/>
<polygon fill="black" stroke="black" points="589.41,-1179.42 597.471,-1186.29 595.457,-1175.89 589.41,-1179.42"/>
</g>
<!-- 25&#45;&gt;5 -->
<g id="edge139" class="edge"><title>25&#45;&gt;5</title>
<path fill="none" stroke="black" d="M533.923,-1061.61C526.413,-1122.74 506.894,-1281.61 498.215,-1352.26"/>
<polygon fill="black" stroke="black" points="494.712,-1352.06 496.967,-1362.42 501.66,-1352.92 494.712,-1352.06"/>
</g>
<!-- 26&#45;&gt;0 -->
<g id="edge3" class="edge"><title>26&#45;&gt;0</title>
<path fill="none" stroke="black" d="M1392.07,-702.004C1382.39,-739.627 1365.18,-830.938 1407.95,-886 1426.79,-910.26 1509.65,-929.723 1560.79,-939.702"/>
<polygon fill="black" stroke="black" points="1560.4,-943.191 1570.88,-941.628 1561.72,-936.315 1560.4,-943.191"/>
</g>
<!-- 26&#45;&gt;29 -->
<g id="edge14" class="edge"><title>26&#45;&gt;29</title>
<path fill="none" stroke="black" d="M1389.86,-701.733C1385.16,-713.793 1379.41,-730.592 1376.95,-746 1372.97,-770.897 1380.59,-884.818 1380.95,-886 1395.49,-934.38 1429.15,-983.298 1450.66,-1011.3"/>
<polygon fill="black" stroke="black" points="1447.99,-1013.57 1456.91,-1019.29 1453.51,-1009.26 1447.99,-1013.57"/>
</g>
<!-- 26&#45;&gt;15 -->
<g id="edge16" class="edge"><title>26&#45;&gt;15</title>
<path fill="none" stroke="black" d="M1389.2,-701.528C1383.78,-713.632 1376.67,-730.57 1371.95,-746 1336.85,-860.599 1331.34,-891.015 1316.95,-1010 1313.43,-1039.11 1312.65,-1072.71 1312.62,-1095.66"/>
<polygon fill="black" stroke="black" points="1309.12,-1095.71 1312.65,-1105.7 1316.12,-1095.69 1309.12,-1095.71"/>
</g>
<!-- 26&#45;&gt;8 -->
<g id="edge31" class="edge"><title>26&#45;&gt;8</title>
<path fill="none" stroke="black" d="M1373.02,-696.877C1313.02,-728.538 1160.95,-821.196 1160.95,-947 1160.95,-947 1160.95,-947 1160.95,-1037 1160.95,-1119.49 1259.56,-1173.43 1314.7,-1197.15"/>
<polygon fill="black" stroke="black" points="1313.55,-1200.46 1324.13,-1201.09 1316.25,-1194 1313.55,-1200.46"/>
</g>
<!-- 26&#45;&gt;1 -->
<g id="edge44" class="edge"><title>26&#45;&gt;1</title>
<path fill="none" stroke="black" d="M1420.17,-696.958C1449.12,-711.87 1498.79,-737.448 1531.5,-754.291"/>
<polygon fill="black" stroke="black" points="1530.16,-757.539 1540.65,-759.005 1533.37,-751.315 1530.16,-757.539"/>
</g>
<!-- 26&#45;&gt;10 -->
<g id="edge79" class="edge"><title>26&#45;&gt;10</title>
<path fill="none" stroke="black" d="M1402.12,-702.001C1411.37,-732.355 1430.78,-796.081 1441.82,-832.318"/>
<polygon fill="black" stroke="black" points="1438.56,-833.64 1444.82,-842.187 1445.26,-831.601 1438.56,-833.64"/>
</g>
<!-- 27&#45;&gt;0 -->
<g id="edge2" class="edge"><title>27&#45;&gt;0</title>
<path fill="none" stroke="black" d="M1537.95,-612.867C1556.85,-638.96 1592.76,-693.308 1605.95,-746 1621.13,-806.659 1613.1,-880.858 1606.92,-919.937"/>
<polygon fill="black" stroke="black" points="1603.43,-919.548 1605.24,-929.988 1610.34,-920.7 1603.43,-919.548"/>
</g>
<!-- 27&#45;&gt;26 -->
<g id="edge49" class="edge"><title>27&#45;&gt;26</title>
<path fill="none" stroke="black" d="M1505.79,-610.438C1484.21,-624.827 1449.78,-647.777 1425.43,-664.009"/>
<polygon fill="black" stroke="black" points="1423.34,-661.198 1416.96,-669.657 1427.22,-667.022 1423.34,-661.198"/>
</g>
<!-- 27&#45;&gt;8 -->
<g id="edge50" class="edge"><title>27&#45;&gt;8</title>
<path fill="none" stroke="black" d="M1494.32,-601.88C1399.32,-618.508 1122.95,-682.083 1122.95,-859 1122.95,-859 1122.95,-859 1122.95,-1037 1122.95,-1092.66 1135.51,-1112.84 1176.95,-1150 1213.98,-1183.21 1270.16,-1198.58 1308.6,-1205.53"/>
<polygon fill="black" stroke="black" points="1308.5,-1209.06 1318.95,-1207.27 1309.67,-1202.16 1308.5,-1209.06"/>
</g>
<!-- 27&#45;&gt;15 -->
<g id="edge58" class="edge"><title>27&#45;&gt;15</title>
<path fill="none" stroke="black" d="M1493.3,-598.994C1454.11,-603.246 1389.38,-616.532 1354.95,-658 1246.15,-789.035 1287.65,-1018.22 1306.03,-1096.17"/>
<polygon fill="black" stroke="black" points="1302.68,-1097.25 1308.45,-1106.14 1309.49,-1095.6 1302.68,-1097.25"/>
</g>
<!-- 27&#45;&gt;29 -->
<g id="edge71" class="edge"><title>27&#45;&gt;29</title>
<path fill="none" stroke="black" d="M1546.46,-610.212C1562.08,-621.253 1583.03,-638.327 1595.95,-658 1673.92,-776.744 1726.12,-858.121 1643.95,-974 1614.42,-1015.64 1554.15,-1029.08 1512.9,-1033.28"/>
<polygon fill="black" stroke="black" points="1512.51,-1029.81 1502.86,-1034.17 1513.12,-1036.78 1512.51,-1029.81"/>
</g>
<!-- 27&#45;&gt;10 -->
<g id="edge78" class="edge"><title>27&#45;&gt;10</title>
<path fill="none" stroke="black" d="M1523.24,-614.023C1517.38,-649.101 1502.15,-731.704 1478.95,-798 1474.76,-809.948 1468.95,-822.666 1463.63,-833.381"/>
<polygon fill="black" stroke="black" points="1460.36,-832.079 1458.94,-842.578 1466.6,-835.26 1460.36,-832.079"/>
</g>
<!-- 27&#45;&gt;1 -->
<g id="edge137" class="edge"><title>27&#45;&gt;1</title>
<path fill="none" stroke="black" d="M1529.66,-614.001C1536.27,-644.277 1550.13,-707.755 1558.06,-744.038"/>
<polygon fill="black" stroke="black" points="1554.67,-744.907 1560.22,-753.93 1561.5,-743.414 1554.67,-744.907"/>
</g>
<!-- 28&#45;&gt;24 -->
<g id="edge68" class="edge"><title>28&#45;&gt;24</title>
<path fill="none" stroke="black" d="M701.062,-422.719C775.328,-422.292 1013.78,-425.271 1060.95,-480 1076.61,-498.18 1064.11,-510.209 1060.95,-534 1028.59,-777.586 1091.84,-912.346 896.946,-1062 858.22,-1091.74 715.588,-1111.39 648.398,-1119.2"/>
<polygon fill="black" stroke="black" points="647.829,-1115.74 638.289,-1120.35 648.621,-1122.7 647.829,-1115.74"/>
</g>
<!-- 28&#45;&gt;22 -->
<g id="edge69" class="edge"><title>28&#45;&gt;22</title>
<path fill="none" stroke="black" d="M671.766,-444.162C663.921,-466.718 650.638,-503.333 636.946,-534 572.357,-678.672 481.079,-844.165 441.954,-913.596"/>
<polygon fill="black" stroke="black" points="438.876,-911.927 437.007,-922.356 444.972,-915.37 438.876,-911.927"/>
</g>
<!-- 28&#45;&gt;3 -->
<g id="edge88" class="edge"><title>28&#45;&gt;3</title>
<path fill="none" stroke="black" d="M656.894,-429.632C623.128,-439.883 556.67,-460.442 500.946,-480 493.4,-482.649 485.429,-485.577 477.705,-488.484"/>
<polygon fill="black" stroke="black" points="476.207,-485.309 468.103,-492.133 478.694,-491.852 476.207,-485.309"/>
</g>
<!-- 28&#45;&gt;11 -->
<g id="edge92" class="edge"><title>28&#45;&gt;11</title>
<path fill="none" stroke="black" d="M665.209,-444.12C650.438,-466.641 626.086,-503.227 603.946,-534 517.663,-653.927 496.378,-684.379 401.946,-798 393.971,-807.596 385.023,-817.758 376.698,-826.979"/>
<polygon fill="black" stroke="black" points="374.024,-824.716 369.886,-834.47 379.203,-829.426 374.024,-824.716"/>
</g>
<!-- 28&#45;&gt;13 -->
<g id="edge104" class="edge"><title>28&#45;&gt;13</title>
<path fill="none" stroke="black" d="M701.039,-436.207C717.588,-446.762 740.171,-462.625 756.946,-480 780.72,-504.623 802.099,-537.274 816.437,-561.493"/>
<polygon fill="black" stroke="black" points="813.523,-563.445 821.577,-570.328 819.573,-559.924 813.523,-563.445"/>
</g>
<!-- 28&#45;&gt;14 -->
<g id="edge120" class="edge"><title>28&#45;&gt;14</title>
<path fill="none" stroke="black" d="M701.138,-423.087C780.7,-424.67 1046.95,-441.436 1046.95,-595 1046.95,-595 1046.95,-595 1046.95,-1037 1046.95,-1102.9 1009.02,-1118.86 950.946,-1150 833.853,-1212.79 776.231,-1139.64 647.867,-1186.58"/>
<polygon fill="black" stroke="black" points="646.585,-1183.32 638.501,-1190.17 649.091,-1189.85 646.585,-1183.32"/>
</g>
<!-- 28&#45;&gt;2 -->
<g id="edge136" class="edge"><title>28&#45;&gt;2</title>
<path fill="none" stroke="black" d="M656.834,-441.741C644.275,-452.618 628.419,-466.75 614.946,-480 523.234,-570.197 422.272,-684.171 374.682,-738.856"/>
<polygon fill="black" stroke="black" points="371.971,-736.639 368.055,-746.484 377.255,-741.23 371.971,-736.639"/>
</g>
<!-- 28&#45;&gt;6 -->
<g id="edge138" class="edge"><title>28&#45;&gt;6</title>
<path fill="none" stroke="black" d="M695.458,-444.221C703.15,-454.656 712.094,-467.626 718.946,-480 749.757,-535.641 771.409,-606.956 782.472,-648.556"/>
<polygon fill="black" stroke="black" points="779.146,-649.671 785.056,-658.464 785.919,-647.905 779.146,-649.671"/>
</g>
<!-- 29&#45;&gt;8 -->
<g id="edge55" class="edge"><title>29&#45;&gt;8</title>
<path fill="none" stroke="black" d="M1461.25,-1053.64C1449.2,-1076.18 1426.29,-1117.34 1402.95,-1150 1393.57,-1163.12 1382.03,-1176.86 1372.2,-1187.97"/>
<polygon fill="black" stroke="black" points="1369.48,-1185.77 1365.41,-1195.55 1374.69,-1190.44 1369.48,-1185.77"/>
</g>
<!-- 29&#45;&gt;15 -->
<g id="edge132" class="edge"><title>29&#45;&gt;15</title>
<path fill="none" stroke="black" d="M1447.45,-1049.32C1420.4,-1064.14 1374.85,-1089.09 1344.34,-1105.8"/>
<polygon fill="black" stroke="black" points="1342.49,-1102.83 1335.4,-1110.7 1345.85,-1108.97 1342.49,-1102.83"/>
</g>
</g>
</svg>
