<?xml version="1.0" encoding="UTF-8" standalone="no"?>
<!DOCTYPE svg PUBLIC "-//W3C//DTD SVG 1.1//EN"
 "http://www.w3.org/Graphics/SVG/1.1/DTD/svg11.dtd">
<!-- Generated by graphviz version 2.30.1 (20170916.1124)
 -->
<!-- Title: stable Pages: 1 -->
<svg width="863pt" height="541pt"
 viewBox="0.00 0.00 862.89 541.00" xmlns="http://www.w3.org/2000/svg" xmlns:xlink="http://www.w3.org/1999/xlink">
<g id="graph0" class="graph" transform="scale(1 1) rotate(0) translate(4 537)">
<title>stable</title>
<polygon fill="white" stroke="white" points="-4,5 -4,-537 859.885,-537 859.885,5 -4,5"/>
<text text-anchor="middle" x="427.443" y="-517.8" font-family="Times,serif" font-size="14.00">stable&#45;4.3</text>
<!-- 0 -->
<g id="node1" class="node"><title>0</title>
<ellipse fill="lightgrey" stroke="lightgrey" cx="295.885" cy="-348" rx="33.2948" ry="18"/>
<text text-anchor="middle" x="295.885" y="-344.3" font-family="Times,serif" font-size="14.00">4.2.21</text>
</g>
<!-- 11 -->
<g id="node12" class="node"><title>11</title>
<ellipse fill="lightgrey" stroke="lightgrey" cx="234.885" cy="-420" rx="33.2948" ry="18"/>
<text text-anchor="middle" x="234.885" y="-416.3" font-family="Times,serif" font-size="14.00">4.2.25</text>
</g>
<!-- 0&#45;&gt;11 -->
<g id="edge17" class="edge"><title>0&#45;&gt;11</title>
<path fill="none" stroke="black" d="M282.348,-364.535C274.371,-373.689 264.125,-385.446 255.196,-395.693"/>
<polygon fill="black" stroke="black" points="252.317,-393.67 248.386,-403.508 257.594,-398.268 252.317,-393.67"/>
</g>
<!-- 4 -->
<g id="node5" class="node"><title>4</title>
<ellipse fill="lightgrey" stroke="lightgrey" cx="264.885" cy="-492" rx="33.2948" ry="18"/>
<text text-anchor="middle" x="264.885" y="-488.3" font-family="Times,serif" font-size="14.00">4.2.26</text>
</g>
<!-- 0&#45;&gt;4 -->
<g id="edge25" class="edge"><title>0&#45;&gt;4</title>
<path fill="none" stroke="black" d="M292.305,-366.075C288.532,-384.002 282.384,-413.002 276.885,-438 275.033,-446.422 272.974,-455.587 271.091,-463.89"/>
<polygon fill="black" stroke="black" points="267.636,-463.299 268.83,-473.826 274.462,-464.852 267.636,-463.299"/>
</g>
<!-- 1 -->
<g id="node2" class="node"><title>1</title>
<ellipse fill="lightgrey" stroke="lightgrey" cx="51.8855" cy="-348" rx="33.2948" ry="18"/>
<text text-anchor="middle" x="51.8855" y="-344.3" font-family="Times,serif" font-size="14.00">4.2.22</text>
</g>
<!-- 1&#45;&gt;11 -->
<g id="edge23" class="edge"><title>1&#45;&gt;11</title>
<path fill="none" stroke="black" d="M77.6104,-359.531C82.9787,-361.695 88.6093,-363.941 93.8855,-366 129.407,-379.863 170.206,-395.127 198.747,-405.7"/>
<polygon fill="black" stroke="black" points="197.71,-409.048 208.303,-409.234 200.138,-402.482 197.71,-409.048"/>
</g>
<!-- 1&#45;&gt;4 -->
<g id="edge27" class="edge"><title>1&#45;&gt;4</title>
<path fill="none" stroke="black" d="M68.3985,-363.967C89.4195,-382.603 127.291,-414.805 162.885,-438 184.68,-452.202 210.727,-465.683 231.043,-475.495"/>
<polygon fill="black" stroke="black" points="229.692,-478.728 240.225,-479.869 232.702,-472.408 229.692,-478.728"/>
</g>
<!-- 2 -->
<g id="node3" class="node"><title>2</title>
<polygon fill="lightgrey" stroke="lightgrey" points="606.885,-44 562.885,-44 562.885,-0 606.885,-0 606.885,-44"/>
<text text-anchor="middle" x="584.885" y="-18.3" font-family="Times,serif" font-size="14.00">4.3.1</text>
</g>
<!-- 10 -->
<g id="node11" class="node"><title>10</title>
<polygon fill="yellowgreen" stroke="yellowgreen" points="737.885,-204 693.885,-204 693.885,-160 737.885,-160 737.885,-204"/>
<text text-anchor="middle" x="715.885" y="-178.3" font-family="Times,serif" font-size="14.00">4.3.9</text>
</g>
<!-- 2&#45;&gt;10 -->
<g id="edge14" class="edge"><title>2&#45;&gt;10</title>
<path fill="none" stroke="black" d="M594.375,-44.2035C604.642,-65.7281 622.452,-99.3108 643.885,-124 655.916,-137.858 671.685,-150.778 685.398,-160.802"/>
<polygon fill="black" stroke="black" points="683.441,-163.705 693.618,-166.651 687.499,-158.002 683.441,-163.705"/>
</g>
<!-- 7 -->
<g id="node8" class="node"><title>7</title>
<polygon fill="lightgrey" stroke="lightgrey" points="712.885,-124 668.885,-124 668.885,-80 712.885,-80 712.885,-124"/>
<text text-anchor="middle" x="690.885" y="-98.3" font-family="Times,serif" font-size="14.00">4.3.8</text>
</g>
<!-- 2&#45;&gt;7 -->
<g id="edge16" class="edge"><title>2&#45;&gt;7</title>
<path fill="none" stroke="black" d="M607.107,-39.3514C622.512,-50.6876 643.227,-65.9308 660.204,-78.4234"/>
<polygon fill="black" stroke="black" points="658.565,-81.5624 668.694,-84.6702 662.714,-75.9243 658.565,-81.5624"/>
</g>
<!-- 3 -->
<g id="node4" class="node"><title>3</title>
<ellipse fill="lightgrey" stroke="lightgrey" cx="429.885" cy="-102" rx="33.2948" ry="18"/>
<text text-anchor="middle" x="429.885" y="-98.3" font-family="Times,serif" font-size="14.00">4.2.18</text>
</g>
<!-- 5 -->
<g id="node6" class="node"><title>5</title>
<ellipse fill="lightgrey" stroke="lightgrey" cx="297.885" cy="-182" rx="33.2948" ry="18"/>
<text text-anchor="middle" x="297.885" y="-178.3" font-family="Times,serif" font-size="14.00">4.2.19</text>
</g>
<!-- 3&#45;&gt;5 -->
<g id="edge15" class="edge"><title>3&#45;&gt;5</title>
<path fill="none" stroke="black" d="M408.384,-115.706C386.618,-128.567 352.767,-148.57 328.266,-163.048"/>
<polygon fill="black" stroke="black" points="326.207,-160.199 319.378,-168.3 329.768,-166.226 326.207,-160.199"/>
</g>
<!-- 13 -->
<g id="node14" class="node"><title>13</title>
<polygon fill="salmon" stroke="salmon" points="397.805,-272.533 356.885,-284.905 315.966,-272.533 331.596,-252.514 382.175,-252.514 397.805,-272.533"/>
<polygon fill="none" stroke="salmon" points="404.526,-274.659 356.885,-289.063 309.245,-274.659 329.642,-248.535 384.129,-248.535 404.526,-274.659"/>
<polygon fill="none" stroke="salmon" points="411.247,-276.785 356.885,-293.222 302.524,-276.785 327.688,-244.556 386.083,-244.556 411.247,-276.785"/>
<text text-anchor="middle" x="356.885" y="-263.3" font-family="Times,serif" font-size="14.00">4.2.20</text>
</g>
<!-- 3&#45;&gt;13 -->
<g id="edge19" class="edge"><title>3&#45;&gt;13</title>
<path fill="none" stroke="black" d="M422.348,-119.83C410.213,-146.926 386.158,-200.638 370.83,-234.863"/>
<polygon fill="black" stroke="black" points="367.459,-233.827 366.566,-244.384 373.848,-236.688 367.459,-233.827"/>
</g>
<!-- 3&#45;&gt;4 -->
<g id="edge20" class="edge"><title>3&#45;&gt;4</title>
<path fill="none" stroke="black" d="M444.305,-118.256C468.555,-145.582 514.885,-205.68 514.885,-266 514.885,-266 514.885,-266 514.885,-349 514.885,-443.438 378.339,-475.847 307.074,-486.33"/>
<polygon fill="black" stroke="black" points="306.48,-482.879 297.057,-487.723 307.443,-489.812 306.48,-482.879"/>
</g>
<!-- 3&#45;&gt;0 -->
<g id="edge30" class="edge"><title>3&#45;&gt;0</title>
<path fill="none" stroke="black" d="M434.44,-119.94C442.997,-155.745 457.432,-240.232 419.885,-294 401.143,-320.84 365.881,-334.172 337.737,-340.744"/>
<polygon fill="black" stroke="black" points="336.787,-337.368 327.734,-342.872 338.244,-344.215 336.787,-337.368"/>
</g>
<!-- 3&#45;&gt;11 -->
<g id="edge34" class="edge"><title>3&#45;&gt;11</title>
<path fill="none" stroke="black" d="M439.968,-119.254C446.202,-130.292 453.618,-145.471 456.885,-160 470.013,-218.377 472.873,-241.655 443.885,-294 408.148,-358.534 324.04,-393.166 274.096,-408.678"/>
<polygon fill="black" stroke="black" points="272.863,-405.394 264.288,-411.616 274.871,-412.1 272.863,-405.394"/>
</g>
<!-- 5&#45;&gt;0 -->
<g id="edge2" class="edge"><title>5&#45;&gt;0</title>
<path fill="none" stroke="black" d="M296.364,-200.194C295.441,-211.497 294.355,-226.616 293.885,-240 293.045,-263.985 293.433,-270.004 293.885,-294 294.042,-302.322 294.338,-311.374 294.654,-319.604"/>
<polygon fill="black" stroke="black" points="291.166,-319.971 295.073,-329.819 298.161,-319.684 291.166,-319.971"/>
</g>
<!-- 5&#45;&gt;11 -->
<g id="edge9" class="edge"><title>5&#45;&gt;11</title>
<path fill="none" stroke="black" d="M292.286,-200.074C283.453,-227.349 266.04,-282.514 253.885,-330 248.63,-350.534 243.664,-373.988 240.129,-391.663"/>
<polygon fill="black" stroke="black" points="236.622,-391.355 238.122,-401.843 243.49,-392.709 236.622,-391.355"/>
</g>
<!-- 5&#45;&gt;4 -->
<g id="edge12" class="edge"><title>5&#45;&gt;4</title>
<path fill="none" stroke="black" d="M266.359,-188.16C204.229,-200.219 67.0484,-236.644 9.88547,-330 -44.3669,-418.602 138.697,-466.581 223.772,-483.679"/>
<polygon fill="black" stroke="black" points="223.152,-487.124 233.638,-485.611 224.498,-480.254 223.152,-487.124"/>
</g>
<!-- 5&#45;&gt;13 -->
<g id="edge35" class="edge"><title>5&#45;&gt;13</title>
<path fill="none" stroke="black" d="M309.261,-199.003C316.716,-209.49 326.692,-223.524 335.587,-236.038"/>
<polygon fill="black" stroke="black" points="332.882,-238.273 341.528,-244.396 338.587,-234.217 332.882,-238.273"/>
</g>
<!-- 6 -->
<g id="node7" class="node"><title>6</title>
<ellipse fill="lightgrey" stroke="lightgrey" cx="135.885" cy="-348" rx="33.2948" ry="18"/>
<text text-anchor="middle" x="135.885" y="-344.3" font-family="Times,serif" font-size="14.00">4.2.23</text>
</g>
<!-- 6&#45;&gt;4 -->
<g id="edge6" class="edge"><title>6&#45;&gt;4</title>
<path fill="none" stroke="black" d="M144.166,-365.684C154.06,-384.579 171.933,-415.641 192.885,-438 205.161,-451.1 221.042,-463.181 234.764,-472.491"/>
<polygon fill="black" stroke="black" points="233.135,-475.609 243.411,-478.191 236.988,-469.765 233.135,-475.609"/>
</g>
<!-- 6&#45;&gt;11 -->
<g id="edge28" class="edge"><title>6&#45;&gt;11</title>
<path fill="none" stroke="black" d="M155.445,-362.83C170.224,-373.28 190.709,-387.764 207.174,-399.406"/>
<polygon fill="black" stroke="black" points="205.181,-402.283 215.367,-405.199 209.222,-396.568 205.181,-402.283"/>
</g>
<!-- 7&#45;&gt;10 -->
<g id="edge33" class="edge"><title>7&#45;&gt;10</title>
<path fill="none" stroke="black" d="M697.717,-124.314C700.273,-132.289 703.23,-141.516 706.007,-150.18"/>
<polygon fill="black" stroke="black" points="702.764,-151.527 709.149,-159.982 709.43,-149.391 702.764,-151.527"/>
</g>
<!-- 8 -->
<g id="node9" class="node"><title>8</title>
<polygon fill="lightgrey" stroke="lightgrey" points="668.885,-44 624.885,-44 624.885,-0 668.885,-0 668.885,-44"/>
<text text-anchor="middle" x="646.885" y="-18.3" font-family="Times,serif" font-size="14.00">4.3.0</text>
</g>
<!-- 8&#45;&gt;7 -->
<g id="edge5" class="edge"><title>8&#45;&gt;7</title>
<path fill="none" stroke="black" d="M658.909,-44.3138C663.554,-52.5492 668.953,-62.1195 673.977,-71.0254"/>
<polygon fill="black" stroke="black" points="671.067,-72.9918 679.029,-79.982 677.164,-69.5526 671.067,-72.9918"/>
</g>
<!-- 8&#45;&gt;10 -->
<g id="edge11" class="edge"><title>8&#45;&gt;10</title>
<path fill="none" stroke="black" d="M645.784,-44.2233C645.536,-65.4647 647.524,-98.5572 659.885,-124 666.069,-136.727 676.216,-148.361 686.185,-157.753"/>
<polygon fill="black" stroke="black" points="683.918,-160.421 693.706,-164.479 688.585,-155.204 683.918,-160.421"/>
</g>
<!-- 9 -->
<g id="node10" class="node"><title>9</title>
<ellipse fill="lightgrey" stroke="lightgrey" cx="333.885" cy="-22" rx="33.2948" ry="18"/>
<text text-anchor="middle" x="333.885" y="-18.3" font-family="Times,serif" font-size="14.00">4.2.16</text>
</g>
<!-- 9&#45;&gt;4 -->
<g id="edge1" class="edge"><title>9&#45;&gt;4</title>
<path fill="none" stroke="black" d="M363.877,-29.7082C423.856,-45.0864 552.885,-88.8748 552.885,-181 552.885,-181 552.885,-181 552.885,-349 552.885,-456.771 388.65,-482.751 308.226,-489.013"/>
<polygon fill="black" stroke="black" points="307.65,-485.544 297.923,-489.742 308.145,-492.527 307.65,-485.544"/>
</g>
<!-- 9&#45;&gt;3 -->
<g id="edge3" class="edge"><title>9&#45;&gt;3</title>
<path fill="none" stroke="black" d="M351.493,-37.3064C366.286,-49.3254 387.621,-66.6598 404.299,-80.2113"/>
<polygon fill="black" stroke="black" points="402.096,-82.9306 412.064,-86.5201 406.51,-77.4978 402.096,-82.9306"/>
</g>
<!-- 9&#45;&gt;0 -->
<g id="edge8" class="edge"><title>9&#45;&gt;0</title>
<path fill="none" stroke="black" d="M321.296,-38.6532C302.679,-62.9169 268.633,-111.846 255.885,-160 240.781,-217.059 265.947,-285.055 282.736,-321.278"/>
<polygon fill="black" stroke="black" points="279.732,-323.109 287.208,-330.616 286.045,-320.086 279.732,-323.109"/>
</g>
<!-- 9&#45;&gt;5 -->
<g id="edge10" class="edge"><title>9&#45;&gt;5</title>
<path fill="none" stroke="black" d="M330.033,-39.9088C323.813,-67.2059 311.506,-121.221 304.054,-153.925"/>
<polygon fill="black" stroke="black" points="300.629,-153.206 301.82,-163.734 307.454,-154.761 300.629,-153.206"/>
</g>
<!-- 9&#45;&gt;13 -->
<g id="edge18" class="edge"><title>9&#45;&gt;13</title>
<path fill="none" stroke="black" d="M335.503,-40.0873C339.329,-80.5146 348.985,-182.53 353.905,-234.508"/>
<polygon fill="black" stroke="black" points="350.424,-234.876 354.851,-244.502 357.393,-234.217 350.424,-234.876"/>
</g>
<!-- 9&#45;&gt;11 -->
<g id="edge32" class="edge"><title>9&#45;&gt;11</title>
<path fill="none" stroke="black" d="M312.213,-35.73C296.945,-45.8256 277.267,-61.3201 265.885,-80 204.385,-180.934 220.056,-331.058 229.856,-391.915"/>
<polygon fill="black" stroke="black" points="226.423,-392.604 231.54,-401.881 233.325,-391.438 226.423,-392.604"/>
</g>
<!-- 11&#45;&gt;4 -->
<g id="edge22" class="edge"><title>11&#45;&gt;4</title>
<path fill="none" stroke="black" d="M241.995,-437.589C245.456,-445.665 249.701,-455.569 253.591,-464.645"/>
<polygon fill="black" stroke="black" points="250.462,-466.231 257.619,-474.044 256.896,-463.474 250.462,-466.231"/>
</g>
<!-- 12 -->
<g id="node13" class="node"><title>12</title>
<polygon fill="lightgrey" stroke="lightgrey" points="730.885,-44 686.885,-44 686.885,-0 730.885,-0 730.885,-44"/>
<text text-anchor="middle" x="708.885" y="-18.3" font-family="Times,serif" font-size="14.00">4.3.3</text>
</g>
<!-- 12&#45;&gt;10 -->
<g id="edge13" class="edge"><title>12&#45;&gt;10</title>
<path fill="none" stroke="black" d="M714.909,-44.1886C717.63,-54.8369 720.534,-67.9974 721.885,-80 724.501,-103.23 722.776,-129.602 720.516,-149.572"/>
<polygon fill="black" stroke="black" points="717.022,-149.31 719.268,-159.664 723.969,-150.169 717.022,-149.31"/>
</g>
<!-- 12&#45;&gt;7 -->
<g id="edge29" class="edge"><title>12&#45;&gt;7</title>
<path fill="none" stroke="black" d="M703.967,-44.3138C702.126,-52.2892 699.997,-61.5164 697.998,-70.1798"/>
<polygon fill="black" stroke="black" points="694.574,-69.451 695.736,-79.982 701.395,-71.0251 694.574,-69.451"/>
</g>
<!-- 13&#45;&gt;11 -->
<g id="edge7" class="edge"><title>13&#45;&gt;11</title>
<path fill="none" stroke="blue" stroke-width="2" d="M357.852,-292.946C357.426,-314.329 353.692,-344.926 337.885,-366 322.224,-386.881 295.967,-400.212 273.884,-408.282"/>
<polygon fill="blue" stroke="blue" points="272.731,-404.977 264.402,-411.526 274.997,-411.6 272.731,-404.977"/>
</g>
<!-- 13&#45;&gt;4 -->
<g id="edge24" class="edge"><title>13&#45;&gt;4</title>
<path fill="none" stroke="blue" stroke-width="2" d="M361.79,-292.039C364.896,-312.305 366.973,-341.789 358.885,-366 345.127,-407.186 311.876,-445.695 288.854,-468.799"/>
<polygon fill="blue" stroke="blue" points="286.174,-466.526 281.482,-476.026 291.074,-471.525 286.174,-466.526"/>
</g>
<!-- 13&#45;&gt;0 -->
<g id="edge26" class="edge"><title>13&#45;&gt;0</title>
<path fill="none" stroke="blue" stroke-width="2" d="M340.858,-288.756C332.757,-299.248 322.883,-312.036 314.452,-322.955"/>
<polygon fill="blue" stroke="blue" points="311.681,-320.816 308.34,-330.87 317.222,-325.094 311.681,-320.816"/>
</g>
<!-- 14 -->
<g id="node15" class="node"><title>14</title>
<polygon fill="lightgrey" stroke="lightgrey" points="792.885,-44 748.885,-44 748.885,-0 792.885,-0 792.885,-44"/>
<text text-anchor="middle" x="770.885" y="-18.3" font-family="Times,serif" font-size="14.00">4.3.2</text>
</g>
<!-- 14&#45;&gt;10 -->
<g id="edge4" class="edge"><title>14&#45;&gt;10</title>
<path fill="none" stroke="black" d="M763.535,-44.2886C756.469,-64.7345 745.479,-96.489 735.885,-124 732.907,-132.541 729.666,-141.797 726.676,-150.317"/>
<polygon fill="black" stroke="black" points="723.324,-149.298 723.313,-159.893 729.929,-151.617 723.324,-149.298"/>
</g>
<!-- 14&#45;&gt;7 -->
<g id="edge31" class="edge"><title>14&#45;&gt;7</title>
<path fill="none" stroke="black" d="M749.025,-44.3138C739.956,-53.1561 729.309,-63.5371 719.621,-72.9825"/>
<polygon fill="black" stroke="black" points="717.159,-70.4949 712.442,-79.982 722.046,-75.507 717.159,-70.4949"/>
</g>
<!-- 15 -->
<g id="node16" class="node"><title>15</title>
<polygon fill="lightgrey" stroke="lightgrey" points="854.885,-44 810.885,-44 810.885,-0 854.885,-0 854.885,-44"/>
<text text-anchor="middle" x="832.885" y="-18.3" font-family="Times,serif" font-size="14.00">4.3.5</text>
</g>
<!-- 15&#45;&gt;10 -->
<g id="edge21" class="edge"><title>15&#45;&gt;10</title>
<path fill="none" stroke="black" d="M817.106,-44.3086C796.638,-71.9495 760.828,-120.308 737.749,-151.474"/>
<polygon fill="black" stroke="black" points="734.739,-149.658 731.601,-159.777 740.365,-153.824 734.739,-149.658"/>
</g>
<!-- 15&#45;&gt;7 -->
<g id="edge36" class="edge"><title>15&#45;&gt;7</title>
<path fill="none" stroke="black" d="M810.743,-38.47C807.799,-40.3873 804.794,-42.2769 801.885,-44 775.63,-59.5568 744.658,-75.2529 722.111,-86.224"/>
<polygon fill="black" stroke="black" points="720.485,-83.1223 713.002,-90.6225 723.529,-89.4259 720.485,-83.1223"/>
</g>
</g>
</svg>
